<?xml version="1.0" encoding="utf-8"?>
<!-- Generator: Adobe Illustrator 19.0.1, SVG Export Plug-In . SVG Version: 6.00 Build 0)  -->
<svg version="1.1" xmlns="http://www.w3.org/2000/svg" xmlns:xlink="http://www.w3.org/1999/xlink" x="0px" y="0px"
	 viewBox="0 0 32 32" enable-background="new 0 0 32 32" xml:space="preserve">
<g id="Layer_6" display="none">
	<rect x="-43.667" y="-118.333" display="inline" fill="#E2E2E2" width="200" height="194.734"/>
</g>
<g id="Flat" display="none">
	<g display="inline">
		<path fill="#333333" d="M16,0C7.163,0,0,7.163,0,16c0,8.836,7.163,16,16,16s16-7.164,16-16C32,7.163,24.837,0,16,0z"/>
		<path fill="none" stroke="#FF6666" stroke-width="0.5" stroke-miterlimit="10" d="M16,1.359C7.914,1.359,1.359,7.914,1.359,16
			c0,8.086,6.555,14.641,14.641,14.641S30.641,24.086,30.641,16C30.641,7.914,24.086,1.359,16,1.359z"/>
	</g>
	<g display="inline">
		<path fill="#FFFFFF" d="M9.17,11.652c-0.685,0-1.242,0.556-1.242,1.242v4.967c0,0.685,0.556,1.242,1.242,1.242
			s1.242-0.556,1.242-1.242v-4.967C10.412,12.208,9.855,11.652,9.17,11.652z"/>
		<path fill="#FFFFFF" d="M22.83,11.652c-0.685,0-1.242,0.556-1.242,1.242v4.967c0,0.685,0.556,1.242,1.242,1.242
			s1.242-0.556,1.242-1.242v-4.967C24.072,12.208,23.516,11.652,22.83,11.652z"/>
		<path fill="#FFFFFF" d="M11.033,21.587h1.242v3.105c0,0.685,0.556,1.242,1.242,1.242s1.242-0.556,1.242-1.242v-3.105h2.484v3.105
			c0,0.685,0.556,1.242,1.242,1.242s1.242-0.556,1.242-1.242v-3.105h1.242v-9.314h-9.935V21.587z"/>
		<path fill="#FFFFFF" d="M18.933,7.649l0.638-1.105c0.086-0.149,0.035-0.338-0.114-0.425c-0.148-0.086-0.338-0.035-0.424,0.114
			L18.41,7.31C17.696,6.913,16.875,6.685,16,6.685c-0.875,0-1.696,0.228-2.41,0.626l-0.622-1.078
			c-0.086-0.148-0.275-0.199-0.425-0.114c-0.148,0.086-0.199,0.275-0.114,0.424l0.638,1.105c-1.231,0.904-2.035,2.358-2.035,4.004
			h9.935C20.967,10.007,20.164,8.553,18.933,7.649z M14.137,9.789c-0.343,0-0.621-0.278-0.621-0.621
			c0-0.343,0.278-0.621,0.621-0.621c0.343,0,0.621,0.278,0.621,0.621C14.758,9.512,14.481,9.789,14.137,9.789z M17.863,9.789
			c-0.343,0-0.621-0.278-0.621-0.621c0-0.343,0.278-0.621,0.621-0.621s0.621,0.278,0.621,0.621
			C18.484,9.512,18.206,9.789,17.863,9.789z"/>
	</g>
</g>
<g id="Flat_copy">
	<g>
		<path fill="#333333" d="M16,0C7.163,0,0,7.163,0,16c0,8.836,7.163,16,16,16s16-7.164,16-16C32,7.163,24.837,0,16,0z"/>
	</g>
	<g>
		<path fill="#FFFFFF" d="M9.17,11.652c-0.685,0-1.242,0.556-1.242,1.242v4.967c0,0.685,0.556,1.242,1.242,1.242
			s1.242-0.556,1.242-1.242v-4.967C10.412,12.208,9.855,11.652,9.17,11.652z"/>
		<path fill="#FFFFFF" d="M22.83,11.652c-0.685,0-1.242,0.556-1.242,1.242v4.967c0,0.685,0.556,1.242,1.242,1.242
			s1.242-0.556,1.242-1.242v-4.967C24.072,12.208,23.516,11.652,22.83,11.652z"/>
		<path fill="#FFFFFF" d="M11.033,21.587h1.242v3.105c0,0.685,0.556,1.242,1.242,1.242s1.242-0.556,1.242-1.242v-3.105h2.484v3.105
			c0,0.685,0.556,1.242,1.242,1.242s1.242-0.556,1.242-1.242v-3.105h1.242v-9.314h-9.935V21.587z"/>
		<path fill="#FFFFFF" d="M18.933,7.649l0.638-1.105c0.086-0.149,0.035-0.338-0.114-0.425c-0.148-0.086-0.338-0.035-0.424,0.114
			L18.41,7.31C17.696,6.913,16.875,6.685,16,6.685c-0.875,0-1.696,0.228-2.41,0.626l-0.622-1.078
			c-0.086-0.148-0.275-0.199-0.425-0.114c-0.148,0.086-0.199,0.275-0.114,0.424l0.638,1.105c-1.231,0.904-2.035,2.358-2.035,4.004
			h9.935C20.967,10.007,20.164,8.553,18.933,7.649z M14.137,9.789c-0.343,0-0.621-0.278-0.621-0.621
			c0-0.343,0.278-0.621,0.621-0.621c0.343,0,0.621,0.278,0.621,0.621C14.758,9.512,14.481,9.789,14.137,9.789z M17.863,9.789
			c-0.343,0-0.621-0.278-0.621-0.621c0-0.343,0.278-0.621,0.621-0.621s0.621,0.278,0.621,0.621
			C18.484,9.512,18.206,9.789,17.863,9.789z"/>
	</g>
</g>
</svg>
