<?xml version="1.0" encoding="utf-8"?>
<!-- Generator: Adobe Illustrator 19.0.1, SVG Export Plug-In . SVG Version: 6.00 Build 0)  -->
<svg version="1.1" xmlns="http://www.w3.org/2000/svg" xmlns:xlink="http://www.w3.org/1999/xlink" x="0px" y="0px"
	 viewBox="0 0 32 32" enable-background="new 0 0 32 32" xml:space="preserve">
<g id="Layer_6" display="none">
</g>
<g id="Flat" display="none">
	<g display="inline">
		<path fill="#E02F2F" d="M16-0.005c-8.837,0-16,7.163-16,16c0,8.836,7.163,16,16,16s16-7.164,16-16C32,7.158,24.837-0.005,16-0.005
			z"/>
		<path fill="none" stroke="#FF6666" stroke-width="0.5" stroke-miterlimit="10" d="M16,1.353c-8.086,0-14.641,6.555-14.641,14.641
			c0,8.086,6.555,14.641,14.641,14.641s14.641-6.555,14.641-14.641C30.641,7.909,24.086,1.353,16,1.353z"/>
	</g>
	<g display="inline">
		<path fill="#FFFFFF" d="M9.17,11.647c-0.685,0-1.242,0.556-1.242,1.242v4.967c0,0.685,0.556,1.242,1.242,1.242
			s1.242-0.556,1.242-1.242v-4.967C10.412,12.203,9.855,11.647,9.17,11.647z"/>
		<path fill="#FFFFFF" d="M22.83,11.647c-0.685,0-1.242,0.556-1.242,1.242v4.967c0,0.685,0.556,1.242,1.242,1.242
			s1.242-0.556,1.242-1.242v-4.967C24.072,12.203,23.516,11.647,22.83,11.647z"/>
		<path fill="#FFFFFF" d="M11.033,21.582h1.242v3.105c0,0.685,0.556,1.242,1.242,1.242s1.242-0.556,1.242-1.242v-3.105h2.484v3.105
			c0,0.685,0.556,1.242,1.242,1.242s1.242-0.556,1.242-1.242v-3.105h1.242v-9.314h-9.935V21.582z"/>
		<path fill="#FFFFFF" d="M18.933,7.643l0.638-1.105c0.086-0.149,0.035-0.338-0.114-0.425c-0.148-0.086-0.338-0.035-0.424,0.114
			L18.41,7.305C17.696,6.908,16.875,6.68,16,6.68c-0.875,0-1.696,0.228-2.41,0.626l-0.622-1.078
			c-0.086-0.148-0.275-0.199-0.425-0.114c-0.148,0.086-0.199,0.275-0.114,0.424l0.638,1.105c-1.231,0.904-2.035,2.358-2.035,4.004
			h9.935C20.967,10.002,20.164,8.547,18.933,7.643z M14.137,9.784c-0.343,0-0.621-0.278-0.621-0.621s0.278-0.621,0.621-0.621
			c0.343,0,0.621,0.278,0.621,0.621S14.481,9.784,14.137,9.784z M17.863,9.784c-0.343,0-0.621-0.278-0.621-0.621
			s0.278-0.621,0.621-0.621s0.621,0.278,0.621,0.621S18.206,9.784,17.863,9.784z"/>
	</g>
</g>
<g id="Flat_copy">
	<g>
		<g>
			<path fill="#FFFFFF" d="M16,31.62c-8.615,0-15.625-7.01-15.625-15.625S7.385,0.37,16,0.37s15.625,7.01,15.625,15.625
				S24.615,31.62,16,31.62z"/>
			<path fill="#E5E5E5" d="M16,0.745c8.409,0,15.25,6.841,15.25,15.25c0,8.409-6.841,15.25-15.25,15.25S0.75,24.404,0.75,15.995
				C0.75,7.586,7.591,0.745,16,0.745 M16-0.005c-8.837,0-16,7.163-16,16c0,8.836,7.163,16,16,16s16-7.164,16-16
				C32,7.158,24.837-0.005,16-0.005L16-0.005z"/>
		</g>
	</g>
	<g>
		<path fill="#333333" d="M9.17,11.647c-0.685,0-1.242,0.556-1.242,1.242v4.967c0,0.685,0.556,1.242,1.242,1.242
			s1.242-0.556,1.242-1.242v-4.967C10.412,12.203,9.855,11.647,9.17,11.647z"/>
		<path fill="#333333" d="M22.83,11.647c-0.685,0-1.242,0.556-1.242,1.242v4.967c0,0.685,0.556,1.242,1.242,1.242
			s1.242-0.556,1.242-1.242v-4.967C24.072,12.203,23.516,11.647,22.83,11.647z"/>
		<path fill="#333333" d="M11.033,21.582h1.242v3.105c0,0.685,0.556,1.242,1.242,1.242s1.242-0.556,1.242-1.242v-3.105h2.484v3.105
			c0,0.685,0.556,1.242,1.242,1.242s1.242-0.556,1.242-1.242v-3.105h1.242v-9.314h-9.935V21.582z"/>
		<path fill="#333333" d="M18.933,7.643l0.638-1.105c0.086-0.149,0.035-0.338-0.114-0.425c-0.148-0.086-0.338-0.035-0.424,0.114
			L18.41,7.305C17.696,6.908,16.875,6.68,16,6.68c-0.875,0-1.696,0.228-2.41,0.626l-0.622-1.078
			c-0.086-0.148-0.275-0.199-0.425-0.114c-0.148,0.086-0.199,0.275-0.114,0.424l0.638,1.105c-1.231,0.904-2.035,2.358-2.035,4.004
			h9.935C20.967,10.002,20.164,8.547,18.933,7.643z M14.137,9.784c-0.343,0-0.621-0.278-0.621-0.621s0.278-0.621,0.621-0.621
			c0.343,0,0.621,0.278,0.621,0.621S14.481,9.784,14.137,9.784z M17.863,9.784c-0.343,0-0.621-0.278-0.621-0.621
			s0.278-0.621,0.621-0.621s0.621,0.278,0.621,0.621S18.206,9.784,17.863,9.784z"/>
	</g>
</g>
</svg>
