<?xml version="1.0" encoding="utf-8"?>
<!-- Generator: Adobe Illustrator 19.2.1, SVG Export Plug-In . SVG Version: 6.00 Build 0)  -->
<svg version="1.1" xmlns="http://www.w3.org/2000/svg" xmlns:xlink="http://www.w3.org/1999/xlink" x="0px" y="0px"
	 viewBox="0 0 32 32" enable-background="new 0 0 32 32" xml:space="preserve">
<g id="Layer_6" display="none">
	<rect x="-135.198" y="-1.333" display="inline" fill="#E2E2E2" width="415.531" height="194.734"/>
</g>
<g id="Style_1" display="none">
	<g display="inline">
		<path fill="#E02F2F" d="M16,0C7.163,0,0,7.163,0,16c0,8.836,7.163,16,16,16s16-7.164,16-16C32,7.163,24.837,0,16,0z"/>
		<path fill="none" stroke="#FF6666" stroke-width="0.5" stroke-miterlimit="10" d="M16,1.359C7.914,1.359,1.359,7.914,1.359,16
			c0,8.086,6.555,14.641,14.641,14.641S30.641,24.086,30.641,16C30.641,7.914,24.086,1.359,16,1.359z"/>
	</g>
	<path display="inline" fill="#FFFFFF" d="M22.644,10.534c-0.016,0.023-1.396,2.017-4.793,3.404c0.2,0.41,0.393,0.828,0.572,1.248
		c0.064,0.151,0.126,0.298,0.186,0.446c2.956-0.372,5.868,0.253,5.992,0.279C24.581,13.872,23.851,12,22.644,10.534z M19.133,16.99
		c1.128,3.101,1.587,5.627,1.675,6.146c1.932-1.304,3.304-3.373,3.687-5.771C24.317,17.307,21.91,16.545,19.133,16.99z
		 M19.359,23.922c-0.127-0.752-0.627-3.387-1.837-6.533c-0.019,0.007-0.038,0.012-0.058,0.019c-5.076,1.769-6.734,5.335-6.752,5.375
		c1.461,1.136,3.293,1.822,5.288,1.822C17.191,24.604,18.326,24.361,19.359,23.922z M17.189,12.656
		c3.246-1.217,4.472-3.082,4.493-3.114C20.167,8.207,18.178,7.397,16,7.397c-0.699,0-1.378,0.085-2.027,0.241
		C14.101,7.811,15.717,9.955,17.189,12.656z M16.934,15.963c-0.216-0.489-0.452-0.979-0.698-1.462
		c-4.43,1.326-8.681,1.231-8.833,1.225C7.401,15.818,7.396,15.907,7.396,16c0,2.21,0.834,4.226,2.204,5.748
		c-0.003-0.004,2.352-4.181,6.995-5.683C16.707,16.029,16.821,15.995,16.934,15.963z M25.869,13.972
		c0.136,0.663,0.206,1.345,0.206,2.029c0,0.682-0.069,1.364-0.206,2.027c-0.133,0.649-0.33,1.285-0.587,1.894
		c-0.252,0.597-0.564,1.174-0.929,1.711c-0.359,0.534-0.774,1.034-1.229,1.491c-0.456,0.454-0.958,0.868-1.491,1.23
		c-0.539,0.363-1.115,0.674-1.712,0.928c-0.609,0.257-1.245,0.453-1.893,0.586c-0.664,0.137-1.347,0.207-2.029,0.207
		c-0.683,0-1.366-0.069-2.029-0.207c-0.648-0.133-1.285-0.33-1.893-0.586c-0.597-0.254-1.174-0.566-1.712-0.928
		c-0.533-0.362-1.034-0.776-1.489-1.23c-0.456-0.457-0.87-0.957-1.23-1.491c-0.363-0.537-0.676-1.114-0.929-1.711
		c-0.258-0.609-0.455-1.245-0.589-1.894C5.994,17.364,5.925,16.682,5.925,16c0-0.683,0.069-1.366,0.204-2.029
		c0.133-0.649,0.33-1.286,0.588-1.893c0.253-0.599,0.566-1.175,0.929-1.712c0.36-0.534,0.774-1.034,1.23-1.491
		c0.455-0.455,0.957-0.867,1.489-1.228c0.539-0.365,1.115-0.677,1.712-0.931c0.608-0.258,1.245-0.455,1.893-0.587
		C14.634,5.993,15.317,5.925,16,5.925c0.682,0,1.365,0.069,2.029,0.205c0.647,0.132,1.284,0.329,1.893,0.587
		c0.597,0.253,1.173,0.566,1.712,0.931c0.533,0.361,1.035,0.774,1.491,1.228c0.455,0.457,0.87,0.957,1.229,1.491
		c0.365,0.537,0.677,1.114,0.929,1.712C25.54,12.686,25.737,13.323,25.869,13.972z M15.524,13.176
		c-1.489-2.646-3.08-4.805-3.195-4.958c-2.4,1.133-4.19,3.344-4.749,6.009C7.807,14.228,11.393,14.273,15.524,13.176z"/>
</g>
<g id="Style_1_copy" display="none">
	<polygon display="inline" fill="#E02F2F" points="28.875,6.879 16,0 3.125,6.879 3.125,25.121 16,32 28.875,25.121 	"/>
	<path display="inline" fill="#FFFFFF" d="M22.644,10.534c-0.016,0.023-1.396,2.017-4.793,3.404c0.2,0.41,0.393,0.828,0.572,1.248
		c0.064,0.151,0.126,0.298,0.186,0.446c2.956-0.372,5.868,0.253,5.992,0.279C24.581,13.872,23.851,12,22.644,10.534z M19.133,16.99
		c1.128,3.101,1.587,5.627,1.675,6.146c1.932-1.304,3.304-3.373,3.687-5.771C24.317,17.307,21.91,16.545,19.133,16.99z
		 M19.359,23.922c-0.127-0.752-0.627-3.387-1.837-6.533c-0.019,0.007-0.038,0.012-0.058,0.019c-5.076,1.769-6.734,5.335-6.752,5.375
		c1.461,1.136,3.293,1.822,5.288,1.822C17.191,24.604,18.326,24.361,19.359,23.922z M17.189,12.656
		c3.246-1.217,4.472-3.082,4.493-3.114C20.167,8.207,18.178,7.397,16,7.397c-0.699,0-1.378,0.085-2.027,0.241
		C14.101,7.811,15.717,9.955,17.189,12.656z M16.934,15.963c-0.216-0.489-0.452-0.979-0.698-1.462
		c-4.43,1.326-8.681,1.231-8.833,1.225C7.401,15.818,7.396,15.907,7.396,16c0,2.21,0.834,4.226,2.204,5.748
		c-0.003-0.004,2.352-4.181,6.995-5.683C16.707,16.029,16.821,15.995,16.934,15.963z M25.869,13.972
		c0.136,0.663,0.206,1.345,0.206,2.029c0,0.682-0.069,1.364-0.206,2.027c-0.133,0.649-0.33,1.285-0.587,1.894
		c-0.252,0.597-0.564,1.174-0.929,1.711c-0.359,0.534-0.774,1.034-1.229,1.491c-0.456,0.454-0.958,0.868-1.491,1.23
		c-0.539,0.363-1.115,0.674-1.712,0.928c-0.609,0.257-1.245,0.453-1.893,0.586c-0.664,0.137-1.347,0.207-2.029,0.207
		c-0.683,0-1.366-0.069-2.029-0.207c-0.648-0.133-1.285-0.33-1.893-0.586c-0.597-0.254-1.174-0.566-1.712-0.928
		c-0.533-0.362-1.034-0.776-1.489-1.23c-0.456-0.457-0.87-0.957-1.23-1.491c-0.363-0.537-0.676-1.114-0.929-1.711
		c-0.258-0.609-0.455-1.245-0.589-1.894C5.994,17.364,5.925,16.682,5.925,16c0-0.683,0.069-1.366,0.204-2.029
		c0.133-0.649,0.33-1.286,0.588-1.893c0.253-0.599,0.566-1.175,0.929-1.712c0.36-0.534,0.774-1.034,1.23-1.491
		c0.455-0.455,0.957-0.867,1.489-1.228c0.539-0.365,1.115-0.677,1.712-0.931c0.608-0.258,1.245-0.455,1.893-0.587
		C14.634,5.993,15.317,5.925,16,5.925c0.682,0,1.365,0.069,2.029,0.205c0.647,0.132,1.284,0.329,1.893,0.587
		c0.597,0.253,1.173,0.566,1.712,0.931c0.533,0.361,1.035,0.774,1.491,1.228c0.455,0.457,0.87,0.957,1.229,1.491
		c0.365,0.537,0.677,1.114,0.929,1.712C25.54,12.686,25.737,13.323,25.869,13.972z M15.524,13.176
		c-1.489-2.646-3.08-4.805-3.195-4.958c-2.4,1.133-4.19,3.344-4.749,6.009C7.807,14.228,11.393,14.273,15.524,13.176z"/>
</g>
<g id="Style_2" display="none">
	<g display="inline">
		<g>
			<path fill="#FFFFFF" d="M16,31.625c-8.615,0-15.625-7.01-15.625-15.625C0.375,7.384,7.385,0.375,16,0.375S31.625,7.384,31.625,16
				C31.625,24.615,24.615,31.625,16,31.625z"/>
			<path fill="#E5E5E5" d="M16,0.75c8.409,0,15.25,6.841,15.25,15.25S24.409,31.25,16,31.25S0.75,24.409,0.75,16S7.591,0.75,16,0.75
				 M16,0C7.163,0,0,7.163,0,16c0,8.836,7.163,16,16,16s16-7.164,16-16C32,7.163,24.837,0,16,0L16,0z"/>
		</g>
	</g>
	<path display="inline" fill="#333333" d="M22.644,10.534c-0.016,0.023-1.396,2.017-4.793,3.404c0.2,0.41,0.393,0.828,0.572,1.248
		c0.064,0.151,0.126,0.298,0.186,0.446c2.956-0.372,5.868,0.253,5.992,0.279C24.581,13.872,23.851,12,22.644,10.534z M19.133,16.99
		c1.128,3.101,1.587,5.627,1.675,6.146c1.932-1.304,3.304-3.373,3.687-5.771C24.317,17.307,21.91,16.545,19.133,16.99z
		 M19.359,23.922c-0.127-0.752-0.627-3.387-1.837-6.533c-0.019,0.007-0.038,0.012-0.058,0.019c-5.076,1.769-6.734,5.335-6.752,5.375
		c1.461,1.136,3.293,1.822,5.288,1.822C17.191,24.604,18.326,24.361,19.359,23.922z M17.189,12.656
		c3.246-1.217,4.472-3.082,4.493-3.114C20.167,8.207,18.178,7.397,16,7.397c-0.699,0-1.378,0.085-2.027,0.241
		C14.101,7.811,15.717,9.955,17.189,12.656z M16.934,15.963c-0.216-0.489-0.452-0.979-0.698-1.462
		c-4.43,1.326-8.681,1.231-8.833,1.225C7.401,15.818,7.396,15.907,7.396,16c0,2.21,0.834,4.226,2.204,5.748
		c-0.003-0.004,2.352-4.181,6.995-5.683C16.707,16.029,16.821,15.995,16.934,15.963z M25.869,13.972
		c0.136,0.663,0.206,1.345,0.206,2.029c0,0.682-0.069,1.364-0.206,2.027c-0.133,0.649-0.33,1.285-0.587,1.894
		c-0.252,0.597-0.564,1.174-0.929,1.711c-0.359,0.534-0.774,1.034-1.229,1.491c-0.456,0.454-0.958,0.868-1.491,1.23
		c-0.539,0.363-1.115,0.674-1.712,0.928c-0.609,0.257-1.245,0.453-1.893,0.586c-0.664,0.137-1.347,0.207-2.029,0.207
		c-0.683,0-1.366-0.069-2.029-0.207c-0.648-0.133-1.285-0.33-1.893-0.586c-0.597-0.254-1.174-0.566-1.712-0.928
		c-0.533-0.362-1.034-0.776-1.489-1.23c-0.456-0.457-0.87-0.957-1.23-1.491c-0.363-0.537-0.676-1.114-0.929-1.711
		c-0.258-0.609-0.455-1.245-0.589-1.894C5.994,17.364,5.925,16.682,5.925,16c0-0.683,0.069-1.366,0.204-2.029
		c0.133-0.649,0.33-1.286,0.588-1.893c0.253-0.599,0.566-1.175,0.929-1.712c0.36-0.534,0.774-1.034,1.23-1.491
		c0.455-0.455,0.957-0.867,1.489-1.228c0.539-0.365,1.115-0.677,1.712-0.931c0.608-0.258,1.245-0.455,1.893-0.587
		C14.634,5.993,15.317,5.925,16,5.925c0.682,0,1.365,0.069,2.029,0.205c0.647,0.132,1.284,0.329,1.893,0.587
		c0.597,0.253,1.173,0.566,1.712,0.931c0.533,0.361,1.035,0.774,1.491,1.228c0.455,0.457,0.87,0.957,1.229,1.491
		c0.365,0.537,0.677,1.114,0.929,1.712C25.54,12.686,25.737,13.323,25.869,13.972z M15.524,13.176
		c-1.489-2.646-3.08-4.805-3.195-4.958c-2.4,1.133-4.19,3.344-4.749,6.009C7.807,14.228,11.393,14.273,15.524,13.176z"/>
</g>
<g id="Style_2_copy_3">
	<g>
		<g>
			<g>
				<path fill="#FFFFFF" d="M16,31.625c-8.615,0-15.625-7.01-15.625-15.625C0.375,7.384,7.385,0.375,16,0.375
					S31.625,7.384,31.625,16C31.625,24.615,24.615,31.625,16,31.625z"/>
				<path fill="#E5E5E5" d="M16,0.75c8.409,0,15.25,6.841,15.25,15.25S24.409,31.25,16,31.25S0.75,24.409,0.75,16
					S7.591,0.75,16,0.75 M16,0C7.163,0,0,7.163,0,16c0,8.836,7.163,16,16,16s16-7.164,16-16C32,7.163,24.837,0,16,0L16,0z"/>
			</g>
		</g>
		<g>
			<g>
				<path fill="#333333" d="M17.091,15.771c1.381-0.286,2.527-1.534,2.527-3.361c0-1.954-1.426-3.73-4.214-3.73H7.69v14.64h7.957
					c2.813,0,4.265-1.757,4.265-3.972C19.905,17.528,18.676,16.013,17.091,15.771z M10.809,11.423h3.908
					c1.057,0,1.712,0.637,1.712,1.534c0,0.942-0.662,1.534-1.712,1.534h-3.908V11.423z M14.851,20.577h-4.042v-3.335h4.042
					c1.209,0,1.865,0.745,1.865,1.668C16.722,19.959,16.016,20.577,14.851,20.577z M23.749,8.705c-0.942,0-1.738,0.789-1.738,1.731
					s0.662,1.579,1.496,1.579c0.178,0,0.35-0.019,0.42-0.064c-0.178,0.789-0.987,1.712-1.693,2.088l1.209,0.987
					c1.356-0.961,2.26-2.432,2.26-4.08C25.704,9.52,24.781,8.705,23.749,8.705z"/>
			</g>
		</g>
	</g>
</g>
<g id="Style_2_copy" display="none">
	<g display="inline">
		<g>
			<path fill="#FFFFFF" d="M16,31.25C7.591,31.25,0.75,24.409,0.75,16C0.75,7.591,7.591,0.75,16,0.75S31.25,7.591,31.25,16
				C31.25,24.409,24.409,31.25,16,31.25z"/>
			<path fill="#FF0000" d="M16,1.5c7.995,0,14.5,6.505,14.5,14.5S23.995,30.5,16,30.5S1.5,23.995,1.5,16S8.005,1.5,16,1.5 M16,0
				C7.163,0,0,7.163,0,16c0,8.836,7.163,16,16,16s16-7.164,16-16C32,7.163,24.837,0,16,0L16,0z"/>
		</g>
	</g>
	<path display="inline" d="M22.925,10.303c-0.017,0.024-1.456,2.102-4.996,3.548c0.208,0.428,0.41,0.863,0.596,1.3
		c0.066,0.157,0.131,0.311,0.194,0.465c3.081-0.388,6.116,0.264,6.246,0.291C24.944,13.782,24.183,11.831,22.925,10.303z
		 M19.266,17.032c1.176,3.232,1.654,5.865,1.745,6.406c2.013-1.359,3.444-3.516,3.843-6.015
		C24.669,17.362,22.161,16.568,19.266,17.032z M19.501,24.257c-0.132-0.784-0.653-3.53-1.915-6.81c-0.02,0.007-0.04,0.013-0.06,0.02
		c-5.291,1.843-7.019,5.561-7.038,5.602c1.522,1.184,3.432,1.899,5.512,1.899C17.242,24.968,18.424,24.715,19.501,24.257z
		 M17.239,12.515c3.384-1.268,4.661-3.213,4.683-3.246C20.343,7.877,18.27,7.033,16,7.033c-0.729,0-1.436,0.088-2.113,0.251
		C14.021,7.464,15.705,9.699,17.239,12.515z M16.974,15.961c-0.225-0.51-0.471-1.02-0.727-1.524
		c-4.618,1.383-9.048,1.283-9.207,1.277C7.037,15.81,7.032,15.903,7.032,16c0,2.304,0.869,4.405,2.298,5.991
		c-0.003-0.004,2.451-4.358,7.291-5.923C16.737,16.03,16.856,15.995,16.974,15.961z M26.287,13.886
		c0.142,0.691,0.215,1.402,0.215,2.114c0,0.711-0.072,1.421-0.215,2.113c-0.139,0.676-0.344,1.34-0.612,1.974
		c-0.262,0.623-0.588,1.223-0.968,1.783c-0.374,0.556-0.807,1.078-1.281,1.554c-0.476,0.473-0.998,0.905-1.554,1.282
		c-0.561,0.378-1.162,0.703-1.784,0.968c-0.634,0.268-1.298,0.473-1.973,0.611c-0.693,0.143-1.404,0.216-2.115,0.216
		c-0.712,0-1.424-0.072-2.115-0.216c-0.675-0.139-1.34-0.344-1.973-0.611c-0.623-0.265-1.223-0.59-1.785-0.968
		c-0.555-0.377-1.078-0.808-1.552-1.282c-0.475-0.476-0.906-0.998-1.282-1.554c-0.379-0.56-0.705-1.161-0.968-1.783
		c-0.268-0.634-0.474-1.298-0.613-1.974C5.57,17.422,5.499,16.711,5.499,16c0-0.712,0.072-1.424,0.213-2.114
		c0.139-0.676,0.344-1.34,0.613-1.973c0.264-0.624,0.59-1.225,0.968-1.785C7.667,9.571,8.1,9.05,8.575,8.574
		C9.049,8.1,9.572,7.67,10.127,7.293c0.561-0.38,1.162-0.706,1.785-0.97c0.634-0.268,1.298-0.474,1.973-0.612
		C14.576,5.57,15.288,5.498,16,5.498c0.711,0,1.422,0.072,2.115,0.213c0.675,0.138,1.338,0.343,1.973,0.612
		c0.623,0.264,1.223,0.59,1.784,0.97c0.555,0.376,1.079,0.807,1.554,1.28c0.474,0.476,0.906,0.997,1.281,1.554
		c0.381,0.56,0.706,1.161,0.968,1.785C25.944,12.546,26.149,13.21,26.287,13.886z M15.504,13.056
		c-1.552-2.758-3.211-5.008-3.33-5.168c-2.501,1.181-4.367,3.486-4.949,6.263C7.46,14.153,11.198,14.2,15.504,13.056z"/>
</g>
<g id="Style_2_copy_2" display="none">
	<path display="inline" fill="#FFFFFF" d="M16,31.25C7.591,31.25,0.75,24.409,0.75,16C0.75,7.591,7.591,0.75,16,0.75
		S31.25,7.591,31.25,16C31.25,24.409,24.409,31.25,16,31.25z"/>
	<path display="inline" fill="#8AD5DD" d="M16,1.5c7.995,0,14.5,6.505,14.5,14.5S23.995,30.5,16,30.5S1.5,23.995,1.5,16
		S8.005,1.5,16,1.5 M16,0C7.163,0,0,7.163,0,16c0,8.836,7.163,16,16,16s16-7.164,16-16C32,7.163,24.837,0,16,0L16,0z"/>
	<path display="inline" fill="#333333" d="M22.925,10.303c-0.017,0.024-1.456,2.102-4.996,3.548c0.208,0.428,0.41,0.863,0.596,1.3
		c0.066,0.157,0.131,0.311,0.194,0.465c3.081-0.388,6.116,0.264,6.246,0.291C24.944,13.782,24.183,11.831,22.925,10.303z
		 M19.266,17.032c1.176,3.232,1.654,5.865,1.745,6.406c2.013-1.359,3.444-3.516,3.843-6.015
		C24.669,17.362,22.161,16.568,19.266,17.032z M19.501,24.257c-0.132-0.784-0.653-3.53-1.915-6.81c-0.02,0.007-0.04,0.013-0.06,0.02
		c-5.291,1.843-7.019,5.561-7.038,5.602c1.522,1.184,3.432,1.899,5.512,1.899C17.242,24.968,18.424,24.715,19.501,24.257z
		 M17.239,12.515c3.384-1.268,4.661-3.213,4.683-3.246C20.343,7.877,18.27,7.033,16,7.033c-0.729,0-1.436,0.088-2.113,0.251
		C14.021,7.464,15.705,9.699,17.239,12.515z M16.974,15.961c-0.225-0.51-0.471-1.02-0.727-1.524
		c-4.618,1.383-9.048,1.283-9.207,1.277C7.037,15.81,7.032,15.903,7.032,16c0,2.304,0.869,4.405,2.298,5.991
		c-0.003-0.004,2.451-4.358,7.291-5.923C16.737,16.03,16.856,15.995,16.974,15.961z M26.287,13.886
		c0.142,0.691,0.215,1.402,0.215,2.114c0,0.711-0.072,1.421-0.215,2.113c-0.139,0.676-0.344,1.34-0.612,1.974
		c-0.262,0.623-0.588,1.223-0.968,1.783c-0.374,0.556-0.807,1.078-1.281,1.554c-0.476,0.473-0.998,0.905-1.554,1.282
		c-0.561,0.378-1.162,0.703-1.784,0.968c-0.634,0.268-1.298,0.473-1.973,0.611c-0.693,0.143-1.404,0.216-2.115,0.216
		c-0.712,0-1.424-0.072-2.115-0.216c-0.675-0.139-1.34-0.344-1.973-0.611c-0.623-0.265-1.223-0.59-1.785-0.968
		c-0.555-0.377-1.078-0.808-1.552-1.282c-0.475-0.476-0.906-0.998-1.282-1.554c-0.379-0.56-0.705-1.161-0.968-1.783
		c-0.268-0.634-0.474-1.298-0.613-1.974C5.57,17.422,5.499,16.711,5.499,16c0-0.712,0.072-1.424,0.213-2.114
		c0.139-0.676,0.344-1.34,0.613-1.973c0.264-0.624,0.59-1.225,0.968-1.785C7.667,9.571,8.1,9.05,8.575,8.574
		C9.049,8.1,9.572,7.67,10.127,7.293c0.561-0.38,1.162-0.706,1.785-0.97c0.634-0.268,1.298-0.474,1.973-0.612
		C14.576,5.57,15.288,5.498,16,5.498c0.711,0,1.422,0.072,2.115,0.213c0.675,0.138,1.338,0.343,1.973,0.612
		c0.623,0.264,1.223,0.59,1.784,0.97c0.555,0.376,1.079,0.807,1.554,1.28c0.474,0.476,0.906,0.997,1.281,1.554
		c0.381,0.56,0.706,1.161,0.968,1.785C25.944,12.546,26.149,13.21,26.287,13.886z M15.504,13.056
		c-1.552-2.758-3.211-5.008-3.33-5.168c-2.501,1.181-4.367,3.486-4.949,6.263C7.46,14.153,11.198,14.2,15.504,13.056z"/>
</g>
<g id="Style_3" display="none">
	<g display="inline">
		<g>
			<path fill="#FFFFFF" d="M16,31.625c-8.615,0-15.625-7.01-15.625-15.625C0.375,7.384,7.385,0.375,16,0.375S31.625,7.384,31.625,16
				C31.625,24.615,24.615,31.625,16,31.625z"/>
			<path fill="#E5E5E5" d="M16,0.75c8.409,0,15.25,6.841,15.25,15.25S24.409,31.25,16,31.25S0.75,24.409,0.75,16S7.591,0.75,16,0.75
				 M16,0C7.163,0,0,7.163,0,16c0,8.836,7.163,16,16,16s16-7.164,16-16C32,7.163,24.837,0,16,0L16,0z"/>
		</g>
	</g>
	<path display="inline" fill="#FF3878" d="M22.644,10.534c-0.016,0.023-1.396,2.017-4.793,3.404c0.2,0.41,0.393,0.828,0.572,1.248
		c0.064,0.151,0.126,0.298,0.186,0.446c2.956-0.372,5.868,0.253,5.992,0.279C24.581,13.872,23.851,12,22.644,10.534z M19.133,16.99
		c1.128,3.101,1.587,5.627,1.675,6.146c1.932-1.304,3.304-3.373,3.687-5.771C24.317,17.307,21.91,16.545,19.133,16.99z
		 M19.359,23.922c-0.127-0.752-0.627-3.387-1.837-6.533c-0.019,0.007-0.038,0.012-0.058,0.019c-5.076,1.769-6.734,5.335-6.752,5.375
		c1.461,1.136,3.293,1.822,5.288,1.822C17.191,24.604,18.326,24.361,19.359,23.922z M17.189,12.656
		c3.246-1.217,4.472-3.082,4.493-3.114C20.167,8.207,18.178,7.397,16,7.397c-0.699,0-1.378,0.085-2.027,0.241
		C14.101,7.811,15.717,9.955,17.189,12.656z M16.934,15.963c-0.216-0.489-0.452-0.979-0.698-1.462
		c-4.43,1.326-8.681,1.231-8.833,1.225C7.401,15.818,7.396,15.907,7.396,16c0,2.21,0.834,4.226,2.204,5.748
		c-0.003-0.004,2.352-4.181,6.995-5.683C16.707,16.029,16.821,15.995,16.934,15.963z M25.869,13.972
		c0.136,0.663,0.206,1.345,0.206,2.029c0,0.682-0.069,1.364-0.206,2.027c-0.133,0.649-0.33,1.285-0.587,1.894
		c-0.252,0.597-0.564,1.174-0.929,1.711c-0.359,0.534-0.774,1.034-1.229,1.491c-0.456,0.454-0.958,0.868-1.491,1.23
		c-0.539,0.363-1.115,0.674-1.712,0.928c-0.609,0.257-1.245,0.453-1.893,0.586c-0.664,0.137-1.347,0.207-2.029,0.207
		c-0.683,0-1.366-0.069-2.029-0.207c-0.648-0.133-1.285-0.33-1.893-0.586c-0.597-0.254-1.174-0.566-1.712-0.928
		c-0.533-0.362-1.034-0.776-1.489-1.23c-0.456-0.457-0.87-0.957-1.23-1.491c-0.363-0.537-0.676-1.114-0.929-1.711
		c-0.258-0.609-0.455-1.245-0.589-1.894C5.994,17.364,5.925,16.682,5.925,16c0-0.683,0.069-1.366,0.204-2.029
		c0.133-0.649,0.33-1.286,0.588-1.893c0.253-0.599,0.566-1.175,0.929-1.712c0.36-0.534,0.774-1.034,1.23-1.491
		c0.455-0.455,0.957-0.867,1.489-1.228c0.539-0.365,1.115-0.677,1.712-0.931c0.608-0.258,1.245-0.455,1.893-0.587
		C14.634,5.993,15.317,5.925,16,5.925c0.682,0,1.365,0.069,2.029,0.205c0.647,0.132,1.284,0.329,1.893,0.587
		c0.597,0.253,1.173,0.566,1.712,0.931c0.533,0.361,1.035,0.774,1.491,1.228c0.455,0.457,0.87,0.957,1.229,1.491
		c0.365,0.537,0.677,1.114,0.929,1.712C25.54,12.686,25.737,13.323,25.869,13.972z M15.524,13.176
		c-1.489-2.646-3.08-4.805-3.195-4.958c-2.4,1.133-4.19,3.344-4.749,6.009C7.807,14.228,11.393,14.273,15.524,13.176z"/>
</g>
<g id="Style_3_copy_2" display="none">
	<path display="inline" fill="#E04F5F" d="M26.552,7.32c-0.025,0.036-2.218,3.203-7.612,5.406c0.317,0.652,0.625,1.315,0.909,1.981
		c0.101,0.239,0.2,0.473,0.295,0.708c4.694-0.591,9.318,0.402,9.516,0.444C29.627,12.62,28.468,9.648,26.552,7.32z M20.976,17.572
		c1.792,4.925,2.52,8.936,2.659,9.76c3.067-2.07,5.247-5.357,5.855-9.165C29.208,18.075,25.386,16.865,20.976,17.572z M21.334,28.58
		c-0.202-1.194-0.995-5.378-2.918-10.375c-0.031,0.011-0.061,0.02-0.092,0.031c-8.061,2.809-10.694,8.473-10.722,8.536
		c2.319,1.804,5.229,2.893,8.398,2.893C17.892,29.663,19.694,29.278,21.334,28.58z M17.888,10.69
		c5.155-1.932,7.101-4.895,7.135-4.945C22.618,3.624,19.459,2.338,16,2.338c-1.11,0-2.188,0.134-3.22,0.383
		C12.985,2.995,15.551,6.4,17.888,10.69z M17.484,15.941c-0.343-0.777-0.717-1.555-1.108-2.322
		c-7.036,2.107-13.786,1.955-14.028,1.946C2.344,15.711,2.336,15.853,2.336,16c0,3.51,1.324,6.711,3.501,9.128
		c-0.005-0.006,3.735-6.64,11.108-9.025C17.122,16.045,17.304,15.992,17.484,15.941z M31.673,12.779C31.889,13.831,32,14.915,32,16
		c0,1.083-0.11,2.165-0.327,3.22c-0.211,1.03-0.524,2.041-0.933,3.008c-0.4,0.949-0.895,1.864-1.475,2.717
		c-0.571,0.848-1.229,1.642-1.952,2.368c-0.725,0.721-1.521,1.378-2.367,1.953c-0.855,0.576-1.77,1.071-2.718,1.474
		c-0.966,0.408-1.978,0.72-3.006,0.931C18.167,31.889,17.083,32,16,32c-1.085,0-2.169-0.11-3.222-0.329
		c-1.029-0.211-2.041-0.524-3.007-0.931c-0.949-0.403-1.864-0.898-2.719-1.474c-0.846-0.574-1.642-1.232-2.365-1.953
		c-0.724-0.726-1.381-1.52-1.953-2.368c-0.577-0.853-1.074-1.769-1.475-2.717c-0.409-0.966-0.723-1.978-0.935-3.008
		C0.109,18.166,0,17.084,0,16c0-1.085,0.109-2.169,0.324-3.221c0.212-1.03,0.525-2.042,0.934-3.007
		c0.402-0.951,0.898-1.866,1.475-2.719c0.571-0.849,1.23-1.642,1.953-2.368c0.723-0.722,1.519-1.377,2.365-1.951
		c0.855-0.579,1.77-1.076,2.719-1.478c0.966-0.409,1.978-0.722,3.007-0.932C13.831,0.109,14.915,0,16,0
		c1.083,0,2.167,0.109,3.222,0.325c1.028,0.21,2.039,0.523,3.006,0.932c0.949,0.402,1.863,0.899,2.718,1.478
		c0.846,0.573,1.643,1.229,2.367,1.951c0.722,0.726,1.381,1.519,1.952,2.368c0.58,0.853,1.076,1.769,1.475,2.719
		C31.15,10.737,31.463,11.749,31.673,12.779z M15.244,11.515c-2.365-4.202-4.892-7.631-5.074-7.873
		c-3.811,1.799-6.654,5.311-7.541,9.542C2.989,13.186,8.683,13.258,15.244,11.515z"/>
</g>
<g id="Style_3_copy" display="none">
	<g display="inline">
		<g>
			<path fill="#FFFFFF" d="M16,31.625c-8.615,0-15.625-7.01-15.625-15.625C0.375,7.384,7.385,0.375,16,0.375S31.625,7.384,31.625,16
				C31.625,24.615,24.615,31.625,16,31.625z"/>
			<path fill="#E5E5E5" d="M16,0.75c8.409,0,15.25,6.841,15.25,15.25S24.409,31.25,16,31.25S0.75,24.409,0.75,16S7.591,0.75,16,0.75
				 M16,0C7.163,0,0,7.163,0,16c0,8.836,7.163,16,16,16s16-7.164,16-16C32,7.163,24.837,0,16,0L16,0z"/>
		</g>
	</g>
	<path display="inline" fill="#0BA4E0" d="M22.644,10.534c-0.016,0.023-1.396,2.017-4.793,3.404c0.2,0.41,0.393,0.828,0.572,1.248
		c0.064,0.151,0.126,0.298,0.186,0.446c2.956-0.372,5.868,0.253,5.992,0.279C24.581,13.872,23.851,12,22.644,10.534z M19.133,16.99
		c1.128,3.101,1.587,5.627,1.675,6.146c1.932-1.304,3.304-3.373,3.687-5.771C24.317,17.307,21.91,16.545,19.133,16.99z
		 M19.359,23.922c-0.127-0.752-0.627-3.387-1.837-6.533c-0.019,0.007-0.038,0.012-0.058,0.019c-5.076,1.769-6.734,5.335-6.752,5.375
		c1.461,1.136,3.293,1.822,5.288,1.822C17.191,24.604,18.326,24.361,19.359,23.922z M17.189,12.656
		c3.246-1.217,4.472-3.082,4.493-3.114C20.167,8.207,18.178,7.397,16,7.397c-0.699,0-1.378,0.085-2.027,0.241
		C14.101,7.811,15.717,9.955,17.189,12.656z M16.934,15.963c-0.216-0.489-0.452-0.979-0.698-1.462
		c-4.43,1.326-8.681,1.231-8.833,1.225C7.401,15.818,7.396,15.907,7.396,16c0,2.21,0.834,4.226,2.204,5.748
		c-0.003-0.004,2.352-4.181,6.995-5.683C16.707,16.029,16.821,15.995,16.934,15.963z M25.869,13.972
		c0.136,0.663,0.206,1.345,0.206,2.029c0,0.682-0.069,1.364-0.206,2.027c-0.133,0.649-0.33,1.285-0.587,1.894
		c-0.252,0.597-0.564,1.174-0.929,1.711c-0.359,0.534-0.774,1.034-1.229,1.491c-0.456,0.454-0.958,0.868-1.491,1.23
		c-0.539,0.363-1.115,0.674-1.712,0.928c-0.609,0.257-1.245,0.453-1.893,0.586c-0.664,0.137-1.347,0.207-2.029,0.207
		c-0.683,0-1.366-0.069-2.029-0.207c-0.648-0.133-1.285-0.33-1.893-0.586c-0.597-0.254-1.174-0.566-1.712-0.928
		c-0.533-0.362-1.034-0.776-1.489-1.23c-0.456-0.457-0.87-0.957-1.23-1.491c-0.363-0.537-0.676-1.114-0.929-1.711
		c-0.258-0.609-0.455-1.245-0.589-1.894C5.994,17.364,5.925,16.682,5.925,16c0-0.683,0.069-1.366,0.204-2.029
		c0.133-0.649,0.33-1.286,0.588-1.893c0.253-0.599,0.566-1.175,0.929-1.712c0.36-0.534,0.774-1.034,1.23-1.491
		c0.455-0.455,0.957-0.867,1.489-1.228c0.539-0.365,1.115-0.677,1.712-0.931c0.608-0.258,1.245-0.455,1.893-0.587
		C14.634,5.993,15.317,5.925,16,5.925c0.682,0,1.365,0.069,2.029,0.205c0.647,0.132,1.284,0.329,1.893,0.587
		c0.597,0.253,1.173,0.566,1.712,0.931c0.533,0.361,1.035,0.774,1.491,1.228c0.455,0.457,0.87,0.957,1.229,1.491
		c0.365,0.537,0.677,1.114,0.929,1.712C25.54,12.686,25.737,13.323,25.869,13.972z M15.524,13.176
		c-1.489-2.646-3.08-4.805-3.195-4.958c-2.4,1.133-4.19,3.344-4.749,6.009C7.807,14.228,11.393,14.273,15.524,13.176z"/>
</g>
<g id="Style_3_copy_3" display="none">
</g>
<g id="Style_3_copy_4" display="none">
</g>
</svg>
