<?xml version="1.0" encoding="utf-8"?>
<!-- Generator: Adobe Illustrator 19.2.1, SVG Export Plug-In . SVG Version: 6.00 Build 0)  -->
<svg version="1.1" xmlns="http://www.w3.org/2000/svg" xmlns:xlink="http://www.w3.org/1999/xlink" x="0px" y="0px"
	 viewBox="0 0 32 32" enable-background="new 0 0 32 32" xml:space="preserve">
<g id="Layer_6" display="none">
	<rect x="-135.198" y="-40.333" display="inline" fill="#E2E2E2" width="415.531" height="194.734"/>
</g>
<g id="Style_1" display="none">
	<g display="inline">
		<path fill="#E02F2F" d="M16,0C7.163,0,0,7.163,0,16c0,8.836,7.163,16,16,16s16-7.164,16-16C32,7.163,24.837,0,16,0z"/>
		<path fill="none" stroke="#FF6666" stroke-width="0.5" stroke-miterlimit="10" d="M16,1.359C7.914,1.359,1.359,7.914,1.359,16
			c0,8.086,6.555,14.641,14.641,14.641S30.641,24.086,30.641,16C30.641,7.914,24.086,1.359,16,1.359z"/>
	</g>
	<g display="inline">
		<circle fill="#FFFFFF" cx="10.324" cy="16" r="4.415"/>
		<circle fill="#FFFFFF" cx="21.676" cy="16" r="4.415"/>
	</g>
</g>
<g id="Style_1_copy" display="none">
	<g display="inline">
		<path fill="#E02F2F" d="M16,0C7.163,0,0,7.163,0,16c0,8.836,7.163,16,16,16s16-7.164,16-16C32,7.163,24.837,0,16,0z"/>
		<path fill="none" stroke="#FF6666" stroke-width="0.5" stroke-miterlimit="10" d="M16,1.359C7.914,1.359,1.359,7.914,1.359,16
			c0,8.086,6.555,14.641,14.641,14.641S30.641,24.086,30.641,16C30.641,7.914,24.086,1.359,16,1.359z"/>
	</g>
	<g display="inline">
		<circle fill="#FFFFFF" cx="10.324" cy="16" r="4.415"/>
		<circle fill="#FFFFFF" cx="21.676" cy="16" r="4.415"/>
	</g>
</g>
<g id="Style_2" display="none">
	<g display="inline">
		<g>
			<path fill="#FFFFFF" d="M16,31.625c-8.615,0-15.625-7.01-15.625-15.625S7.385,0.375,16,0.375S31.625,7.385,31.625,16
				S24.615,31.625,16,31.625z"/>
			<path fill="#E5E5E5" d="M16,0.75c8.409,0,15.25,6.841,15.25,15.25S24.409,31.25,16,31.25S0.75,24.409,0.75,16S7.591,0.75,16,0.75
				 M16,0C7.163,0,0,7.163,0,16c0,8.836,7.163,16,16,16s16-7.164,16-16C32,7.163,24.837,0,16,0L16,0z"/>
		</g>
	</g>
	<g display="inline">
		<circle fill="#333333" cx="10.324" cy="16" r="4.415"/>
		<circle fill="#333333" cx="21.676" cy="16" r="4.415"/>
	</g>
</g>
<g id="Style_2_copy_3">
	<g>
		<g>
			<path fill="#333333" d="M16,0C7.163,0,0,7.163,0,16c0,8.836,7.163,16,16,16s16-7.164,16-16C32,7.163,24.837,0,16,0z"/>
		</g>
	</g>
	<g>
		<g>
			<path fill="#FFFFFF" d="M17.091,15.771c1.381-0.286,2.527-1.534,2.527-3.361c0-1.954-1.426-3.73-4.214-3.73H7.69v14.64h7.957
				c2.813,0,4.265-1.757,4.265-3.972C19.905,17.528,18.676,16.013,17.091,15.771z M10.809,11.423h3.908
				c1.057,0,1.712,0.637,1.712,1.534c0,0.942-0.662,1.534-1.712,1.534h-3.908V11.423z M14.851,20.577h-4.042v-3.335h4.042
				c1.209,0,1.865,0.745,1.865,1.668C16.722,19.959,16.016,20.577,14.851,20.577z M23.749,8.705c-0.942,0-1.738,0.789-1.738,1.731
				s0.662,1.579,1.496,1.579c0.178,0,0.35-0.019,0.42-0.064c-0.178,0.789-0.987,1.712-1.693,2.088l1.209,0.987
				c1.356-0.961,2.26-2.432,2.26-4.08C25.704,9.52,24.781,8.705,23.749,8.705z"/>
		</g>
	</g>
</g>
<g id="Style_2_copy" display="none">
	<g display="inline">
		<g>
			<path fill="#FFFFFF" d="M16,31.25C7.591,31.25,0.75,24.409,0.75,16S7.591,0.75,16,0.75S31.25,7.591,31.25,16
				S24.409,31.25,16,31.25z"/>
			<path fill="#FF0000" d="M16,1.5c7.995,0,14.5,6.505,14.5,14.5S23.995,30.5,16,30.5S1.5,23.995,1.5,16S8.005,1.5,16,1.5 M16,0
				C7.163,0,0,7.163,0,16c0,8.836,7.163,16,16,16s16-7.164,16-16C32,7.163,24.837,0,16,0L16,0z"/>
		</g>
	</g>
	<g display="inline">
		<circle cx="10.324" cy="16" r="4.415"/>
		<circle cx="21.676" cy="16" r="4.415"/>
	</g>
</g>
<g id="Style_2_copy_2" display="none">
	<path display="inline" fill="#FFFFFF" d="M16,31.25C7.591,31.25,0.75,24.409,0.75,16S7.591,0.75,16,0.75S31.25,7.591,31.25,16
		S24.409,31.25,16,31.25z"/>
	<path display="inline" fill="#8AD5DD" d="M16,1.5c7.995,0,14.5,6.505,14.5,14.5S23.995,30.5,16,30.5S1.5,23.995,1.5,16
		S8.005,1.5,16,1.5 M16,0C7.163,0,0,7.163,0,16c0,8.836,7.163,16,16,16s16-7.164,16-16C32,7.163,24.837,0,16,0L16,0z"/>
	<circle display="inline" fill="#333333" cx="10.324" cy="16" r="4.415"/>
	<circle display="inline" fill="#333333" cx="21.676" cy="16" r="4.415"/>
</g>
<g id="Style_3" display="none">
	<g display="inline">
		<g>
			<path fill="#FFFFFF" d="M16,31.625c-8.615,0-15.625-7.01-15.625-15.625S7.385,0.375,16,0.375S31.625,7.385,31.625,16
				S24.615,31.625,16,31.625z"/>
			<path fill="#E5E5E5" d="M16,0.75c8.409,0,15.25,6.841,15.25,15.25S24.409,31.25,16,31.25S0.75,24.409,0.75,16S7.591,0.75,16,0.75
				 M16,0C7.163,0,0,7.163,0,16c0,8.836,7.163,16,16,16s16-7.164,16-16C32,7.163,24.837,0,16,0L16,0z"/>
		</g>
	</g>
	<g display="inline">
		<circle fill="#FF3878" cx="10.324" cy="16" r="4.415"/>
		<circle fill="#FF3878" cx="21.676" cy="16" r="4.415"/>
	</g>
</g>
<g id="Style_3_copy_2" display="none">
	<g display="inline">
		<circle fill="#E04F5F" cx="7" cy="16" r="7"/>
		<circle fill="#E04F5F" cx="25" cy="16" r="7"/>
	</g>
</g>
<g id="Style_3_copy" display="none">
	<g display="inline">
		<g>
			<path fill="#FFFFFF" d="M16,31.625c-8.615,0-15.625-7.01-15.625-15.625S7.385,0.375,16,0.375S31.625,7.385,31.625,16
				S24.615,31.625,16,31.625z"/>
			<path fill="#E5E5E5" d="M16,0.75c8.409,0,15.25,6.841,15.25,15.25S24.409,31.25,16,31.25S0.75,24.409,0.75,16S7.591,0.75,16,0.75
				 M16,0C7.163,0,0,7.163,0,16c0,8.836,7.163,16,16,16s16-7.164,16-16C32,7.163,24.837,0,16,0L16,0z"/>
		</g>
	</g>
	<g display="inline">
		<circle fill="#0BA4E0" cx="10.324" cy="16" r="4.415"/>
		<circle fill="#0BA4E0" cx="21.676" cy="16" r="4.415"/>
	</g>
</g>
<g id="Style_3_copy_3" display="none">
</g>
<g id="Style_3_copy_4" display="none">
</g>
</svg>
