<?xml version="1.0" encoding="utf-8"?>
<!-- Generator: Adobe Illustrator 19.0.1, SVG Export Plug-In . SVG Version: 6.00 Build 0)  -->
<svg version="1.1" xmlns="http://www.w3.org/2000/svg" xmlns:xlink="http://www.w3.org/1999/xlink" x="0px" y="0px"
	 viewBox="0 0 32 32" enable-background="new 0 0 32 32" xml:space="preserve">
<g id="Layer_6" display="none">
</g>
<g id="Flat" display="none">
	<g display="inline">
		<path fill="#E02F2F" d="M15.979-0.005c-8.837,0-16,7.163-16,16c0,8.836,7.163,16,16,16s16-7.164,16-16
			C31.979,7.158,24.816-0.005,15.979-0.005z"/>
		<path fill="none" stroke="#FF6666" stroke-width="0.5" stroke-miterlimit="10" d="M15.979,1.353
			c-8.086,0-14.641,6.555-14.641,14.641c0,8.086,6.555,14.641,14.641,14.641s14.641-6.555,14.641-14.641
			C30.621,7.909,24.065,1.353,15.979,1.353z"/>
	</g>
	<g display="inline">
		<path fill="#FFFFFF" d="M16,20.863c-0.965,0-1.843-0.26-2.636-0.779c-0.792-0.52-1.386-1.188-1.782-2.004l-3.897-6.83
			C6.869,12.709,6.498,14.342,6.498,16c0,2.376,0.773,4.448,2.32,6.217s3.471,2.827,5.772,3.174l2.756-4.77
			C17.068,20.703,16.606,20.863,16,20.863z"/>
		<path fill="#FFFFFF" d="M13.012,12.158c0.878-0.68,1.874-0.909,2.988-0.909c0.148,0,8.166,0,8.166,0
			c-0.842-1.435-1.986-2.648-3.433-3.489C19.285,6.919,17.707,6.498,16,6.498c-1.485,0-2.871,0.315-4.157,0.947
			c-1.287,0.631-2.478,1.549-3.35,2.728l2.756,4.639C11.521,13.749,12.133,12.839,13.012,12.158z"/>
		<path fill="#FFFFFF" d="M24.788,12.437h-5.521c0.965,0.965,1.596,2.203,1.596,3.563c0,1.015-0.284,1.943-0.854,2.784l-3.897,6.718
			c2.598-0.025,4.813-0.965,6.644-2.821c1.83-1.856,2.746-4.083,2.746-6.681C25.502,14.788,25.298,13.513,24.788,12.437z"/>
		<circle fill="#FFFFFF" cx="16" cy="16" r="3.563"/>
	</g>
</g>
<g id="Flat_copy">
	<g>
		<g>
			<path fill="#FFFFFF" d="M15.979,31.62c-8.616,0-15.625-7.01-15.625-15.625S7.363,0.37,15.979,0.37
				c8.615,0,15.625,7.01,15.625,15.625S24.594,31.62,15.979,31.62z"/>
			<path fill="#E5E5E5" d="M15.979,0.745c8.409,0,15.25,6.841,15.25,15.25s-6.841,15.25-15.25,15.25s-15.25-6.841-15.25-15.25
				S7.57,0.745,15.979,0.745 M15.979-0.005c-8.837,0-16,7.163-16,16c0,8.836,7.163,16,16,16s16-7.164,16-16
				C31.979,7.158,24.816-0.005,15.979-0.005L15.979-0.005z"/>
		</g>
	</g>
	<g>
		<path fill="#333333" d="M16,20.863c-0.965,0-1.843-0.26-2.636-0.779c-0.792-0.52-1.386-1.188-1.782-2.004l-3.897-6.83
			C6.869,12.709,6.498,14.342,6.498,16c0,2.376,0.773,4.448,2.32,6.217s3.471,2.827,5.772,3.174l2.756-4.77
			C17.068,20.703,16.606,20.863,16,20.863z"/>
		<path fill="#333333" d="M13.012,12.158c0.878-0.68,1.874-0.909,2.988-0.909c0.148,0,8.166,0,8.166,0
			c-0.842-1.435-1.986-2.648-3.433-3.489C19.285,6.919,17.707,6.498,16,6.498c-1.485,0-2.871,0.315-4.157,0.947
			c-1.287,0.631-2.478,1.549-3.35,2.728l2.756,4.639C11.521,13.749,12.133,12.839,13.012,12.158z"/>
		<path fill="#333333" d="M24.788,12.437h-5.521c0.965,0.965,1.596,2.203,1.596,3.563c0,1.015-0.284,1.943-0.854,2.784l-3.897,6.718
			c2.598-0.025,4.813-0.965,6.644-2.821c1.83-1.856,2.746-4.083,2.746-6.681C25.502,14.788,25.298,13.513,24.788,12.437z"/>
		<circle fill="#333333" cx="16" cy="16" r="3.563"/>
	</g>
</g>
</svg>
