<?xml version="1.0" encoding="utf-8"?>
<!-- Generator: Adobe Illustrator 19.0.1, SVG Export Plug-In . SVG Version: 6.00 Build 0)  -->
<svg version="1.1" xmlns="http://www.w3.org/2000/svg" xmlns:xlink="http://www.w3.org/1999/xlink" x="0px" y="0px"
	 viewBox="0 0 32 32" enable-background="new 0 0 32 32" xml:space="preserve">
<g id="Layer_6" display="none">
	<rect x="-160.667" y="-1.333" display="inline" fill="#E2E2E2" width="200" height="194.734"/>
</g>
<g id="Flat" display="none">
	<g display="inline">
		<path fill="#333333" d="M16,0C7.163,0,0,7.163,0,16c0,8.836,7.163,16,16,16s16-7.164,16-16C32,7.163,24.837,0,16,0z"/>
		<path fill="none" stroke="#FF6666" stroke-width="0.5" stroke-miterlimit="10" d="M16,1.359C7.914,1.359,1.359,7.914,1.359,16
			c0,8.086,6.555,14.641,14.641,14.641S30.641,24.086,30.641,16C30.641,7.914,24.086,1.359,16,1.359z"/>
	</g>
	<path display="inline" fill="#FFFFFF" d="M20.244,22.441l1.796-1.077v0.98l-6.054,3.927l-5.92-3.955v-0.923l1.771,1.049
		l0.197,0.116l0.182-0.139l3.824-2.935l3.823,2.935l0.183,0.139L20.244,22.441z M16.053,11.367l5.822,3.345L16,18.604l-5.839-3.678
		L16.053,11.367z M26.163,11.562l-5.998-3.833l-4.124,3.458l-4.031-3.458L5.837,11.75l4.25,3.233l-4.25,3.233l4.229,2.505
		l1.944,1.15l4.031-3.093l4.03,3.093l1.97-1.182l4.123-2.473l-3.936-3.375L26.163,11.562z"/>
</g>
<g id="Flat_copy">
	<g>
		<path fill="#333333" d="M16,0C7.163,0,0,7.163,0,16c0,8.836,7.163,16,16,16s16-7.164,16-16C32,7.163,24.837,0,16,0z"/>
	</g>
	<path fill="#FFFFFF" d="M20.244,22.441l1.796-1.077v0.98l-6.054,3.927l-5.92-3.955v-0.923l1.771,1.049l0.197,0.116l0.182-0.139
		l3.824-2.935l3.823,2.935l0.183,0.139L20.244,22.441z M16.053,11.367l5.822,3.345L16,18.604l-5.839-3.678L16.053,11.367z
		 M26.163,11.562l-5.998-3.833l-4.124,3.458l-4.031-3.458L5.837,11.75l4.25,3.233l-4.25,3.233l4.229,2.505l1.944,1.15l4.031-3.093
		l4.03,3.093l1.97-1.182l4.123-2.473l-3.936-3.375L26.163,11.562z"/>
</g>
</svg>
