<?xml version="1.0" encoding="utf-8"?>
<!-- Generator: Adobe Illustrator 19.2.1, SVG Export Plug-In . SVG Version: 6.00 Build 0)  -->
<svg version="1.1" xmlns="http://www.w3.org/2000/svg" xmlns:xlink="http://www.w3.org/1999/xlink" x="0px" y="0px"
	 viewBox="0 0 32 32" enable-background="new 0 0 32 32" xml:space="preserve">
<g id="Layer_6" display="none">
	<rect x="-96.198" y="-1.333" display="inline" fill="#E2E2E2" width="415.531" height="194.734"/>
</g>
<g id="Style_1" display="none">
	<g display="inline">
		<path fill="#E02F2F" d="M16,0C7.163,0,0,7.163,0,16c0,8.836,7.163,16,16,16s16-7.164,16-16C32,7.163,24.837,0,16,0z"/>
		<path fill="none" stroke="#FF6666" stroke-width="0.5" stroke-miterlimit="10" d="M16,1.359C7.914,1.359,1.359,7.914,1.359,16
			c0,8.086,6.555,14.641,14.641,14.641S30.641,24.086,30.641,16C30.641,7.914,24.086,1.359,16,1.359z"/>
	</g>
	<path display="inline" fill="#FFFFFF" d="M16.735,22.517c-2.644,0.14-3.881-0.456-5.015-1.541
		c-1.266-1.212-0.758-2.594,0.274-2.663c1.031-0.07,1.65,1.191,2.2,1.543c0.55,0.35,2.64,1.147,3.745-0.142
		c1.202-1.401-0.8-2.126-2.268-2.346c-2.095-0.316-4.741-1.472-4.535-3.75c0.206-2.276,1.896-3.443,3.675-3.608
		c2.268-0.21,3.744,0.35,4.912,1.367c1.35,1.174,0.619,2.486-0.24,2.592c-0.857,0.105-1.819-1.931-3.709-1.962
		c-1.948-0.031-3.264,2.067-0.86,2.663c2.406,0.596,4.982,0.84,5.909,3.082C21.751,19.995,19.381,22.376,16.735,22.517z
		 M24.191,17.183c0.05-0.373,0.078-0.753,0.078-1.138c0-4.633-3.722-8.39-8.312-8.39c-0.456,0-0.904,0.038-1.339,0.111
		c-0.781-0.516-1.71-0.817-2.709-0.817c-2.741,0-4.96,2.253-4.96,5.033c0,1.012,0.293,1.951,0.799,2.74
		c-0.068,0.431-0.103,0.873-0.103,1.322c0,4.634,3.72,8.39,8.312,8.39c0.518,0,1.023-0.051,1.514-0.141
		c0.762,0.479,1.66,0.759,2.622,0.759c2.74,0,4.96-2.253,4.96-5.033C25.052,18.967,24.735,17.99,24.191,17.183z"/>
</g>
<g id="Style_1_copy" display="none">
	<polygon display="inline" fill="#E02F2F" points="25.807,6.879 12.932,0 0.057,6.879 0.057,25.121 12.932,32 25.807,25.121 	"/>
	<path display="inline" fill="#FFFFFF" d="M16.735,22.517c-2.644,0.14-3.881-0.456-5.015-1.541
		c-1.266-1.212-0.758-2.594,0.274-2.663c1.031-0.07,1.65,1.191,2.2,1.543c0.55,0.35,2.64,1.147,3.745-0.142
		c1.202-1.401-0.8-2.126-2.268-2.346c-2.095-0.316-4.741-1.472-4.535-3.75c0.206-2.276,1.896-3.443,3.675-3.608
		c2.268-0.21,3.744,0.35,4.912,1.367c1.35,1.174,0.619,2.486-0.24,2.592c-0.857,0.105-1.819-1.931-3.709-1.962
		c-1.948-0.031-3.264,2.067-0.86,2.663c2.406,0.596,4.982,0.84,5.909,3.082C21.751,19.995,19.381,22.376,16.735,22.517z
		 M24.191,17.183c0.05-0.373,0.078-0.753,0.078-1.138c0-4.633-3.722-8.39-8.312-8.39c-0.456,0-0.904,0.038-1.339,0.111
		c-0.781-0.516-1.71-0.817-2.709-0.817c-2.741,0-4.96,2.253-4.96,5.033c0,1.012,0.293,1.951,0.799,2.74
		c-0.068,0.431-0.103,0.873-0.103,1.322c0,4.634,3.72,8.39,8.312,8.39c0.518,0,1.023-0.051,1.514-0.141
		c0.762,0.479,1.66,0.759,2.622,0.759c2.74,0,4.96-2.253,4.96-5.033C25.052,18.967,24.735,17.99,24.191,17.183z"/>
</g>
<g id="Style_2" display="none">
	<g display="inline">
		<g>
			<path fill="#FFFFFF" d="M16,31.625c-8.615,0-15.625-7.01-15.625-15.625C0.375,7.384,7.385,0.375,16,0.375S31.625,7.384,31.625,16
				C31.625,24.615,24.615,31.625,16,31.625z"/>
			<path fill="#E5E5E5" d="M16,0.75c8.409,0,15.25,6.841,15.25,15.25S24.409,31.25,16,31.25S0.75,24.409,0.75,16S7.591,0.75,16,0.75
				 M16,0C7.163,0,0,7.163,0,16c0,8.836,7.163,16,16,16s16-7.164,16-16C32,7.163,24.837,0,16,0L16,0z"/>
		</g>
	</g>
	<path display="inline" fill="#333333" d="M16.735,22.517c-2.644,0.14-3.881-0.456-5.015-1.541
		c-1.266-1.212-0.758-2.594,0.274-2.663c1.031-0.07,1.65,1.191,2.2,1.543c0.55,0.35,2.64,1.147,3.745-0.142
		c1.202-1.401-0.8-2.126-2.268-2.346c-2.095-0.316-4.741-1.472-4.535-3.75c0.206-2.276,1.896-3.443,3.675-3.608
		c2.268-0.21,3.744,0.35,4.912,1.367c1.35,1.174,0.619,2.486-0.24,2.592c-0.857,0.105-1.819-1.931-3.709-1.962
		c-1.948-0.031-3.264,2.067-0.86,2.663c2.406,0.596,4.982,0.84,5.909,3.082C21.751,19.995,19.381,22.376,16.735,22.517z
		 M24.191,17.183c0.05-0.373,0.078-0.753,0.078-1.138c0-4.633-3.722-8.39-8.312-8.39c-0.456,0-0.904,0.038-1.339,0.111
		c-0.781-0.516-1.71-0.817-2.709-0.817c-2.741,0-4.96,2.253-4.96,5.033c0,1.012,0.293,1.951,0.799,2.74
		c-0.068,0.431-0.103,0.873-0.103,1.322c0,4.634,3.72,8.39,8.312,8.39c0.518,0,1.023-0.051,1.514-0.141
		c0.762,0.479,1.66,0.759,2.622,0.759c2.74,0,4.96-2.253,4.96-5.033C25.052,18.967,24.735,17.99,24.191,17.183z"/>
</g>
<g id="Style_2_copy_3">
	<g>
		<g>
			<g>
				<path fill="#FFFFFF" d="M16,31.625c-8.615,0-15.625-7.01-15.625-15.625C0.375,7.384,7.385,0.375,16,0.375
					S31.625,7.384,31.625,16C31.625,24.615,24.615,31.625,16,31.625z"/>
				<path fill="#E5E5E5" d="M16,0.75c8.409,0,15.25,6.841,15.25,15.25S24.409,31.25,16,31.25S0.75,24.409,0.75,16
					S7.591,0.75,16,0.75 M16,0C7.163,0,0,7.163,0,16c0,8.836,7.163,16,16,16s16-7.164,16-16C32,7.163,24.837,0,16,0L16,0z"/>
			</g>
		</g>
		<g>
			<g>
				<g>
					<path fill="#333333" d="M12.202,23.565c-4.247,0-7.702-3.393-7.702-7.564c0-4.171,3.455-7.565,7.702-7.565
						c1.857,0,3.652,0.659,5.052,1.855l-1.959,2.211c-0.857-0.732-1.956-1.136-3.094-1.136c-2.602,0-4.719,2.079-4.719,4.634
						c0,2.555,2.117,4.634,4.719,4.634c2.201,0,3.642-1.055,4.11-2.947h-4.074v-2.93h7.223v1.465
						C19.461,20.613,16.544,23.565,12.202,23.565z"/>
				</g>
				<polygon fill="#333333" points="27.501,14.758 25.267,14.758 25.267,12.525 23.481,12.525 23.481,14.758 21.248,14.758 
					21.248,16.544 23.481,16.544 23.481,18.777 25.267,18.777 25.267,16.544 27.501,16.544 				"/>
			</g>
		</g>
	</g>
</g>
<g id="Style_2_copy" display="none">
	<g display="inline">
		<g>
			<path fill="#FFFFFF" d="M16,31.25C7.591,31.25,0.75,24.409,0.75,16C0.75,7.591,7.591,0.75,16,0.75S31.25,7.591,31.25,16
				C31.25,24.409,24.409,31.25,16,31.25z"/>
			<path fill="#FF0000" d="M16,1.5c7.995,0,14.5,6.505,14.5,14.5S23.995,30.5,16,30.5S1.5,23.995,1.5,16S8.005,1.5,16,1.5 M16,0
				C7.163,0,0,7.163,0,16c0,8.836,7.163,16,16,16s16-7.164,16-16C32,7.163,24.837,0,16,0L16,0z"/>
		</g>
	</g>
	<path display="inline" d="M16.735,22.517c-2.644,0.14-3.881-0.456-5.015-1.541c-1.266-1.212-0.758-2.594,0.274-2.663
		c1.031-0.07,1.65,1.191,2.2,1.543c0.55,0.35,2.64,1.147,3.745-0.142c1.202-1.401-0.8-2.126-2.268-2.346
		c-2.095-0.316-4.741-1.472-4.535-3.75c0.206-2.276,1.896-3.443,3.675-3.608c2.268-0.21,3.744,0.35,4.912,1.367
		c1.35,1.174,0.619,2.486-0.24,2.592c-0.857,0.105-1.819-1.931-3.709-1.962c-1.948-0.031-3.264,2.067-0.86,2.663
		c2.406,0.596,4.982,0.84,5.909,3.082C21.751,19.995,19.381,22.376,16.735,22.517z M24.191,17.183
		c0.05-0.373,0.078-0.753,0.078-1.138c0-4.633-3.722-8.39-8.312-8.39c-0.456,0-0.904,0.038-1.339,0.111
		c-0.781-0.516-1.71-0.817-2.709-0.817c-2.741,0-4.96,2.253-4.96,5.033c0,1.012,0.293,1.951,0.799,2.74
		c-0.068,0.431-0.103,0.873-0.103,1.322c0,4.634,3.72,8.39,8.312,8.39c0.518,0,1.023-0.051,1.514-0.141
		c0.762,0.479,1.66,0.759,2.622,0.759c2.74,0,4.96-2.253,4.96-5.033C25.052,18.967,24.735,17.99,24.191,17.183z"/>
</g>
<g id="Style_2_copy_2" display="none">
	<path display="inline" fill="#FFFFFF" d="M16,31.25C7.591,31.25,0.75,24.409,0.75,16C0.75,7.591,7.591,0.75,16,0.75
		S31.25,7.591,31.25,16C31.25,24.409,24.409,31.25,16,31.25z"/>
	<path display="inline" fill="#8AD5DD" d="M16,1.5c7.995,0,14.5,6.505,14.5,14.5S23.995,30.5,16,30.5S1.5,23.995,1.5,16
		S8.005,1.5,16,1.5 M16,0C7.163,0,0,7.163,0,16c0,8.836,7.163,16,16,16s16-7.164,16-16C32,7.163,24.837,0,16,0L16,0z"/>
	<path display="inline" fill="#333333" d="M16.735,22.517c-2.644,0.14-3.881-0.456-5.015-1.541
		c-1.266-1.212-0.758-2.594,0.274-2.663c1.031-0.07,1.65,1.191,2.2,1.543c0.55,0.35,2.64,1.147,3.745-0.142
		c1.202-1.401-0.8-2.126-2.268-2.346c-2.095-0.316-4.741-1.472-4.535-3.75c0.206-2.276,1.896-3.443,3.675-3.608
		c2.268-0.21,3.744,0.35,4.912,1.367c1.35,1.174,0.619,2.486-0.24,2.592c-0.857,0.105-1.819-1.931-3.709-1.962
		c-1.948-0.031-3.264,2.067-0.86,2.663c2.406,0.596,4.982,0.84,5.909,3.082C21.751,19.995,19.381,22.376,16.735,22.517z
		 M24.191,17.183c0.05-0.373,0.078-0.753,0.078-1.138c0-4.633-3.722-8.39-8.312-8.39c-0.456,0-0.904,0.038-1.339,0.111
		c-0.781-0.516-1.71-0.817-2.709-0.817c-2.741,0-4.96,2.253-4.96,5.033c0,1.012,0.293,1.951,0.799,2.74
		c-0.068,0.431-0.103,0.873-0.103,1.322c0,4.634,3.72,8.39,8.312,8.39c0.518,0,1.023-0.051,1.514-0.141
		c0.762,0.479,1.66,0.759,2.622,0.759c2.74,0,4.96-2.253,4.96-5.033C25.052,18.967,24.735,17.99,24.191,17.183z"/>
</g>
<g id="Style_3" display="none">
	<g display="inline">
		<g>
			<path fill="#FFFFFF" d="M16,31.625c-8.615,0-15.625-7.01-15.625-15.625C0.375,7.384,7.385,0.375,16,0.375S31.625,7.384,31.625,16
				C31.625,24.615,24.615,31.625,16,31.625z"/>
			<path fill="#E5E5E5" d="M16,0.75c8.409,0,15.25,6.841,15.25,15.25S24.409,31.25,16,31.25S0.75,24.409,0.75,16S7.591,0.75,16,0.75
				 M16,0C7.163,0,0,7.163,0,16c0,8.836,7.163,16,16,16s16-7.164,16-16C32,7.163,24.837,0,16,0L16,0z"/>
		</g>
	</g>
	<path display="inline" fill="#FF3878" d="M16.735,22.517c-2.644,0.14-3.881-0.456-5.015-1.541
		c-1.266-1.212-0.758-2.594,0.274-2.663c1.031-0.07,1.65,1.191,2.2,1.543c0.55,0.35,2.64,1.147,3.745-0.142
		c1.202-1.401-0.8-2.126-2.268-2.346c-2.095-0.316-4.741-1.472-4.535-3.75c0.206-2.276,1.896-3.443,3.675-3.608
		c2.268-0.21,3.744,0.35,4.912,1.367c1.35,1.174,0.619,2.486-0.24,2.592c-0.857,0.105-1.819-1.931-3.709-1.962
		c-1.948-0.031-3.264,2.067-0.86,2.663c2.406,0.596,4.982,0.84,5.909,3.082C21.751,19.995,19.381,22.376,16.735,22.517z
		 M24.191,17.183c0.05-0.373,0.078-0.753,0.078-1.138c0-4.633-3.722-8.39-8.312-8.39c-0.456,0-0.904,0.038-1.339,0.111
		c-0.781-0.516-1.71-0.817-2.709-0.817c-2.741,0-4.96,2.253-4.96,5.033c0,1.012,0.293,1.951,0.799,2.74
		c-0.068,0.431-0.103,0.873-0.103,1.322c0,4.634,3.72,8.39,8.312,8.39c0.518,0,1.023-0.051,1.514-0.141
		c0.762,0.479,1.66,0.759,2.622,0.759c2.74,0,4.96-2.253,4.96-5.033C25.052,18.967,24.735,17.99,24.191,17.183z"/>
</g>
<g id="Style_3_copy_2" display="none">
	<path display="inline" fill="#25B6D2" d="M17.299,27.52c-4.674,0.248-6.861-0.807-8.865-2.724
		c-2.238-2.142-1.339-4.585,0.484-4.708c1.822-0.124,2.916,2.105,3.888,2.727c0.972,0.619,4.666,2.027,6.619-0.25
		c2.125-2.477-1.414-3.758-4.009-4.146c-3.703-0.559-8.38-2.602-8.016-6.629c0.364-4.023,3.352-6.087,6.497-6.378
		c4.009-0.371,6.618,0.619,8.683,2.416c2.386,2.075,1.095,4.395-0.425,4.582c-1.515,0.185-3.216-3.413-6.556-3.468
		c-3.443-0.055-5.77,3.654-1.52,4.707c4.252,1.053,8.806,1.486,10.446,5.449C26.166,23.061,21.976,27.271,17.299,27.52z
		 M30.479,18.091c0.088-0.659,0.139-1.33,0.139-2.012c0-8.19-6.578-14.831-14.693-14.831c-0.807,0-1.597,0.068-2.367,0.196
		C12.177,0.531,10.535,0,8.768,0C3.923,0,0,3.983,0,8.897c0,1.788,0.519,3.449,1.412,4.844c-0.12,0.762-0.182,1.543-0.182,2.337
		c0,8.191,6.576,14.831,14.692,14.831c0.916,0,1.808-0.09,2.675-0.249C19.944,31.506,21.531,32,23.232,32
		C28.076,32,32,28.017,32,23.103C32,21.245,31.44,19.518,30.479,18.091z"/>
</g>
<g id="Style_3_copy" display="none">
	<g display="inline">
		<g>
			<path fill="#FFFFFF" d="M16,31.625c-8.615,0-15.625-7.01-15.625-15.625C0.375,7.384,7.385,0.375,16,0.375S31.625,7.384,31.625,16
				C31.625,24.615,24.615,31.625,16,31.625z"/>
			<path fill="#E5E5E5" d="M16,0.75c8.409,0,15.25,6.841,15.25,15.25S24.409,31.25,16,31.25S0.75,24.409,0.75,16S7.591,0.75,16,0.75
				 M16,0C7.163,0,0,7.163,0,16c0,8.836,7.163,16,16,16s16-7.164,16-16C32,7.163,24.837,0,16,0L16,0z"/>
		</g>
	</g>
	<path display="inline" fill="#0BA4E0" d="M16.735,22.517c-2.644,0.14-3.881-0.456-5.015-1.541
		c-1.266-1.212-0.758-2.594,0.274-2.663c1.031-0.07,1.65,1.191,2.2,1.543c0.55,0.35,2.64,1.147,3.745-0.142
		c1.202-1.401-0.8-2.126-2.268-2.346c-2.095-0.316-4.741-1.472-4.535-3.75c0.206-2.276,1.896-3.443,3.675-3.608
		c2.268-0.21,3.744,0.35,4.912,1.367c1.35,1.174,0.619,2.486-0.24,2.592c-0.857,0.105-1.819-1.931-3.709-1.962
		c-1.948-0.031-3.264,2.067-0.86,2.663c2.406,0.596,4.982,0.84,5.909,3.082C21.751,19.995,19.381,22.376,16.735,22.517z
		 M24.191,17.183c0.05-0.373,0.078-0.753,0.078-1.138c0-4.633-3.722-8.39-8.312-8.39c-0.456,0-0.904,0.038-1.339,0.111
		c-0.781-0.516-1.71-0.817-2.709-0.817c-2.741,0-4.96,2.253-4.96,5.033c0,1.012,0.293,1.951,0.799,2.74
		c-0.068,0.431-0.103,0.873-0.103,1.322c0,4.634,3.72,8.39,8.312,8.39c0.518,0,1.023-0.051,1.514-0.141
		c0.762,0.479,1.66,0.759,2.622,0.759c2.74,0,4.96-2.253,4.96-5.033C25.052,18.967,24.735,17.99,24.191,17.183z"/>
</g>
<g id="Style_3_copy_3" display="none">
</g>
<g id="Style_3_copy_4" display="none">
</g>
</svg>
