<?xml version="1.0" encoding="utf-8"?>
<!-- Generator: Adobe Illustrator 19.0.1, SVG Export Plug-In . SVG Version: 6.00 Build 0)  -->
<svg version="1.1" xmlns="http://www.w3.org/2000/svg" xmlns:xlink="http://www.w3.org/1999/xlink" x="0px" y="0px"
	 viewBox="0 0 32 32" enable-background="new 0 0 32 32" xml:space="preserve">
<g id="Layer_6" display="none">
</g>
<g id="Flat" display="none">
	<g display="inline">
		<path fill="#E02F2F" d="M15.995,0.005c-8.837,0-16,7.163-16,16c0,8.836,7.163,16,16,16s16-7.164,16-16
			C31.995,7.169,24.831,0.005,15.995,0.005z"/>
		<path fill="none" stroke="#FF6666" stroke-width="0.5" stroke-miterlimit="10" d="M15.995,1.364
			c-8.086,0-14.641,6.555-14.641,14.641c0,8.086,6.555,14.641,14.641,14.641s14.641-6.555,14.641-14.641
			C30.636,7.919,24.081,1.364,15.995,1.364z"/>
	</g>
	<g display="inline">
		<path fill="#FFFFFF" d="M13.45,17.359v0.036c0,0.59,0.135,1.157,0.407,1.697c0.32,0.566,0.758,1.014,1.312,1.346
			c0.554,0.331,1.17,0.498,1.848,0.498c0.677,0,1.294-0.166,1.849-0.498c0.554-0.332,0.991-0.781,1.311-1.346h4.399
			c-0.568,1.599-1.553,2.908-2.957,3.927c-1.405,1.02-2.982,1.531-4.731,1.531c-1.306,0-2.538-0.282-3.696-0.849
			c-2.587,1.255-4.447,1.316-5.581,0.185c-0.395-0.368-0.591-0.983-0.591-1.844c0-0.86,0.166-1.819,0.499-2.877
			c0.332-1.057,0.887-2.219,1.663-3.486c0.776-1.266,1.694-2.416,2.753-3.448c0.616-0.64,1.01-1.033,1.182-1.18
			c-1.528,0.737-2.908,1.881-4.139,3.429c0.443-1.795,1.398-3.27,2.864-4.426c1.466-1.156,3.148-1.734,5.045-1.734
			c0.197,0,0.394,0.012,0.591,0.037c1.38-0.615,2.636-0.959,3.77-1.033c1.133-0.074,1.933,0.111,2.402,0.553
			c0.936,0.959,1.023,2.459,0.259,4.5c0.714,1.256,1.072,2.609,1.072,4.059c0,0.344-0.012,0.651-0.037,0.923h-4.362L13.45,17.359
			L13.45,17.359z M12.674,23.408c-1.65-1.008-2.809-2.421-3.475-4.242c-1.109,2.164-1.256,3.652-0.444,4.463
			C9.471,24.343,10.776,24.268,12.674,23.408z M20.287,15.22c-0.049-0.886-0.407-1.641-1.071-2.269
			c-0.665-0.627-1.448-0.941-2.347-0.941c-0.9,0-1.682,0.314-2.347,0.941c-0.666,0.627-1.023,1.383-1.073,2.269H20.287z
			 M19.881,8.913c1.576,0.639,2.833,1.672,3.769,3.098c0.567-1.525,0.542-2.594-0.074-3.209C22.911,8.114,21.679,8.151,19.881,8.913
			z"/>
	</g>
</g>
<g id="Flat_copy">
	<g>
		<g>
			<path fill="#FFFFFF" d="M15.995,31.63c-8.616,0-15.625-7.01-15.625-15.625S7.379,0.38,15.995,0.38
				c8.615,0,15.625,7.01,15.625,15.625S24.61,31.63,15.995,31.63z"/>
			<path fill="#E5E5E5" d="M15.995,0.755c8.409,0,15.25,6.841,15.25,15.25s-6.841,15.25-15.25,15.25s-15.25-6.841-15.25-15.25
				S7.586,0.755,15.995,0.755 M15.995,0.005c-8.837,0-16,7.163-16,16c0,8.836,7.163,16,16,16s16-7.164,16-16
				C31.995,7.169,24.831,0.005,15.995,0.005L15.995,0.005z"/>
		</g>
	</g>
	<g>
		<path fill="#333333" d="M13.45,17.359v0.036c0,0.59,0.135,1.157,0.407,1.697c0.32,0.566,0.758,1.014,1.312,1.346
			c0.554,0.331,1.17,0.498,1.848,0.498c0.677,0,1.294-0.166,1.849-0.498c0.554-0.332,0.991-0.781,1.311-1.346h4.399
			c-0.568,1.599-1.553,2.908-2.957,3.927c-1.405,1.02-2.982,1.531-4.731,1.531c-1.306,0-2.538-0.282-3.696-0.849
			c-2.587,1.255-4.447,1.316-5.581,0.185c-0.395-0.368-0.591-0.983-0.591-1.844c0-0.86,0.166-1.819,0.499-2.877
			c0.332-1.057,0.887-2.219,1.663-3.486c0.776-1.266,1.694-2.416,2.753-3.448c0.616-0.64,1.01-1.033,1.182-1.18
			c-1.528,0.737-2.908,1.881-4.139,3.429c0.443-1.795,1.398-3.27,2.864-4.426c1.466-1.156,3.148-1.734,5.045-1.734
			c0.197,0,0.394,0.012,0.591,0.037c1.38-0.615,2.636-0.959,3.77-1.033c1.133-0.074,1.933,0.111,2.402,0.553
			c0.936,0.959,1.023,2.459,0.259,4.5c0.714,1.256,1.072,2.609,1.072,4.059c0,0.344-0.012,0.651-0.037,0.923h-4.362L13.45,17.359
			L13.45,17.359z M12.674,23.408c-1.65-1.008-2.809-2.421-3.475-4.242c-1.109,2.164-1.256,3.652-0.444,4.463
			C9.471,24.343,10.776,24.268,12.674,23.408z M20.287,15.22c-0.049-0.886-0.407-1.641-1.071-2.269
			c-0.665-0.627-1.448-0.941-2.347-0.941c-0.9,0-1.682,0.314-2.347,0.941c-0.666,0.627-1.023,1.383-1.073,2.269H20.287z
			 M19.881,8.913c1.576,0.639,2.833,1.672,3.769,3.098c0.567-1.525,0.542-2.594-0.074-3.209C22.911,8.114,21.679,8.151,19.881,8.913
			z"/>
	</g>
</g>
</svg>
