<?xml version="1.0" encoding="utf-8"?>
<!-- Generator: Adobe Illustrator 19.2.1, SVG Export Plug-In . SVG Version: 6.00 Build 0)  -->
<svg version="1.1" xmlns="http://www.w3.org/2000/svg" xmlns:xlink="http://www.w3.org/1999/xlink" x="0px" y="0px"
	 viewBox="0 0 32 32" enable-background="new 0 0 32 32" xml:space="preserve">
<g id="Layer_6" display="none">
	<rect x="-18.198" y="-40.333" display="inline" fill="#E2E2E2" width="415.531" height="194.734"/>
</g>
<g id="Style_1" display="none">
	<g display="inline">
		<path fill="#E02F2F" d="M16,0C7.163,0,0,7.163,0,16c0,8.836,7.163,16,16,16s16-7.164,16-16C32,7.163,24.837,0,16,0z"/>
		<path fill="none" stroke="#FF6666" stroke-width="0.5" stroke-miterlimit="10" d="M16,1.359C7.914,1.359,1.359,7.914,1.359,16
			c0,8.086,6.555,14.641,14.641,14.641S30.641,24.086,30.641,16C30.641,7.914,24.086,1.359,16,1.359z"/>
	</g>
	<path display="inline" fill="#FFFFFF" d="M18.226,8.886c-1.59,0.579-2.595,2.071-2.481,3.704l0.038,0.63l-0.636-0.077
		c-2.315-0.296-4.338-1.299-6.056-2.984l-0.84-0.836L8.036,9.94c-0.458,1.376-0.165,2.83,0.789,3.808
		c0.509,0.54,0.394,0.617-0.483,0.296c-0.305-0.103-0.573-0.18-0.598-0.141c-0.089,0.09,0.216,1.26,0.458,1.724
		c0.331,0.644,1.005,1.273,1.743,1.647l0.624,0.296L9.83,17.581c-0.712,0-0.738,0.013-0.661,0.284
		c0.254,0.836,1.259,1.724,2.379,2.11l0.789,0.27l-0.687,0.412c-1.018,0.593-2.214,0.927-3.41,0.951
		c-0.573,0.013-1.044,0.064-1.044,0.103c0,0.128,1.553,0.848,2.455,1.132c2.71,0.836,5.929,0.475,8.346-0.952
		c1.718-1.016,3.435-3.036,4.237-4.992c0.433-1.041,0.865-2.945,0.865-3.858c0-0.592,0.038-0.669,0.75-1.376
		c0.42-0.412,0.814-0.862,0.891-0.99c0.128-0.245,0.114-0.245-0.534-0.026c-1.081,0.386-1.234,0.335-0.699-0.244
		c0.394-0.412,0.865-1.158,0.865-1.376c0-0.038-0.191,0.026-0.407,0.141c-0.229,0.129-0.738,0.322-1.12,0.437l-0.687,0.219
		L21.535,9.4c-0.344-0.231-0.826-0.489-1.081-0.566C19.804,8.654,18.812,8.68,18.226,8.886z"/>
</g>
<g id="Style_1_copy" display="none">
	<polygon display="inline" fill="#FF0000" points="13.25,-8.35 0.375,-1.597 -12.5,-8.35 -12.5,-5.52 0.375,1.359 13.25,-5.52 	"/>
	<g display="inline">
		<path fill="#E02F2F" d="M16,0C7.163,0,0,7.163,0,16c0,8.836,7.163,16,16,16s16-7.164,16-16C32,7.163,24.837,0,16,0z"/>
		<path fill="none" stroke="#FF6666" stroke-width="0.5" stroke-miterlimit="10" d="M16,1.359C7.914,1.359,1.359,7.914,1.359,16
			c0,8.086,6.555,14.641,14.641,14.641S30.641,24.086,30.641,16C30.641,7.914,24.086,1.359,16,1.359z"/>
	</g>
	<path display="inline" fill="#FFFFFF" d="M18.226,8.886c-1.59,0.579-2.595,2.071-2.481,3.704l0.038,0.63l-0.636-0.077
		c-2.315-0.296-4.338-1.299-6.056-2.984l-0.84-0.836L8.036,9.94c-0.458,1.376-0.165,2.83,0.789,3.808
		c0.509,0.54,0.394,0.617-0.483,0.296c-0.305-0.103-0.573-0.18-0.598-0.141c-0.089,0.09,0.216,1.26,0.458,1.724
		c0.331,0.644,1.005,1.273,1.743,1.647l0.624,0.296L9.83,17.581c-0.712,0-0.738,0.013-0.661,0.284
		c0.254,0.836,1.259,1.724,2.379,2.11l0.789,0.27l-0.687,0.412c-1.018,0.593-2.214,0.927-3.41,0.951
		c-0.573,0.013-1.044,0.064-1.044,0.103c0,0.128,1.553,0.848,2.455,1.132c2.71,0.836,5.929,0.475,8.346-0.952
		c1.718-1.016,3.435-3.036,4.237-4.992c0.433-1.041,0.865-2.945,0.865-3.858c0-0.592,0.038-0.669,0.75-1.376
		c0.42-0.412,0.814-0.862,0.891-0.99c0.128-0.245,0.114-0.245-0.534-0.026c-1.081,0.386-1.234,0.335-0.699-0.244
		c0.394-0.412,0.865-1.158,0.865-1.376c0-0.038-0.191,0.026-0.407,0.141c-0.229,0.129-0.738,0.322-1.12,0.437l-0.687,0.219
		L21.535,9.4c-0.344-0.231-0.826-0.489-1.081-0.566C19.804,8.654,18.812,8.68,18.226,8.886z"/>
</g>
<g id="Style_2" display="none">
	<g display="inline">
		<g>
			<path fill="#FFFFFF" d="M16,31.625c-8.616,0-15.625-7.01-15.625-15.625S7.384,0.375,16,0.375c8.615,0,15.625,7.01,15.625,15.625
				S24.615,31.625,16,31.625z"/>
			<path fill="#E5E5E5" d="M16,0.75c8.409,0,15.25,6.841,15.25,15.25S24.409,31.25,16,31.25S0.75,24.409,0.75,16S7.591,0.75,16,0.75
				 M16,0C7.163,0,0,7.163,0,16c0,8.836,7.163,16,16,16s16-7.164,16-16C32,7.163,24.837,0,16,0L16,0z"/>
		</g>
	</g>
	<path display="inline" fill="#333333" d="M18.226,8.886c-1.59,0.579-2.595,2.071-2.481,3.704l0.038,0.63l-0.636-0.077
		c-2.315-0.296-4.338-1.299-6.056-2.984l-0.84-0.836L8.036,9.94c-0.458,1.376-0.165,2.83,0.789,3.808
		c0.509,0.54,0.394,0.617-0.483,0.296c-0.305-0.103-0.573-0.18-0.598-0.141c-0.089,0.09,0.216,1.26,0.458,1.724
		c0.331,0.644,1.005,1.273,1.743,1.647l0.624,0.296L9.83,17.581c-0.712,0-0.738,0.013-0.661,0.284
		c0.254,0.836,1.259,1.724,2.379,2.11l0.789,0.27l-0.687,0.412c-1.018,0.593-2.214,0.927-3.41,0.951
		c-0.573,0.013-1.044,0.064-1.044,0.103c0,0.128,1.553,0.848,2.455,1.132c2.71,0.836,5.929,0.475,8.346-0.952
		c1.718-1.016,3.435-3.036,4.237-4.992c0.433-1.041,0.865-2.945,0.865-3.858c0-0.592,0.038-0.669,0.75-1.376
		c0.42-0.412,0.814-0.862,0.891-0.99c0.128-0.245,0.114-0.245-0.534-0.026c-1.081,0.386-1.234,0.335-0.699-0.244
		c0.394-0.412,0.865-1.158,0.865-1.376c0-0.038-0.191,0.026-0.407,0.141c-0.229,0.129-0.738,0.322-1.12,0.437l-0.687,0.219
		L21.535,9.4c-0.344-0.231-0.826-0.489-1.081-0.566C19.804,8.654,18.812,8.68,18.226,8.886z"/>
</g>
<g id="Style_2_copy_3">
	<g>
		<g>
			<path fill="#333333" d="M16,0C7.163,0,0,7.163,0,16c0,8.836,7.163,16,16,16s16-7.164,16-16C32,7.163,24.837,0,16,0z"/>
		</g>
	</g>
	<path fill="#FFFFFF" d="M16,5.534c-3.73,0-6.754,3.024-6.754,6.754c0,0.625,0.085,1.231,0.244,1.806
		c0.064,0.23,0.139,0.456,0.226,0.675l0.205,0.465L16,26.466l6.087-11.249l0.185-0.419c0.092-0.229,0.171-0.464,0.238-0.705
		c0.159-0.575,0.244-1.18,0.244-1.806C22.754,8.558,19.73,5.534,16,5.534z M16,15.214c-1.65,0-2.988-1.338-2.988-2.988
		c0-1.65,1.338-2.988,2.988-2.988c1.65,0,2.988,1.338,2.988,2.988C18.988,13.877,17.65,15.214,16,15.214z"/>
</g>
<g id="Style_2_copy" display="none">
	<g display="inline">
		<g>
			<path fill="#FFFFFF" d="M16,31.25C7.591,31.25,0.75,24.409,0.75,16S7.591,0.75,16,0.75c8.409,0,15.25,6.841,15.25,15.25
				S24.409,31.25,16,31.25z"/>
			<path fill="#FF0000" d="M16,1.5c7.995,0,14.5,6.505,14.5,14.5S23.995,30.5,16,30.5S1.5,23.995,1.5,16S8.005,1.5,16,1.5 M16,0
				C7.163,0,0,7.163,0,16c0,8.836,7.163,16,16,16s16-7.164,16-16C32,7.163,24.837,0,16,0L16,0z"/>
		</g>
	</g>
	<path display="inline" d="M18.226,8.886c-1.59,0.579-2.595,2.071-2.481,3.704l0.038,0.63l-0.636-0.077
		c-2.315-0.296-4.338-1.299-6.056-2.984l-0.84-0.836L8.036,9.94c-0.458,1.376-0.165,2.83,0.789,3.808
		c0.509,0.54,0.394,0.617-0.483,0.296c-0.305-0.103-0.573-0.18-0.598-0.141c-0.089,0.09,0.216,1.26,0.458,1.724
		c0.331,0.644,1.005,1.273,1.743,1.647l0.624,0.296L9.83,17.581c-0.712,0-0.738,0.013-0.661,0.284
		c0.254,0.836,1.259,1.724,2.379,2.11l0.789,0.27l-0.687,0.412c-1.018,0.593-2.214,0.927-3.41,0.951
		c-0.573,0.013-1.044,0.064-1.044,0.103c0,0.128,1.553,0.848,2.455,1.132c2.71,0.836,5.929,0.475,8.346-0.952
		c1.718-1.016,3.435-3.036,4.237-4.992c0.433-1.041,0.865-2.945,0.865-3.858c0-0.592,0.038-0.669,0.75-1.376
		c0.42-0.412,0.814-0.862,0.891-0.99c0.128-0.245,0.114-0.245-0.534-0.026c-1.081,0.386-1.234,0.335-0.699-0.244
		c0.394-0.412,0.865-1.158,0.865-1.376c0-0.038-0.191,0.026-0.407,0.141c-0.229,0.129-0.738,0.322-1.12,0.437l-0.687,0.219
		L21.535,9.4c-0.344-0.231-0.826-0.489-1.081-0.566C19.804,8.654,18.812,8.68,18.226,8.886z"/>
</g>
<g id="Style_2_copy_2" display="none">
	<path display="inline" fill="#FFFFFF" d="M16,31.25C7.591,31.25,0.75,24.409,0.75,16S7.591,0.75,16,0.75
		c8.409,0,15.25,6.841,15.25,15.25S24.409,31.25,16,31.25z"/>
	<path display="inline" fill="#8AD5DD" d="M16,1.5c7.995,0,14.5,6.505,14.5,14.5S23.995,30.5,16,30.5S1.5,23.995,1.5,16
		S8.005,1.5,16,1.5 M16,0C7.163,0,0,7.163,0,16c0,8.836,7.163,16,16,16s16-7.164,16-16C32,7.163,24.837,0,16,0L16,0z"/>
	<path display="inline" fill="#333333" d="M18.226,8.886c-1.59,0.579-2.595,2.071-2.481,3.704l0.038,0.63l-0.636-0.077
		c-2.315-0.296-4.338-1.299-6.056-2.984l-0.84-0.836L8.036,9.94c-0.458,1.376-0.165,2.83,0.789,3.808
		c0.509,0.54,0.394,0.617-0.483,0.296c-0.305-0.103-0.573-0.18-0.598-0.141c-0.089,0.09,0.216,1.26,0.458,1.724
		c0.331,0.644,1.005,1.273,1.743,1.647l0.624,0.296L9.83,17.581c-0.712,0-0.738,0.013-0.661,0.284
		c0.254,0.836,1.259,1.724,2.379,2.11l0.789,0.27l-0.687,0.412c-1.018,0.593-2.214,0.927-3.41,0.951
		c-0.573,0.013-1.044,0.064-1.044,0.103c0,0.128,1.553,0.848,2.455,1.132c2.71,0.836,5.929,0.475,8.346-0.952
		c1.718-1.016,3.435-3.036,4.237-4.992c0.433-1.041,0.865-2.945,0.865-3.858c0-0.592,0.038-0.669,0.75-1.376
		c0.42-0.412,0.814-0.862,0.891-0.99c0.128-0.245,0.114-0.245-0.534-0.026c-1.081,0.386-1.234,0.335-0.699-0.244
		c0.394-0.412,0.865-1.158,0.865-1.376c0-0.038-0.191,0.026-0.407,0.141c-0.229,0.129-0.738,0.322-1.12,0.437l-0.687,0.219
		L21.535,9.4c-0.344-0.231-0.826-0.489-1.081-0.566C19.804,8.654,18.812,8.68,18.226,8.886z"/>
</g>
<g id="Style_3" display="none">
	<g display="inline">
		<g>
			<path fill="#FFFFFF" d="M16,31.625c-8.616,0-15.625-7.01-15.625-15.625S7.384,0.375,16,0.375c8.615,0,15.625,7.01,15.625,15.625
				S24.615,31.625,16,31.625z"/>
			<path fill="#E5E5E5" d="M16,0.75c8.409,0,15.25,6.841,15.25,15.25S24.409,31.25,16,31.25S0.75,24.409,0.75,16S7.591,0.75,16,0.75
				 M16,0C7.163,0,0,7.163,0,16c0,8.836,7.163,16,16,16s16-7.164,16-16C32,7.163,24.837,0,16,0L16,0z"/>
		</g>
	</g>
	<path display="inline" fill="#FF3878" d="M18.226,8.886c-1.59,0.579-2.595,2.071-2.481,3.704l0.038,0.63l-0.636-0.077
		c-2.315-0.296-4.338-1.299-6.056-2.984l-0.84-0.836L8.036,9.94c-0.458,1.376-0.165,2.83,0.789,3.808
		c0.509,0.54,0.394,0.617-0.483,0.296c-0.305-0.103-0.573-0.18-0.598-0.141c-0.089,0.09,0.216,1.26,0.458,1.724
		c0.331,0.644,1.005,1.273,1.743,1.647l0.624,0.296L9.83,17.581c-0.712,0-0.738,0.013-0.661,0.284
		c0.254,0.836,1.259,1.724,2.379,2.11l0.789,0.27l-0.687,0.412c-1.018,0.593-2.214,0.927-3.41,0.951
		c-0.573,0.013-1.044,0.064-1.044,0.103c0,0.128,1.553,0.848,2.455,1.132c2.71,0.836,5.929,0.475,8.346-0.952
		c1.718-1.016,3.435-3.036,4.237-4.992c0.433-1.041,0.865-2.945,0.865-3.858c0-0.592,0.038-0.669,0.75-1.376
		c0.42-0.412,0.814-0.862,0.891-0.99c0.128-0.245,0.114-0.245-0.534-0.026c-1.081,0.386-1.234,0.335-0.699-0.244
		c0.394-0.412,0.865-1.158,0.865-1.376c0-0.038-0.191,0.026-0.407,0.141c-0.229,0.129-0.738,0.322-1.12,0.437l-0.687,0.219
		L21.535,9.4c-0.344-0.231-0.826-0.489-1.081-0.566C19.804,8.654,18.812,8.68,18.226,8.886z"/>
</g>
<g id="Style_3_copy_2" display="none">
	<path display="inline" fill="#25B6D2" d="M20.046,3.071c-2.89,1.052-4.716,3.764-4.509,6.732l0.07,1.145l-1.156-0.14
		c-4.207-0.537-7.884-2.36-11.006-5.423L1.919,3.866L1.526,4.988c-0.832,2.501-0.3,5.143,1.433,6.92
		c0.925,0.982,0.716,1.122-0.878,0.537c-0.555-0.186-1.041-0.327-1.087-0.257c-0.161,0.164,0.393,2.291,0.832,3.133
		c0.601,1.17,1.826,2.314,3.168,2.993l1.133,0.537l-1.341,0.023c-1.294,0-1.341,0.023-1.202,0.515
		c0.462,1.519,2.289,3.133,4.323,3.834l1.433,0.49l-1.248,0.748c-1.849,1.077-4.023,1.684-6.197,1.729
		C0.855,26.213,0,26.307,0,26.378c0,0.233,2.821,1.541,4.462,2.057c4.925,1.519,10.775,0.864,15.168-1.73
		c3.122-1.847,6.242-5.517,7.7-9.071c0.787-1.892,1.572-5.353,1.572-7.011c0-1.076,0.07-1.216,1.364-2.501
		c0.764-0.748,1.48-1.566,1.619-1.8c0.232-0.445,0.207-0.445-0.971-0.047c-1.965,0.702-2.243,0.608-1.271-0.444
		c0.716-0.748,1.572-2.104,1.572-2.501c0-0.07-0.346,0.046-0.74,0.257C30.059,3.819,29.134,4.17,28.44,4.38l-1.248,0.398
		l-1.133-0.772c-0.625-0.42-1.502-0.888-1.965-1.028C22.914,2.651,21.11,2.697,20.046,3.071z"/>
</g>
<g id="Style_3_copy" display="none">
	<g display="inline">
		<g>
			<path fill="#FFFFFF" d="M16,31.625c-8.616,0-15.625-7.01-15.625-15.625S7.384,0.375,16,0.375c8.615,0,15.625,7.01,15.625,15.625
				S24.615,31.625,16,31.625z"/>
			<path fill="#E5E5E5" d="M16,0.75c8.409,0,15.25,6.841,15.25,15.25S24.409,31.25,16,31.25S0.75,24.409,0.75,16S7.591,0.75,16,0.75
				 M16,0C7.163,0,0,7.163,0,16c0,8.836,7.163,16,16,16s16-7.164,16-16C32,7.163,24.837,0,16,0L16,0z"/>
		</g>
	</g>
	<path display="inline" fill="#0BA4E0" d="M18.226,8.886c-1.59,0.579-2.595,2.071-2.481,3.704l0.038,0.63l-0.636-0.077
		c-2.315-0.296-4.338-1.299-6.056-2.984l-0.84-0.836L8.036,9.94c-0.458,1.376-0.165,2.83,0.789,3.808
		c0.509,0.54,0.394,0.617-0.483,0.296c-0.305-0.103-0.573-0.18-0.598-0.141c-0.089,0.09,0.216,1.26,0.458,1.724
		c0.331,0.644,1.005,1.273,1.743,1.647l0.624,0.296L9.83,17.581c-0.712,0-0.738,0.013-0.661,0.284
		c0.254,0.836,1.259,1.724,2.379,2.11l0.789,0.27l-0.687,0.412c-1.018,0.593-2.214,0.927-3.41,0.951
		c-0.573,0.013-1.044,0.064-1.044,0.103c0,0.128,1.553,0.848,2.455,1.132c2.71,0.836,5.929,0.475,8.346-0.952
		c1.718-1.016,3.435-3.036,4.237-4.992c0.433-1.041,0.865-2.945,0.865-3.858c0-0.592,0.038-0.669,0.75-1.376
		c0.42-0.412,0.814-0.862,0.891-0.99c0.128-0.245,0.114-0.245-0.534-0.026c-1.081,0.386-1.234,0.335-0.699-0.244
		c0.394-0.412,0.865-1.158,0.865-1.376c0-0.038-0.191,0.026-0.407,0.141c-0.229,0.129-0.738,0.322-1.12,0.437l-0.687,0.219
		L21.535,9.4c-0.344-0.231-0.826-0.489-1.081-0.566C19.804,8.654,18.812,8.68,18.226,8.886z"/>
</g>
<g id="Style_3_copy_3" display="none">
</g>
<g id="Style_3_copy_4" display="none">
</g>
</svg>
