<?xml version="1.0" encoding="utf-8"?>
<!-- Generator: Adobe Illustrator 19.2.1, SVG Export Plug-In . SVG Version: 6.00 Build 0)  -->
<svg version="1.1" xmlns="http://www.w3.org/2000/svg" xmlns:xlink="http://www.w3.org/1999/xlink" x="0px" y="0px"
	 viewBox="0 0 32 32" enable-background="new 0 0 32 32" xml:space="preserve">
<g id="Layer_6" display="none">
	<rect x="-96.198" y="-40.333" display="inline" fill="#E2E2E2" width="415.531" height="194.734"/>
</g>
<g id="Style_1" display="none">
	<g display="inline">
		<path fill="#E02F2F" d="M16,0C7.163,0,0,7.163,0,16c0,8.836,7.163,16,16,16s16-7.164,16-16C32,7.163,24.837,0,16,0z"/>
		<path fill="none" stroke="#FF6666" stroke-width="0.5" stroke-miterlimit="10" d="M16,1.359C7.914,1.359,1.359,7.914,1.359,16
			c0,8.086,6.555,14.641,14.641,14.641S30.641,24.086,30.641,16C30.641,7.914,24.086,1.359,16,1.359z"/>
	</g>
	<path display="inline" fill="#FFFFFF" d="M7.659,14.357c0,0,1.521-1.199,2.028-0.6c0.507,0.6,2.442,7.836,3.088,9.171
		c0.564,1.171,2.119,2.718,3.824,1.613c1.705-1.105,7.373-5.945,8.388-11.66c1.014-5.714-6.821-4.517-7.651,0.461
		c2.075-1.245,3.182,0.506,2.12,2.489c-1.06,1.981-2.028,3.273-2.535,3.273c-0.506,0-0.895-1.326-1.475-3.643
		c-0.599-2.395-0.596-6.71-3.087-6.221c-2.35,0.461-5.438,4.149-5.438,4.149L7.659,14.357z"/>
</g>
<g id="Style_1_copy" display="none">
	<g display="inline">
		<path fill="#E02F2F" d="M16,0C7.163,0,0,7.163,0,16c0,8.836,7.163,16,16,16s16-7.164,16-16C32,7.163,24.837,0,16,0z"/>
		<path fill="none" stroke="#FF6666" stroke-width="0.5" stroke-miterlimit="10" d="M16,1.359C7.914,1.359,1.359,7.914,1.359,16
			c0,8.086,6.555,14.641,14.641,14.641S30.641,24.086,30.641,16C30.641,7.914,24.086,1.359,16,1.359z"/>
	</g>
	<path display="inline" fill="#FFFFFF" d="M7.659,14.357c0,0,1.521-1.199,2.028-0.6c0.507,0.6,2.442,7.836,3.088,9.171
		c0.564,1.171,2.119,2.718,3.824,1.613c1.705-1.105,7.373-5.945,8.388-11.66c1.014-5.714-6.821-4.517-7.651,0.461
		c2.075-1.245,3.182,0.506,2.12,2.489c-1.06,1.981-2.028,3.273-2.535,3.273c-0.506,0-0.895-1.326-1.475-3.643
		c-0.599-2.395-0.596-6.71-3.087-6.221c-2.35,0.461-5.438,4.149-5.438,4.149L7.659,14.357z"/>
</g>
<g id="Style_2" display="none">
	<g display="inline">
		<g>
			<path fill="#FFFFFF" d="M16,31.625c-8.615,0-15.625-7.01-15.625-15.625S7.385,0.375,16,0.375S31.625,7.385,31.625,16
				S24.615,31.625,16,31.625z"/>
			<path fill="#E5E5E5" d="M16,0.75c8.409,0,15.25,6.841,15.25,15.25S24.409,31.25,16,31.25S0.75,24.409,0.75,16S7.591,0.75,16,0.75
				 M16,0C7.163,0,0,7.163,0,16c0,8.836,7.163,16,16,16s16-7.164,16-16C32,7.163,24.837,0,16,0L16,0z"/>
		</g>
	</g>
	<path display="inline" fill="#333333" d="M7.659,14.357c0,0,1.521-1.199,2.028-0.6c0.507,0.6,2.442,7.836,3.088,9.171
		c0.564,1.171,2.119,2.718,3.824,1.613c1.705-1.105,7.373-5.945,8.388-11.66c1.014-5.714-6.821-4.517-7.651,0.461
		c2.075-1.245,3.182,0.506,2.12,2.489c-1.06,1.981-2.028,3.273-2.535,3.273c-0.506,0-0.895-1.326-1.475-3.643
		c-0.599-2.395-0.596-6.71-3.087-6.221c-2.35,0.461-5.438,4.149-5.438,4.149L7.659,14.357z"/>
</g>
<g id="Style_2_copy_3">
	<g>
		<path fill="#333333" d="M16,0C7.163,0,0,7.163,0,16c0,8.836,7.163,16,16,16s16-7.164,16-16C32,7.163,24.837,0,16,0z"/>
	</g>
	<g>
		<g>
			<g>
				<path fill="#FFFFFF" d="M12.202,23.565c-4.247,0-7.702-3.393-7.702-7.564c0-4.171,3.455-7.565,7.702-7.565
					c1.857,0,3.652,0.659,5.052,1.855l-1.959,2.211c-0.857-0.732-1.956-1.136-3.094-1.136c-2.602,0-4.719,2.079-4.719,4.634
					c0,2.555,2.117,4.634,4.719,4.634c2.201,0,3.642-1.055,4.11-2.947h-4.074v-2.93h7.223v1.465
					C19.461,20.613,16.544,23.565,12.202,23.565z"/>
			</g>
			<polygon fill="#FFFFFF" points="27.501,14.758 25.267,14.758 25.267,12.525 23.481,12.525 23.481,14.758 21.248,14.758 
				21.248,16.544 23.481,16.544 23.481,18.777 25.267,18.777 25.267,16.544 27.501,16.544 			"/>
		</g>
	</g>
</g>
<g id="Style_2_copy" display="none">
	<g display="inline">
		<g>
			<path fill="#FFFFFF" d="M16,31.25C7.591,31.25,0.75,24.409,0.75,16S7.591,0.75,16,0.75S31.25,7.591,31.25,16
				S24.409,31.25,16,31.25z"/>
			<path fill="#FF0000" d="M16,1.5c7.995,0,14.5,6.505,14.5,14.5S23.995,30.5,16,30.5S1.5,23.995,1.5,16S8.005,1.5,16,1.5 M16,0
				C7.163,0,0,7.163,0,16c0,8.836,7.163,16,16,16s16-7.164,16-16C32,7.163,24.837,0,16,0L16,0z"/>
		</g>
	</g>
	<path display="inline" d="M7.659,14.357c0,0,1.521-1.199,2.028-0.6c0.507,0.6,2.442,7.836,3.088,9.171
		c0.564,1.171,2.119,2.718,3.824,1.613c1.705-1.105,7.373-5.945,8.388-11.66c1.014-5.714-6.821-4.517-7.651,0.461
		c2.075-1.245,3.182,0.506,2.12,2.489c-1.06,1.981-2.028,3.273-2.535,3.273c-0.506,0-0.895-1.326-1.475-3.643
		c-0.599-2.395-0.596-6.71-3.087-6.221c-2.35,0.461-5.438,4.149-5.438,4.149L7.659,14.357z"/>
</g>
<g id="Style_2_copy_2" display="none">
	<path display="inline" fill="#FFFFFF" d="M16,31.25C7.591,31.25,0.75,24.409,0.75,16S7.591,0.75,16,0.75S31.25,7.591,31.25,16
		S24.409,31.25,16,31.25z"/>
	<path display="inline" fill="#8AD5DD" d="M16,1.5c7.995,0,14.5,6.505,14.5,14.5S23.995,30.5,16,30.5S1.5,23.995,1.5,16
		S8.005,1.5,16,1.5 M16,0C7.163,0,0,7.163,0,16c0,8.836,7.163,16,16,16s16-7.164,16-16C32,7.163,24.837,0,16,0L16,0z"/>
	<path display="inline" fill="#333333" d="M7.659,14.357c0,0,1.521-1.199,2.028-0.6c0.507,0.6,2.442,7.836,3.088,9.171
		c0.564,1.171,2.119,2.718,3.824,1.613c1.705-1.105,7.373-5.945,8.388-11.66c1.014-5.714-6.821-4.517-7.651,0.461
		c2.075-1.245,3.182,0.506,2.12,2.489c-1.06,1.981-2.028,3.273-2.535,3.273c-0.506,0-0.895-1.326-1.475-3.643
		c-0.599-2.395-0.596-6.71-3.087-6.221c-2.35,0.461-5.438,4.149-5.438,4.149L7.659,14.357z"/>
</g>
<g id="Style_3" display="none">
	<g display="inline">
		<g>
			<path fill="#FFFFFF" d="M16,31.625c-8.615,0-15.625-7.01-15.625-15.625S7.385,0.375,16,0.375S31.625,7.385,31.625,16
				S24.615,31.625,16,31.625z"/>
			<path fill="#E5E5E5" d="M16,0.75c8.409,0,15.25,6.841,15.25,15.25S24.409,31.25,16,31.25S0.75,24.409,0.75,16S7.591,0.75,16,0.75
				 M16,0C7.163,0,0,7.163,0,16c0,8.836,7.163,16,16,16s16-7.164,16-16C32,7.163,24.837,0,16,0L16,0z"/>
		</g>
	</g>
	<path display="inline" fill="#FF3878" d="M7.659,14.357c0,0,1.521-1.199,2.028-0.6c0.507,0.6,2.442,7.836,3.088,9.171
		c0.564,1.171,2.119,2.718,3.824,1.613c1.705-1.105,7.373-5.945,8.388-11.66c1.014-5.714-6.821-4.517-7.651,0.461
		c2.075-1.245,3.182,0.506,2.12,2.489c-1.06,1.981-2.028,3.273-2.535,3.273c-0.506,0-0.895-1.326-1.475-3.643
		c-0.599-2.395-0.596-6.71-3.087-6.221c-2.35,0.461-5.438,4.149-5.438,4.149L7.659,14.357z"/>
</g>
<g id="Style_3_copy_2" display="none">
	<path display="inline" fill="#F2B851" d="M1.298,11.342c0,0,2.681-2.113,3.575-1.057c0.893,1.057,4.304,13.812,5.443,16.164
		c0.994,2.064,3.735,4.791,6.741,2.843c3.004-1.948,12.996-10.478,14.784-20.551C33.628-1.329,19.818,0.78,18.355,9.554
		c3.656-2.195,5.608,0.891,3.737,4.387c-1.868,3.492-3.575,5.769-4.467,5.769c-0.892,0-1.578-2.337-2.6-6.421
		C13.97,9.067,13.975,1.462,9.584,2.324C5.442,3.137,0,9.636,0,9.636L1.298,11.342z"/>
</g>
<g id="Style_3_copy" display="none">
	<g display="inline">
		<g>
			<path fill="#FFFFFF" d="M16,31.625c-8.615,0-15.625-7.01-15.625-15.625S7.385,0.375,16,0.375S31.625,7.385,31.625,16
				S24.615,31.625,16,31.625z"/>
			<path fill="#E5E5E5" d="M16,0.75c8.409,0,15.25,6.841,15.25,15.25S24.409,31.25,16,31.25S0.75,24.409,0.75,16S7.591,0.75,16,0.75
				 M16,0C7.163,0,0,7.163,0,16c0,8.836,7.163,16,16,16s16-7.164,16-16C32,7.163,24.837,0,16,0L16,0z"/>
		</g>
	</g>
	<path display="inline" fill="#0BA4E0" d="M7.659,14.357c0,0,1.521-1.199,2.028-0.6c0.507,0.6,2.442,7.836,3.088,9.171
		c0.564,1.171,2.119,2.718,3.824,1.613c1.705-1.105,7.373-5.945,8.388-11.66c1.014-5.714-6.821-4.517-7.651,0.461
		c2.075-1.245,3.182,0.506,2.12,2.489c-1.06,1.981-2.028,3.273-2.535,3.273c-0.506,0-0.895-1.326-1.475-3.643
		c-0.599-2.395-0.596-6.71-3.087-6.221c-2.35,0.461-5.438,4.149-5.438,4.149L7.659,14.357z"/>
</g>
<g id="Style_3_copy_3" display="none">
</g>
<g id="Style_3_copy_4" display="none">
</g>
</svg>
