<?xml version="1.0" encoding="utf-8"?>
<!-- Generator: Adobe Illustrator 19.2.1, SVG Export Plug-In . SVG Version: 6.00 Build 0)  -->
<svg version="1.1" xmlns="http://www.w3.org/2000/svg" xmlns:xlink="http://www.w3.org/1999/xlink" x="0px" y="0px"
	 viewBox="0 0 32 32" enable-background="new 0 0 32 32" xml:space="preserve">
<g id="Layer_6" display="none">
	<rect x="-174.198" y="-40.333" display="inline" fill="#E2E2E2" width="415.531" height="194.734"/>
</g>
<g id="Style_1" display="none">
	<g display="inline">
		<path fill="#E02F2F" d="M16,0C7.163,0,0,7.163,0,16c0,8.836,7.163,16,16,16s16-7.164,16-16C32,7.163,24.837,0,16,0z"/>
		<path fill="none" stroke="#FF6666" stroke-width="0.5" stroke-miterlimit="10" d="M16,1.359C7.914,1.359,1.359,7.914,1.359,16
			c0,8.086,6.555,14.641,14.641,14.641S30.641,24.086,30.641,16C30.641,7.914,24.086,1.359,16,1.359z"/>
	</g>
	<path display="inline" fill="#FFFFFF" d="M18.76,10.36c0-1.424,2.862-2.162,2.862,0.246c-0.008,1.322-0.19,2.542-0.481,3.659h2.975
		c0.226-1.348,0.217-2.681,0.217-4.251c0-4.421-8.333-5.158-8.333,0.444c0,3.933,1.893,6.003,3.873,7.093
		C18.224,20.721,16,22.448,16,22.448c-6.224-4.963-5.622-13.365-5.622-13.365H7.667c0.051,11.351,6.176,15.33,6.929,15.921
		c0.752,0.591,0.903,0.541,1.807,0.491c0.902-0.049,2.959-2.065,5.47-5.895c0.242-0.371,0.46-0.726,0.657-1.071
		c1.051,0.23,1.802,0.235,1.802,0.235v-2.408C19.061,15.863,18.76,11.442,18.76,10.36z"/>
</g>
<g id="Style_1_copy" display="none">
	<g display="inline">
		<path fill="#E02F2F" d="M16,0C7.163,0,0,7.163,0,16c0,8.836,7.163,16,16,16s16-7.164,16-16C32,7.163,24.837,0,16,0z"/>
		<path fill="none" stroke="#FF6666" stroke-width="0.5" stroke-miterlimit="10" d="M16,1.359C7.914,1.359,1.359,7.914,1.359,16
			c0,8.086,6.555,14.641,14.641,14.641S30.641,24.086,30.641,16C30.641,7.914,24.086,1.359,16,1.359z"/>
	</g>
	<path display="inline" fill="#FFFFFF" d="M18.76,10.36c0-1.424,2.862-2.162,2.862,0.246c-0.008,1.322-0.19,2.542-0.481,3.659h2.975
		c0.226-1.348,0.217-2.681,0.217-4.251c0-4.421-8.333-5.158-8.333,0.444c0,3.933,1.893,6.003,3.873,7.093
		C18.224,20.721,16,22.448,16,22.448c-6.224-4.963-5.622-13.365-5.622-13.365H7.667c0.051,11.351,6.176,15.33,6.929,15.921
		c0.752,0.591,0.903,0.541,1.807,0.491c0.902-0.049,2.959-2.065,5.47-5.895c0.242-0.371,0.46-0.726,0.657-1.071
		c1.051,0.23,1.802,0.235,1.802,0.235v-2.408C19.061,15.863,18.76,11.442,18.76,10.36z"/>
</g>
<g id="Style_2" display="none">
	<g display="inline">
		<g>
			<path fill="#FFFFFF" d="M16,31.625c-8.615,0-15.625-7.01-15.625-15.625S7.385,0.375,16,0.375S31.625,7.385,31.625,16
				S24.615,31.625,16,31.625z"/>
			<path fill="#E5E5E5" d="M16,0.75c8.409,0,15.25,6.841,15.25,15.25S24.409,31.25,16,31.25S0.75,24.409,0.75,16S7.591,0.75,16,0.75
				 M16,0C7.163,0,0,7.163,0,16c0,8.836,7.163,16,16,16s16-7.164,16-16C32,7.163,24.837,0,16,0L16,0z"/>
		</g>
	</g>
	<path display="inline" fill="#333333" d="M18.76,10.36c0-1.424,2.862-2.162,2.862,0.246c-0.008,1.322-0.19,2.542-0.481,3.659h2.975
		c0.226-1.348,0.217-2.681,0.217-4.251c0-4.421-8.333-5.158-8.333,0.444c0,3.933,1.893,6.003,3.873,7.093
		C18.224,20.721,16,22.448,16,22.448c-6.224-4.963-5.622-13.365-5.622-13.365H7.667c0.051,11.351,6.176,15.33,6.929,15.921
		c0.752,0.591,0.903,0.541,1.807,0.491c0.902-0.049,2.959-2.065,5.47-5.895c0.242-0.371,0.46-0.726,0.657-1.071
		c1.051,0.23,1.802,0.235,1.802,0.235v-2.408C19.061,15.863,18.76,11.442,18.76,10.36z"/>
</g>
<g id="Style_2_copy_3">
	<g>
		<g>
			<path fill="#333333" d="M16,0C7.163,0,0,7.163,0,16c0,8.836,7.163,16,16,16s16-7.164,16-16C32,7.163,24.837,0,16,0z"/>
		</g>
	</g>
	<g>
		<path fill="#FFFFFF" d="M4.905,13.267l0.436,2.236c0.111,0.57,0.223,1.174,0.313,1.8h0.022c0.112-0.626,0.269-1.252,0.402-1.789
			l0.582-2.247h1.342l0.547,2.18c0.146,0.615,0.291,1.23,0.403,1.856h0.022c0.078-0.626,0.19-1.241,0.313-1.867l0.47-2.169h1.666
			l-1.678,5.467H8.147L7.632,16.81c-0.134-0.537-0.235-1.029-0.346-1.699H7.264c-0.101,0.682-0.212,1.185-0.358,1.699l-0.548,1.923
			H4.76l-1.588-5.467H4.905z"/>
		<path fill="#FFFFFF" d="M13.608,13.267l0.436,2.236c0.111,0.57,0.223,1.174,0.313,1.8h0.022c0.112-0.626,0.269-1.252,0.402-1.789
			l0.582-2.247h1.342l0.547,2.18c0.146,0.615,0.291,1.23,0.403,1.856h0.022c0.078-0.626,0.19-1.241,0.313-1.867l0.47-2.169h1.666
			l-1.678,5.467h-1.598l-0.514-1.923c-0.134-0.537-0.235-1.029-0.346-1.699h-0.023c-0.101,0.682-0.212,1.185-0.358,1.699
			l-0.548,1.923h-1.598l-1.588-5.467H13.608z"/>
		<path fill="#FFFFFF" d="M22.31,13.267l0.436,2.236c0.111,0.57,0.223,1.174,0.313,1.8h0.022c0.112-0.626,0.269-1.252,0.402-1.789
			l0.582-2.247h1.342l0.547,2.18c0.146,0.615,0.291,1.23,0.403,1.856h0.022c0.078-0.626,0.19-1.241,0.313-1.867l0.47-2.169h1.666
			l-1.678,5.467h-1.598l-0.514-1.923c-0.134-0.537-0.235-1.029-0.346-1.699h-0.023c-0.101,0.682-0.212,1.185-0.358,1.699
			l-0.548,1.923h-1.598l-1.588-5.467H22.31z"/>
	</g>
</g>
<g id="Style_2_copy" display="none">
	<g display="inline">
		<g>
			<path fill="#FFFFFF" d="M16,31.25C7.591,31.25,0.75,24.409,0.75,16S7.591,0.75,16,0.75S31.25,7.591,31.25,16
				S24.409,31.25,16,31.25z"/>
			<path fill="#FF0000" d="M16,1.5c7.995,0,14.5,6.505,14.5,14.5S23.995,30.5,16,30.5S1.5,23.995,1.5,16S8.005,1.5,16,1.5 M16,0
				C7.163,0,0,7.163,0,16c0,8.836,7.163,16,16,16s16-7.164,16-16C32,7.163,24.837,0,16,0L16,0z"/>
		</g>
	</g>
	<path display="inline" d="M18.76,10.36c0-1.424,2.862-2.162,2.862,0.246c-0.008,1.322-0.19,2.542-0.481,3.659h2.975
		c0.226-1.348,0.217-2.681,0.217-4.251c0-4.421-8.333-5.158-8.333,0.444c0,3.933,1.893,6.003,3.873,7.093
		C18.224,20.721,16,22.448,16,22.448c-6.224-4.963-5.622-13.365-5.622-13.365H7.667c0.051,11.351,6.176,15.33,6.929,15.921
		c0.752,0.591,0.903,0.541,1.807,0.491c0.902-0.049,2.959-2.065,5.47-5.895c0.242-0.371,0.46-0.726,0.657-1.071
		c1.051,0.23,1.802,0.235,1.802,0.235v-2.408C19.061,15.863,18.76,11.442,18.76,10.36z"/>
</g>
<g id="Style_2_copy_2" display="none">
	<path display="inline" fill="#FFFFFF" d="M16,31.25C7.591,31.25,0.75,24.409,0.75,16S7.591,0.75,16,0.75S31.25,7.591,31.25,16
		S24.409,31.25,16,31.25z"/>
	<path display="inline" fill="#8AD5DD" d="M16,1.5c7.995,0,14.5,6.505,14.5,14.5S23.995,30.5,16,30.5S1.5,23.995,1.5,16
		S8.005,1.5,16,1.5 M16,0C7.163,0,0,7.163,0,16c0,8.836,7.163,16,16,16s16-7.164,16-16C32,7.163,24.837,0,16,0L16,0z"/>
	<path display="inline" fill="#333333" d="M18.76,10.36c0-1.424,2.862-2.162,2.862,0.246c-0.008,1.322-0.19,2.542-0.481,3.659h2.975
		c0.226-1.348,0.217-2.681,0.217-4.251c0-4.421-8.333-5.158-8.333,0.444c0,3.933,1.893,6.003,3.873,7.093
		C18.224,20.721,16,22.448,16,22.448c-6.224-4.963-5.622-13.365-5.622-13.365H7.667c0.051,11.351,6.176,15.33,6.929,15.921
		c0.752,0.591,0.903,0.541,1.807,0.491c0.902-0.049,2.959-2.065,5.47-5.895c0.242-0.371,0.46-0.726,0.657-1.071
		c1.051,0.23,1.802,0.235,1.802,0.235v-2.408C19.061,15.863,18.76,11.442,18.76,10.36z"/>
</g>
<g id="Style_3" display="none">
	<g display="inline">
		<g>
			<path fill="#FFFFFF" d="M16,31.625c-8.615,0-15.625-7.01-15.625-15.625S7.385,0.375,16,0.375S31.625,7.385,31.625,16
				S24.615,31.625,16,31.625z"/>
			<path fill="#E5E5E5" d="M16,0.75c8.409,0,15.25,6.841,15.25,15.25S24.409,31.25,16,31.25S0.75,24.409,0.75,16S7.591,0.75,16,0.75
				 M16,0C7.163,0,0,7.163,0,16c0,8.836,7.163,16,16,16s16-7.164,16-16C32,7.163,24.837,0,16,0L16,0z"/>
		</g>
	</g>
	<path display="inline" fill="#FF3878" d="M18.76,10.36c0-1.424,2.862-2.162,2.862,0.246c-0.008,1.322-0.19,2.542-0.481,3.659h2.975
		c0.226-1.348,0.217-2.681,0.217-4.251c0-4.421-8.333-5.158-8.333,0.444c0,3.933,1.893,6.003,3.873,7.093
		C18.224,20.721,16,22.448,16,22.448c-6.224-4.963-5.622-13.365-5.622-13.365H7.667c0.051,11.351,6.176,15.33,6.929,15.921
		c0.752,0.591,0.903,0.541,1.807,0.491c0.902-0.049,2.959-2.065,5.47-5.895c0.242-0.371,0.46-0.726,0.657-1.071
		c1.051,0.23,1.802,0.235,1.802,0.235v-2.408C19.061,15.863,18.76,11.442,18.76,10.36z"/>
</g>
<g id="Style_3_copy_2" display="none">
	<path display="inline" fill="#32BEA6" d="M20.638,6.524c0-2.393,4.808-3.632,4.808,0.414c-0.014,2.221-0.319,4.271-0.808,6.148
		h4.999c0.38-2.266,0.364-4.505,0.364-7.142C30.001-1.485,16-2.722,16,6.69c0,6.609,3.181,10.087,6.508,11.918
		C19.736,23.932,16,26.834,16,26.834C5.543,18.496,6.555,4.377,6.555,4.377H1.999C2.085,23.45,12.376,30.136,13.642,31.128
		c1.264,0.992,1.517,0.909,3.037,0.825c1.515-0.082,4.972-3.469,9.19-9.904c0.406-0.624,0.772-1.219,1.104-1.799
		c1.765,0.387,3.028,0.395,3.028,0.395v-4.046C21.144,15.77,20.638,8.342,20.638,6.524z"/>
</g>
<g id="Style_3_copy" display="none">
	<g display="inline">
		<g>
			<path fill="#FFFFFF" d="M16,31.625c-8.615,0-15.625-7.01-15.625-15.625S7.385,0.375,16,0.375S31.625,7.385,31.625,16
				S24.615,31.625,16,31.625z"/>
			<path fill="#E5E5E5" d="M16,0.75c8.409,0,15.25,6.841,15.25,15.25S24.409,31.25,16,31.25S0.75,24.409,0.75,16S7.591,0.75,16,0.75
				 M16,0C7.163,0,0,7.163,0,16c0,8.836,7.163,16,16,16s16-7.164,16-16C32,7.163,24.837,0,16,0L16,0z"/>
		</g>
	</g>
	<path display="inline" fill="#0BA4E0" d="M18.76,10.36c0-1.424,2.862-2.162,2.862,0.246c-0.008,1.322-0.19,2.542-0.481,3.659h2.975
		c0.226-1.348,0.217-2.681,0.217-4.251c0-4.421-8.333-5.158-8.333,0.444c0,3.933,1.893,6.003,3.873,7.093
		C18.224,20.721,16,22.448,16,22.448c-6.224-4.963-5.622-13.365-5.622-13.365H7.667c0.051,11.351,6.176,15.33,6.929,15.921
		c0.752,0.591,0.903,0.541,1.807,0.491c0.902-0.049,2.959-2.065,5.47-5.895c0.242-0.371,0.46-0.726,0.657-1.071
		c1.051,0.23,1.802,0.235,1.802,0.235v-2.408C19.061,15.863,18.76,11.442,18.76,10.36z"/>
</g>
<g id="Style_3_copy_3" display="none">
</g>
<g id="Style_3_copy_4" display="none">
</g>
</svg>
