<?xml version="1.0" encoding="utf-8"?>
<!-- Generator: Adobe Illustrator 19.2.1, SVG Export Plug-In . SVG Version: 6.00 Build 0)  -->
<svg version="1.1" id="Layer_1" xmlns="http://www.w3.org/2000/svg" xmlns:xlink="http://www.w3.org/1999/xlink" x="0px" y="0px"
	 viewBox="0 0 32 32" enable-background="new 0 0 32 32" xml:space="preserve">
<g id="Layer_6" display="none">
	<rect x="-57.193" y="-40.344" display="inline" fill="#E2E2E2" width="415.531" height="194.734"/>
</g>
<g id="Style_1" display="none">
	<g display="inline">
		<path fill="#E02F2F" d="M16.005-0.011c-8.837,0-16,7.163-16,16c0,8.836,7.163,16,16,16s16-7.164,16-16
			C32.005,7.153,24.842-0.011,16.005-0.011z"/>
		<path fill="none" stroke="#FF6666" stroke-width="0.5" stroke-miterlimit="10" d="M16.005,1.348
			c-8.086,0-14.641,6.555-14.641,14.641S7.919,30.63,16.005,30.63s14.641-6.555,14.641-14.641
			C30.647,7.903,24.091,1.348,16.005,1.348z"/>
	</g>
	<path display="inline" fill="#FFFFFF" d="M24.299,22.932v-6.137c0-3.288-1.755-4.818-4.096-4.818c-1.889,0-2.735,1.039-3.206,1.768
		v-1.517h-3.558c0.047,1.005,0,10.704,0,10.704h3.558v-5.978c0-0.319,0.023-0.639,0.117-0.867c0.257-0.639,0.842-1.301,1.825-1.301
		c1.288,0,1.803,0.981,1.803,2.42v5.727L24.299,22.932L24.299,22.932z M9.69,10.767c1.24,0,2.013-0.823,2.013-1.85
		c-0.023-1.05-0.773-1.849-1.99-1.849S7.701,7.866,7.701,8.916c0,1.028,0.772,1.85,1.967,1.85L9.69,10.767L9.69,10.767z
		 M11.469,22.932V12.228H7.912v10.704H11.469z"/>
</g>
<g id="Style_1_copy" display="none">
	<g display="inline">
		<path fill="#E02F2F" d="M16.005-0.011c-8.837,0-16,7.163-16,16c0,8.836,7.163,16,16,16s16-7.164,16-16
			C32.005,7.153,24.842-0.011,16.005-0.011z"/>
		<path fill="none" stroke="#FF6666" stroke-width="0.5" stroke-miterlimit="10" d="M16.005,1.348
			c-8.086,0-14.641,6.555-14.641,14.641S7.919,30.63,16.005,30.63s14.641-6.555,14.641-14.641
			C30.647,7.903,24.091,1.348,16.005,1.348z"/>
	</g>
	<path display="inline" fill="#FFFFFF" d="M24.299,22.932v-6.137c0-3.288-1.755-4.818-4.096-4.818c-1.889,0-2.735,1.039-3.206,1.768
		v-1.517h-3.558c0.047,1.005,0,10.704,0,10.704h3.558v-5.978c0-0.319,0.023-0.639,0.117-0.867c0.257-0.639,0.842-1.301,1.825-1.301
		c1.288,0,1.803,0.981,1.803,2.42v5.727L24.299,22.932L24.299,22.932z M9.69,10.767c1.24,0,2.013-0.823,2.013-1.85
		c-0.023-1.05-0.773-1.849-1.99-1.849S7.701,7.866,7.701,8.916c0,1.028,0.772,1.85,1.967,1.85L9.69,10.767L9.69,10.767z
		 M11.469,22.932V12.228H7.912v10.704H11.469z"/>
</g>
<g id="Style_2" display="none">
	<g display="inline">
		<g>
			<path fill="#FFFFFF" d="M16.005,31.614c-8.615,0-15.625-7.01-15.625-15.625S7.39,0.364,16.005,0.364S31.63,7.374,31.63,15.989
				S24.62,31.614,16.005,31.614z"/>
			<path fill="#E5E5E5" d="M16.005,0.739c8.409,0,15.25,6.841,15.25,15.25s-6.841,15.25-15.25,15.25s-15.25-6.841-15.25-15.25
				S7.596,0.739,16.005,0.739 M16.005-0.011c-8.837,0-16,7.163-16,16c0,8.836,7.163,16,16,16s16-7.164,16-16
				C32.005,7.153,24.842-0.011,16.005-0.011L16.005-0.011z"/>
		</g>
	</g>
	<path display="inline" fill="#333333" d="M24.299,22.932v-6.137c0-3.288-1.755-4.818-4.096-4.818c-1.889,0-2.735,1.039-3.206,1.768
		v-1.517h-3.558c0.047,1.005,0,10.704,0,10.704h3.558v-5.978c0-0.319,0.023-0.639,0.117-0.867c0.257-0.639,0.842-1.301,1.825-1.301
		c1.288,0,1.803,0.981,1.803,2.42v5.727L24.299,22.932L24.299,22.932z M9.69,10.767c1.24,0,2.013-0.823,2.013-1.85
		c-0.023-1.05-0.773-1.849-1.99-1.849S7.701,7.866,7.701,8.916c0,1.028,0.772,1.85,1.967,1.85L9.69,10.767L9.69,10.767z
		 M11.469,22.932V12.228H7.912v10.704H11.469z"/>
</g>
<g id="Style_2_copy_3">
	<g>
		<g>
			<path fill="#333333" d="M16,0C7.163,0,0,7.163,0,16c0,8.836,7.163,16,16,16s16-7.164,16-16C32,7.163,24.837,0,16,0z"/>
		</g>
	</g>
</g>
<g id="Style_2_copy" display="none">
	<g display="inline">
		<g>
			<path fill="#FFFFFF" d="M16.005,31.239c-8.409,0-15.25-6.841-15.25-15.25s6.841-15.25,15.25-15.25s15.25,6.841,15.25,15.25
				S24.414,31.239,16.005,31.239z"/>
			<path fill="#FF0000" d="M16.005,1.489c7.995,0,14.5,6.505,14.5,14.5s-6.505,14.5-14.5,14.5s-14.5-6.505-14.5-14.5
				S8.01,1.489,16.005,1.489 M16.005-0.011c-8.837,0-16,7.163-16,16c0,8.836,7.163,16,16,16s16-7.164,16-16
				C32.005,7.153,24.842-0.011,16.005-0.011L16.005-0.011z"/>
		</g>
	</g>
	<path display="inline" d="M24.299,22.932v-6.137c0-3.288-1.755-4.818-4.096-4.818c-1.889,0-2.735,1.039-3.206,1.768v-1.517h-3.558
		c0.047,1.005,0,10.704,0,10.704h3.558v-5.978c0-0.319,0.023-0.639,0.117-0.867c0.257-0.639,0.842-1.301,1.825-1.301
		c1.288,0,1.803,0.981,1.803,2.42v5.727L24.299,22.932L24.299,22.932z M9.69,10.767c1.24,0,2.013-0.823,2.013-1.85
		c-0.023-1.05-0.773-1.849-1.99-1.849S7.701,7.866,7.701,8.916c0,1.028,0.772,1.85,1.967,1.85L9.69,10.767L9.69,10.767z
		 M11.469,22.932V12.228H7.912v10.704H11.469z"/>
</g>
<g id="Style_2_copy_2" display="none">
	<path display="inline" fill="#FFFFFF" d="M16.005,31.239c-8.409,0-15.25-6.841-15.25-15.25s6.841-15.25,15.25-15.25
		s15.25,6.841,15.25,15.25S24.414,31.239,16.005,31.239z"/>
	<path display="inline" fill="#8AD5DD" d="M16.005,1.489c7.995,0,14.5,6.505,14.5,14.5s-6.505,14.5-14.5,14.5s-14.5-6.505-14.5-14.5
		S8.01,1.489,16.005,1.489 M16.005-0.011c-8.837,0-16,7.163-16,16c0,8.836,7.163,16,16,16s16-7.164,16-16
		C32.005,7.153,24.842-0.011,16.005-0.011L16.005-0.011z"/>
	<path display="inline" fill="#333333" d="M24.299,22.932v-6.137c0-3.288-1.755-4.818-4.096-4.818c-1.889,0-2.735,1.039-3.206,1.768
		v-1.517h-3.558c0.047,1.005,0,10.704,0,10.704h3.558v-5.978c0-0.319,0.023-0.639,0.117-0.867c0.257-0.639,0.842-1.301,1.825-1.301
		c1.288,0,1.803,0.981,1.803,2.42v5.727L24.299,22.932L24.299,22.932z M9.69,10.767c1.24,0,2.013-0.823,2.013-1.85
		c-0.023-1.05-0.773-1.849-1.99-1.849S7.701,7.866,7.701,8.916c0,1.028,0.772,1.85,1.967,1.85L9.69,10.767L9.69,10.767z
		 M11.469,22.932V12.228H7.912v10.704H11.469z"/>
</g>
<g id="Style_3" display="none">
	<g display="inline">
		<g>
			<path fill="#FFFFFF" d="M16.005,31.614c-8.615,0-15.625-7.01-15.625-15.625S7.39,0.364,16.005,0.364S31.63,7.374,31.63,15.989
				S24.62,31.614,16.005,31.614z"/>
			<path fill="#E5E5E5" d="M16.005,0.739c8.409,0,15.25,6.841,15.25,15.25s-6.841,15.25-15.25,15.25s-15.25-6.841-15.25-15.25
				S7.596,0.739,16.005,0.739 M16.005-0.011c-8.837,0-16,7.163-16,16c0,8.836,7.163,16,16,16s16-7.164,16-16
				C32.005,7.153,24.842-0.011,16.005-0.011L16.005-0.011z"/>
		</g>
	</g>
	<path display="inline" fill="#FF3878" d="M24.299,22.932v-6.137c0-3.288-1.755-4.818-4.096-4.818c-1.889,0-2.735,1.039-3.206,1.768
		v-1.517h-3.558c0.047,1.005,0,10.704,0,10.704h3.558v-5.978c0-0.319,0.023-0.639,0.117-0.867c0.257-0.639,0.842-1.301,1.825-1.301
		c1.288,0,1.803,0.981,1.803,2.42v5.727L24.299,22.932L24.299,22.932z M9.69,10.767c1.24,0,2.013-0.823,2.013-1.85
		c-0.023-1.05-0.773-1.849-1.99-1.849S7.701,7.866,7.701,8.916c0,1.028,0.772,1.85,1.967,1.85L9.69,10.767L9.69,10.767z
		 M11.469,22.932V12.228H7.912v10.704H11.469z"/>
</g>
<g id="Style_3_copy_2" display="none">
	<path display="inline" fill="#25B6D2" d="M32,31.292V19.46c0-6.34-3.384-9.29-7.896-9.29c-3.641,0-5.273,2.003-6.182,3.409v-2.924
		h-6.86c0.091,1.937,0,20.637,0,20.637h6.86V19.767c0-0.615,0.044-1.232,0.226-1.672c0.495-1.233,1.624-2.509,3.518-2.509
		c2.483,0,3.475,1.892,3.475,4.666v11.041L32,31.292L32,31.292z M3.835,7.838c2.391,0,3.882-1.586,3.882-3.567
		c-0.044-2.024-1.49-3.564-3.836-3.564S0,2.246,0,4.271c0,1.981,1.489,3.567,3.792,3.567H3.835z M7.265,31.292V10.655H0.406v20.637
		H7.265z"/>
</g>
<g id="Style_3_copy" display="none">
	<g display="inline">
		<g>
			<path fill="#FFFFFF" d="M16.005,31.614c-8.615,0-15.625-7.01-15.625-15.625S7.39,0.364,16.005,0.364S31.63,7.374,31.63,15.989
				S24.62,31.614,16.005,31.614z"/>
			<path fill="#E5E5E5" d="M16.005,0.739c8.409,0,15.25,6.841,15.25,15.25s-6.841,15.25-15.25,15.25s-15.25-6.841-15.25-15.25
				S7.596,0.739,16.005,0.739 M16.005-0.011c-8.837,0-16,7.163-16,16c0,8.836,7.163,16,16,16s16-7.164,16-16
				C32.005,7.153,24.842-0.011,16.005-0.011L16.005-0.011z"/>
		</g>
	</g>
	<path display="inline" fill="#0BA4E0" d="M24.299,22.932v-6.137c0-3.288-1.755-4.818-4.096-4.818c-1.889,0-2.735,1.039-3.206,1.768
		v-1.517h-3.558c0.047,1.005,0,10.704,0,10.704h3.558v-5.978c0-0.319,0.023-0.639,0.117-0.867c0.257-0.639,0.842-1.301,1.825-1.301
		c1.288,0,1.803,0.981,1.803,2.42v5.727L24.299,22.932L24.299,22.932z M9.69,10.767c1.24,0,2.013-0.823,2.013-1.85
		c-0.023-1.05-0.773-1.849-1.99-1.849S7.701,7.866,7.701,8.916c0,1.028,0.772,1.85,1.967,1.85L9.69,10.767L9.69,10.767z
		 M11.469,22.932V12.228H7.912v10.704H11.469z"/>
</g>
<g id="Style_3_copy_3" display="none">
</g>
<g id="Style_3_copy_4" display="none">
</g>
<g id="style_4_1_">
	<g>
		
			<rect x="21.425" y="17.524" transform="matrix(0.7879 -0.6158 0.6158 0.7879 -7.8032 18.2727)" fill="#FFFFFF" width="2.4" height="5.88"/>
		<path fill="#FFFFFF" d="M22.513,24.284l-3.621-4.633c0,0-2.361-0.553-4.043-2.704c-1.681-2.151-1.647-4.576-1.647-4.576
			L9.581,7.738c0,0-3.431,4.915,1.951,11.801S22.513,24.284,22.513,24.284z"/>
		
			<rect x="12.113" y="5.612" transform="matrix(0.7879 -0.6158 0.6158 0.7879 -2.4429 10.012)" fill="#FFFFFF" width="2.4" height="5.88"/>
	</g>
</g>
</svg>
