<?xml version="1.0" encoding="utf-8"?>
<!-- Generator: Adobe Illustrator 19.0.1, SVG Export Plug-In . SVG Version: 6.00 Build 0)  -->
<svg version="1.1" xmlns="http://www.w3.org/2000/svg" xmlns:xlink="http://www.w3.org/1999/xlink" x="0px" y="0px"
	 viewBox="0 0 32 32" enable-background="new 0 0 32 32" xml:space="preserve">
<g id="Layer_6" display="none">
	<rect x="-121.667" y="-118.344" display="inline" fill="#E2E2E2" width="200" height="194.734"/>
</g>
<g id="Flat" display="none">
	<g display="inline">
		<path fill="#333333" d="M16-0.01c-8.837,0-16,7.163-16,16c0,8.836,7.163,16,16,16s16-7.164,16-16C32,7.153,24.837-0.01,16-0.01z"
			/>
		<path fill="none" stroke="#FF6666" stroke-width="0.5" stroke-miterlimit="10" d="M16,1.348c-8.086,0-14.641,6.555-14.641,14.641
			c0,8.086,6.555,14.641,14.641,14.641s14.641-6.555,14.641-14.641C30.641,7.903,24.086,1.348,16,1.348z"/>
	</g>
	<path display="inline" fill="#FFFFFF" d="M24.477,14.334c0.111,0.59,0.171,1.209,0.171,1.854c0,5.044-3.377,8.631-8.476,8.631
		c-4.878,0-8.83-3.952-8.83-8.83s3.952-8.83,8.83-8.83c2.384,0,4.376,0.877,5.905,2.301l-2.489,2.489v-0.006
		c-0.927-0.883-2.102-1.336-3.416-1.336c-2.914,0-5.281,2.461-5.281,5.375c0,2.913,2.368,5.381,5.281,5.381
		c2.644,0,4.442-1.512,4.813-3.587h-4.813v-3.444L24.477,14.334L24.477,14.334z"/>
</g>
<g id="Flat_copy">
	<g>
		<path fill="#333333" d="M16-0.01c-8.837,0-16,7.163-16,16c0,8.836,7.163,16,16,16s16-7.164,16-16C32,7.153,24.837-0.01,16-0.01z"
			/>
	</g>
	<path fill="#FFFFFF" d="M24.477,14.334c0.111,0.59,0.171,1.209,0.171,1.854c0,5.044-3.377,8.631-8.476,8.631
		c-4.878,0-8.83-3.952-8.83-8.83s3.952-8.83,8.83-8.83c2.384,0,4.376,0.877,5.905,2.301l-2.489,2.489v-0.006
		c-0.927-0.883-2.102-1.336-3.416-1.336c-2.914,0-5.281,2.461-5.281,5.375c0,2.913,2.368,5.381,5.281,5.381
		c2.644,0,4.442-1.512,4.813-3.587h-4.813v-3.444L24.477,14.334L24.477,14.334z"/>
</g>
</svg>
