<?xml version="1.0" encoding="utf-8"?>
<!-- Generator: Adobe Illustrator 19.0.1, SVG Export Plug-In . SVG Version: 6.00 Build 0)  -->
<svg version="1.1" xmlns="http://www.w3.org/2000/svg" xmlns:xlink="http://www.w3.org/1999/xlink" x="0px" y="0px"
	 viewBox="0 0 32 32" enable-background="new 0 0 32 32" xml:space="preserve">
<g id="Layer_6" display="none">
	<rect x="-121.667" y="-40.318" display="inline" fill="#E2E2E2" width="200" height="194.734"/>
</g>
<g id="Flat" display="none">
	<g display="inline">
		<path fill="#333333" d="M16,0.016c-8.837,0-16,7.163-16,16c0,8.836,7.163,16,16,16s16-7.164,16-16C32,7.179,24.837,0.016,16,0.016
			z"/>
		<path fill="none" stroke="#FF6666" stroke-width="0.5" stroke-miterlimit="10" d="M16,1.374c-8.086,0-14.641,6.555-14.641,14.641
			c0,8.086,6.555,14.641,14.641,14.641s14.641-6.555,14.641-14.641C30.641,7.929,24.086,1.374,16,1.374z"/>
	</g>
	<g display="inline">
		<circle fill="#FFFFFF" cx="10.324" cy="16.016" r="4.415"/>
		<circle fill="#FFFFFF" cx="21.676" cy="16.016" r="4.415"/>
	</g>
</g>
<g id="Flat_copy">
	<g>
		<path fill="#333333" d="M16,0.016c-8.837,0-16,7.163-16,16c0,8.836,7.163,16,16,16s16-7.164,16-16C32,7.179,24.837,0.016,16,0.016
			z"/>
	</g>
	<g>
		<circle fill="#FFFFFF" cx="10.324" cy="16.016" r="4.415"/>
		<circle fill="#FFFFFF" cx="21.676" cy="16.016" r="4.415"/>
	</g>
</g>
</svg>
