<?xml version="1.0" encoding="utf-8"?>
<!-- Generator: Adobe Illustrator 19.0.1, SVG Export Plug-In . SVG Version: 6.00 Build 0)  -->
<svg version="1.1" xmlns="http://www.w3.org/2000/svg" xmlns:xlink="http://www.w3.org/1999/xlink" x="0px" y="0px"
	 viewBox="0 0 32 32" enable-background="new 0 0 32 32" xml:space="preserve">
<g id="Layer_6" display="none">
	<rect x="-82.667" y="-157.323" display="inline" fill="#E2E2E2" width="200" height="194.734"/>
</g>
<g id="Flat" display="none">
	<g display="inline">
		<path fill="#333333" d="M16,0.01c-8.837,0-16,7.163-16,16c0,8.836,7.163,16,16,16s16-7.164,16-16C32,7.174,24.837,0.01,16,0.01z"
			/>
		<path fill="none" stroke="#FF6666" stroke-width="0.5" stroke-miterlimit="10" d="M16,1.369c-8.086,0-14.641,6.555-14.641,14.641
			c0,8.086,6.555,14.641,14.641,14.641s14.641-6.555,14.641-14.641C30.641,7.924,24.086,1.369,16,1.369z"/>
	</g>
	<g display="inline">
		<path fill="#FFFFFF" d="M14.284,15.607c0,0,1.678-0.128,1.678-2.136c0-2.007-1.138-2.996-2.878-2.996l-5.961-0.009v11.09h6.099
			c0,0,3.05,0.096,3.05-3.327C16.272,18.228,16.496,15.607,14.284,15.607z M9.341,12.129h3.05c0,0,1.044,0.017,1.044,1.37
			c0,1.402-1.044,1.402-1.044,1.402h-3.05V12.129z M12.668,19.892H9.341v-3.327h3.327c0,0,1.663,0.017,1.663,1.663
			S12.907,19.892,12.668,19.892z"/>
		<path fill="#FFFFFF" d="M20.985,13.238c-4.166,0-4.159,4.159-4.159,4.159s-0.277,4.159,4.159,4.159c0,0,3.881,0,3.881-3.327
			h-2.218c0,0,0,1.663-1.663,1.663c0,0-1.663,0-1.663-2.218c0,0,4.436,0,5.545,0C24.867,16.565,24.867,13.238,20.985,13.238z
			 M19.322,16.565c0,0-0.037-1.663,1.663-1.663c1.7,0,1.663,1.663,1.663,1.663H19.322z"/>
		<rect x="18.767" y="11.574" fill="#FFFFFF" width="4.436" height="1.109"/>
	</g>
</g>
<g id="Flat_copy">
	<g>
		<path fill="#333333" d="M16,0.01c-8.837,0-16,7.163-16,16c0,8.836,7.163,16,16,16s16-7.164,16-16C32,7.174,24.837,0.01,16,0.01z"
			/>
	</g>
	<g>
		<path fill="#FFFFFF" d="M14.284,15.607c0,0,1.678-0.128,1.678-2.136c0-2.007-1.138-2.996-2.878-2.996l-5.961-0.009v11.09h6.099
			c0,0,3.05,0.096,3.05-3.327C16.272,18.228,16.496,15.607,14.284,15.607z M9.341,12.129h3.05c0,0,1.044,0.017,1.044,1.37
			c0,1.402-1.044,1.402-1.044,1.402h-3.05V12.129z M12.668,19.892H9.341v-3.327h3.327c0,0,1.663,0.017,1.663,1.663
			S12.907,19.892,12.668,19.892z"/>
		<path fill="#FFFFFF" d="M20.985,13.238c-4.166,0-4.159,4.159-4.159,4.159s-0.277,4.159,4.159,4.159c0,0,3.881,0,3.881-3.327
			h-2.218c0,0,0,1.663-1.663,1.663c0,0-1.663,0-1.663-2.218c0,0,4.436,0,5.545,0C24.867,16.565,24.867,13.238,20.985,13.238z
			 M19.322,16.565c0,0-0.037-1.663,1.663-1.663c1.7,0,1.663,1.663,1.663,1.663H19.322z"/>
		<rect x="18.767" y="11.574" fill="#FFFFFF" width="4.436" height="1.109"/>
	</g>
</g>
</svg>
