<?xml version="1.0" encoding="utf-8"?>
<!-- Generator: Adobe Illustrator 19.0.1, SVG Export Plug-In . SVG Version: 6.00 Build 0)  -->
<svg version="1.1" xmlns="http://www.w3.org/2000/svg" xmlns:xlink="http://www.w3.org/1999/xlink" x="0px" y="0px"
	 viewBox="0 0 32 32" enable-background="new 0 0 32 32" xml:space="preserve">
<g id="Layer_6" display="none">
</g>
<g id="Flat" display="none">
	<g display="inline">
		<path fill="#E02F2F" d="M16-0.005c-8.837,0-16,7.163-16,16c0,8.836,7.163,16,16,16s16-7.164,16-16C32,7.158,24.837-0.005,16-0.005
			z"/>
		<path fill="none" stroke="#FF6666" stroke-width="0.5" stroke-miterlimit="10" d="M16,1.353c-8.086,0-14.641,6.555-14.641,14.641
			c0,8.086,6.555,14.641,14.641,14.641s14.641-6.555,14.641-14.641C30.641,7.909,24.086,1.353,16,1.353z"/>
	</g>
	<g display="inline">
		<path fill="#FFFFFF" d="M22.014,9.489c1.592,1.634,2.388,3.781,2.388,6.441c0,2.428-0.796,4.539-2.388,6.336
			c-1.592,1.797-3.608,2.696-6.049,2.696c-2.417,0-4.416-0.898-5.997-2.695c-1.581-1.797-2.37-3.909-2.37-6.337
			c0-2.661,0.779-4.807,2.336-6.441c1.557-1.633,3.567-2.45,6.031-2.45C18.405,7.038,20.422,7.855,22.014,9.489z M18.963,13.234
			c-0.069-0.723-0.209-1.429-0.418-2.118c-0.209-0.688-0.529-1.219-0.958-1.593c-0.431-0.373-0.971-0.56-1.622-0.56
			c-0.651,0-1.185,0.181-1.604,0.543c-0.418,0.362-0.726,0.893-0.924,1.593c-0.197,0.7-0.331,1.4-0.401,2.1
			c-0.069,0.7-0.105,1.552-0.105,2.555c0,0.63,0.012,1.161,0.035,1.593c0.022,0.432,0.063,0.957,0.122,1.575
			c0.058,0.618,0.151,1.138,0.279,1.558c0.128,0.42,0.301,0.835,0.523,1.243c0.221,0.408,0.505,0.718,0.854,0.928
			s0.755,0.315,1.22,0.315c0.464,0,0.877-0.105,1.238-0.315c0.36-0.21,0.65-0.519,0.872-0.928c0.221-0.408,0.401-0.822,0.541-1.242
			c0.139-0.42,0.244-0.939,0.314-1.558c0.07-0.618,0.11-1.149,0.123-1.593c0.011-0.443,0.017-0.968,0.017-1.575
			C19.068,14.798,19.033,13.958,18.963,13.234z"/>
	</g>
</g>
<g id="Flat_copy">
	<g>
		<g>
			<path fill="#FFFFFF" d="M16,31.62c-8.615,0-15.625-7.01-15.625-15.625S7.385,0.37,16,0.37s15.625,7.01,15.625,15.625
				S24.615,31.62,16,31.62z"/>
			<path fill="#E5E5E5" d="M16,0.745c8.409,0,15.25,6.841,15.25,15.25S24.409,31.245,16,31.245S0.75,24.404,0.75,15.995
				S7.591,0.745,16,0.745 M16-0.005c-8.837,0-16,7.163-16,16c0,8.836,7.163,16,16,16s16-7.164,16-16C32,7.158,24.837-0.005,16-0.005
				L16-0.005z"/>
		</g>
	</g>
	<g>
		<path fill="#333333" d="M22.014,9.489c1.592,1.634,2.388,3.781,2.388,6.441c0,2.428-0.796,4.539-2.388,6.336
			c-1.592,1.797-3.608,2.696-6.049,2.696c-2.417,0-4.416-0.898-5.997-2.695c-1.581-1.797-2.37-3.909-2.37-6.337
			c0-2.661,0.779-4.807,2.336-6.441c1.557-1.633,3.567-2.45,6.031-2.45C18.405,7.038,20.422,7.855,22.014,9.489z M18.963,13.234
			c-0.069-0.723-0.209-1.429-0.418-2.118c-0.209-0.688-0.529-1.219-0.958-1.593c-0.431-0.373-0.971-0.56-1.622-0.56
			c-0.651,0-1.185,0.181-1.604,0.543c-0.418,0.362-0.726,0.893-0.924,1.593c-0.197,0.7-0.331,1.4-0.401,2.1
			c-0.069,0.7-0.105,1.552-0.105,2.555c0,0.63,0.012,1.161,0.035,1.593c0.022,0.432,0.063,0.957,0.122,1.575
			c0.058,0.618,0.151,1.138,0.279,1.558c0.128,0.42,0.301,0.835,0.523,1.243c0.221,0.408,0.505,0.718,0.854,0.928
			s0.755,0.315,1.22,0.315c0.464,0,0.877-0.105,1.238-0.315c0.36-0.21,0.65-0.519,0.872-0.928c0.221-0.408,0.401-0.822,0.541-1.242
			c0.139-0.42,0.244-0.939,0.314-1.558c0.07-0.618,0.11-1.149,0.123-1.593c0.011-0.443,0.017-0.968,0.017-1.575
			C19.068,14.798,19.033,13.958,18.963,13.234z"/>
	</g>
</g>
</svg>
