<?xml version="1.0" encoding="utf-8"?>
<!-- Generator: Adobe Illustrator 19.0.1, SVG Export Plug-In . SVG Version: 6.00 Build 0)  -->
<svg version="1.1" xmlns="http://www.w3.org/2000/svg" xmlns:xlink="http://www.w3.org/1999/xlink" x="0px" y="0px"
	 viewBox="0 0 32 32" enable-background="new 0 0 32 32" xml:space="preserve">
<g id="Layer_6" display="none">
	<rect x="-82.672" y="-118.318" display="inline" fill="#E2E2E2" width="200" height="194.734"/>
</g>
<g id="Flat" display="none">
	<g display="inline">
		<path fill="#333333" d="M15.995,0.016c-8.837,0-16,7.163-16,16c0,8.836,7.163,16,16,16s16-7.164,16-16
			C31.995,7.179,24.831,0.016,15.995,0.016z"/>
		<path fill="none" stroke="#FF6666" stroke-width="0.5" stroke-miterlimit="10" d="M15.995,1.374
			c-8.086,0-14.641,6.555-14.641,14.641c0,8.086,6.555,14.641,14.641,14.641s14.641-6.555,14.641-14.641
			C30.636,7.929,24.081,1.374,15.995,1.374z"/>
	</g>
	<path display="inline" fill="#FFFFFF" d="M13.099,23.179l0.784-3.334c0,0,0.243-0.952,1.292-0.952c1.047,0,8.298,0.277,9.904-4.842
		c0.589-1.871,0.997-6.31-6.324-6.31h-5.287c0,0-1.1-0.05-1.371,1.09L8.64,23.378c0,0-0.148,0.912,0.797,0.912
		c0.946,0,2.36,0,2.36,0S12.886,24.349,13.099,23.179z M15.093,14.717l0.702-2.957c0,0,0.224-0.804,0.946-0.922
		c0.722-0.12,1.951,0.02,2.268,0.079c2.054,0.376,1.617,2.272,1.617,2.272c-0.407,2.926-5.075,2.519-5.075,2.519
		C14.818,15.451,15.093,14.717,15.093,14.717z"/>
</g>
<g id="Flat_copy">
	<g>
		<path fill="#333333" d="M15.995,0.016c-8.837,0-16,7.163-16,16c0,8.836,7.163,16,16,16s16-7.164,16-16
			C31.995,7.179,24.831,0.016,15.995,0.016z"/>
	</g>
	<path fill="#FFFFFF" d="M13.099,23.179l0.784-3.334c0,0,0.243-0.952,1.292-0.952c1.047,0,8.298,0.277,9.904-4.842
		c0.589-1.871,0.997-6.31-6.324-6.31h-5.287c0,0-1.1-0.05-1.371,1.09L8.64,23.378c0,0-0.148,0.912,0.797,0.912
		c0.946,0,2.36,0,2.36,0S12.886,24.349,13.099,23.179z M15.093,14.717l0.702-2.957c0,0,0.224-0.804,0.946-0.922
		c0.722-0.12,1.951,0.02,2.268,0.079c2.054,0.376,1.617,2.272,1.617,2.272c-0.407,2.926-5.075,2.519-5.075,2.519
		C14.818,15.451,15.093,14.717,15.093,14.717z"/>
</g>
</svg>
