<?xml version="1.0" encoding="utf-8"?>
<!-- Generator: Adobe Illustrator 19.0.1, SVG Export Plug-In . SVG Version: 6.00 Build 0)  -->
<svg version="1.1" xmlns="http://www.w3.org/2000/svg" xmlns:xlink="http://www.w3.org/1999/xlink" x="0px" y="0px"
	 viewBox="0 0 32 32" enable-background="new 0 0 32 32" xml:space="preserve">
<g id="Layer_6" display="none">
</g>
<g id="Flat" display="none">
	<g display="inline">
		<path fill="#E02F2F" d="M15.995,0c-8.837,0-16,7.163-16,16c0,8.836,7.163,16,16,16s16-7.164,16-16C31.995,7.163,24.831,0,15.995,0
			z"/>
		<path fill="none" stroke="#FF6666" stroke-width="0.5" stroke-miterlimit="10" d="M15.995,1.359C7.909,1.359,1.353,7.914,1.353,16
			c0,8.086,6.555,14.641,14.641,14.641S30.636,24.086,30.636,16C30.636,7.914,24.081,1.359,15.995,1.359z"/>
	</g>
	<path display="inline" fill="#FFFFFF" d="M13.099,23.163l0.784-3.334c0,0,0.243-0.952,1.292-0.952c1.047,0,8.298,0.277,9.904-4.842
		c0.589-1.871,0.997-6.31-6.324-6.31h-5.287c0,0-1.1-0.05-1.371,1.09L8.64,23.362c0,0-0.148,0.912,0.797,0.912
		c0.946,0,2.36,0,2.36,0S12.886,24.333,13.099,23.163z M15.093,14.702l0.702-2.957c0,0,0.224-0.804,0.946-0.922
		c0.722-0.12,1.951,0.02,2.268,0.079c2.054,0.376,1.617,2.272,1.617,2.272c-0.407,2.926-5.075,2.519-5.075,2.519
		C14.818,15.435,15.093,14.702,15.093,14.702z"/>
</g>
<g id="Flat_copy">
	<g>
		<g>
			<path fill="#FFFFFF" d="M15.995,31.625C7.38,31.625,0.37,24.615,0.37,16S7.38,0.375,15.995,0.375S31.62,7.385,31.62,16
				S24.61,31.625,15.995,31.625z"/>
			<path fill="#E5E5E5" d="M15.995,0.75c8.409,0,15.25,6.841,15.25,15.25s-6.841,15.25-15.25,15.25S0.745,24.409,0.745,16
				S7.586,0.75,15.995,0.75 M15.995,0c-8.837,0-16,7.163-16,16c0,8.836,7.163,16,16,16s16-7.164,16-16
				C31.995,7.163,24.831,0,15.995,0L15.995,0z"/>
		</g>
	</g>
	<path fill="#333333" d="M13.099,23.163l0.784-3.334c0,0,0.243-0.952,1.292-0.952c1.047,0,8.298,0.277,9.904-4.842
		c0.589-1.871,0.997-6.31-6.324-6.31h-5.287c0,0-1.1-0.05-1.371,1.09L8.64,23.362c0,0-0.148,0.912,0.797,0.912
		c0.946,0,2.36,0,2.36,0S12.886,24.333,13.099,23.163z M15.093,14.702l0.702-2.957c0,0,0.224-0.804,0.946-0.922
		c0.722-0.12,1.951,0.02,2.268,0.079c2.054,0.376,1.617,2.272,1.617,2.272c-0.407,2.926-5.075,2.519-5.075,2.519
		C14.818,15.435,15.093,14.702,15.093,14.702z"/>
</g>
</svg>
