<?xml version="1.0" encoding="utf-8"?>
<!-- Generator: Adobe Illustrator 19.2.1, SVG Export Plug-In . SVG Version: 6.00 Build 0)  -->
<svg version="1.1" xmlns="http://www.w3.org/2000/svg" xmlns:xlink="http://www.w3.org/1999/xlink" x="0px" y="0px"
	 viewBox="0 0 32 32" enable-background="new 0 0 32 32" xml:space="preserve">
<g id="Layer_6" display="none">
	<rect x="-96.198" y="-1.333" display="inline" fill="#E2E2E2" width="415.531" height="194.734"/>
</g>
<g id="Style_2_copy_3">
	<g>
		<g>
			<path fill="#FFFFFF" d="M16,31.625c-8.615,0-15.625-7.01-15.625-15.625C0.375,7.384,7.385,0.375,16,0.375S31.625,7.384,31.625,16
				C31.625,24.615,24.615,31.625,16,31.625z"/>
			<path fill="#E5E5E5" d="M16,0.75c8.409,0,15.25,6.841,15.25,15.25S24.409,31.25,16,31.25S0.75,24.409,0.75,16S7.591,0.75,16,0.75
				 M16,0C7.163,0,0,7.163,0,16c0,8.836,7.163,16,16,16s16-7.164,16-16C32,7.163,24.837,0,16,0L16,0z"/>
		</g>
	</g>
	<g>
		<path fill-rule="evenodd" clip-rule="evenodd" fill="#333333" d="M18.291,5.618c-1.307,0.607-5.07,3.514-7.096,5.039
			c2.467-0.822,8.392-2.136,11.429-2.207C21.675,7.781,19.011,5.97,18.291,5.618z M6.46,24.382
			c0.836-0.368,8.761-3.006,16.048-3.442c0.157-0.614,0.955-2.675,1.102-3.234c-7.56,0.539-13.708,2.798-16.178,3.94L6.46,24.382z
			 M23.19,8.846c0,0-7.355,7.389-8.508,8.45c2.238-0.809,6.82-1.771,9.73-1.945c0.338-1.03,0.696-1.777,0.696-1.777L29,13.185
			C29,13.185,26.042,10.794,23.19,8.846z M7.722,20.851c2.316-2.385,10.651-10.078,10.651-10.078
			c-4.336,1.013-8.863,2.388-10.48,3.125L5.46,16.399c2.033-0.433,2.688-0.519,4.176-0.737L7.722,20.851z"/>
	</g>
</g>
</svg>
