<?xml version="1.0" encoding="utf-8"?>
<!-- Generator: Adobe Illustrator 19.2.1, SVG Export Plug-In . SVG Version: 6.00 Build 0)  -->
<svg version="1.1" xmlns="http://www.w3.org/2000/svg" xmlns:xlink="http://www.w3.org/1999/xlink" x="0px" y="0px"
	 viewBox="0 0 64 64" enable-background="new 0 0 64 64" xml:space="preserve">
<g id="Layer_4_copy_8" display="none">
	<g display="inline">
		<path d="M26.352,36.768h3.238v1.321c0,2.965,0.902,4.593,2.756,4.593c1.578,0,2.368-0.822,2.368-2.369
			c0-1.225-0.403-2.562-1.934-4.512l-4.237-5.462c-1.531-1.965-2.434-3.834-2.434-6.268c0-3.238,1.885-5.623,5.092-6.123v-3.674
			h2.997v3.706c3.528,0.612,4.673,3.255,4.673,5.688c0,1.176-0.209,2.094-0.436,3.287h-3.223v-1.322c0-2.9-0.967-4.527-2.69-4.527
			c-1.563,0-2.385,0.951-2.385,2.4c0,1.241,0.563,2.208,1.37,3.271l4.753,6.155C38.033,35.236,39,37.139,39,39.668
			c0,3.19-1.837,5.382-4.785,5.994v4.045h-2.998v-3.916c-4.061-0.402-5.285-3.078-5.285-5.769
			C25.932,38.846,26.077,37.912,26.352,36.768z"/>
	</g>
</g>
<g id="Layer_4_copy_9" display="none">
	<g display="inline">
		<g>
			<path fill="#333333" d="M32,0C14.327,0,0,14.327,0,32c0,17.673,14.327,32,32,32s32-14.327,32-32C64,14.327,49.673,0,32,0z"/>
		</g>
	</g>
	
		<text transform="matrix(1 0 0 1 22.1572 46.1117)" display="inline" fill="#FFFFFF" font-family="'MyriadPro-Bold'" font-size="44.5052px">?</text>
</g>
<g id="Layer_3">
	<g>
		<g>
			<path fill="#333333" d="M32,0C14.327,0,0,14.327,0,32c0,17.673,14.327,32,32,32s32-14.327,32-32C64,14.327,49.673,0,32,0z"/>
		</g>
	</g>
	<g id="Xing">
		<path fill="#FFFFFF" d="M24.933,21.213H17.47l4.41,7.793L16,38.72h7.462l5.879-9.713L24.933,21.213z M40.084,15l-11.76,20.671
			L35.901,49h7.917L36.24,35.671L48,15H40.084L40.084,15z"/>
	</g>
</g>
</svg>
