<?xml version="1.0" encoding="utf-8"?>
<!-- Generator: Adobe Illustrator 19.2.1, SVG Export Plug-In . SVG Version: 6.00 Build 0)  -->
<svg version="1.1" xmlns="http://www.w3.org/2000/svg" xmlns:xlink="http://www.w3.org/1999/xlink" x="0px" y="0px"
	 viewBox="0 0 64 64" enable-background="new 0 0 64 64" xml:space="preserve">
<g id="Layer_4_copy_8" display="none">
	<g display="inline">
		<path d="M28.644,20.567c1.92,0,3.702,0.789,5.016,2.221l1.089,1.187l1.591-0.252c0.185-0.029,0.375-0.044,0.562-0.044
			c1.57,0,3.074,1.052,3.656,2.558l0.664,1.717l1.831,0.185c3.405,0.345,5.973,3.195,5.973,6.63c0,3.676-2.99,6.666-6.666,6.666
			H21.638c-3.675,0-6.665-2.99-6.665-6.666c0-2.945,1.998-5.568,4.86-6.378l1.773-0.502l0.354-1.808
			C22.586,22.885,25.397,20.567,28.644,20.567 M28.644,17.567c-4.701,0-8.733,3.369-9.628,7.936
			c-4.117,1.165-7.043,4.964-7.043,9.264c0,5.33,4.336,9.666,9.665,9.666h20.723c5.33,0,9.666-4.336,9.666-9.666
			c0-5.012-3.76-9.118-8.671-9.615c-1.035-2.675-3.641-4.475-6.454-4.475c-0.342,0-0.686,0.027-1.032,0.081
			C34.002,18.723,31.399,17.567,28.644,17.567L28.644,17.567z"/>
	</g>
</g>
<g id="Layer_4_copy_9" display="none">
	<g display="inline">
		<g>
			<path fill="#333333" d="M32,0C14.327,0,0,14.327,0,32c0,17.673,14.327,32,32,32s32-14.327,32-32C64,14.327,49.673,0,32,0z"/>
		</g>
	</g>
	
		<text transform="matrix(1 0 0 1 12.0166 45.3864)" display="inline" fill="#FFFFFF" font-family="'MyriadPro-Bold'" font-size="42.052px">%</text>
</g>
<g id="Layer_3">
	<g>
		<g>
			<g>
				<path fill="#333333" d="M32,0C14.327,0,0,14.327,0,32c0,17.673,14.327,32,32,32s32-14.327,32-32C64,14.327,49.673,0,32,0z"/>
			</g>
		</g>
		<g>
			<path fill="#FFFFFF" d="M49.939,29.645c-0.788,0-1.538,0.158-2.224,0.441c-0.433-5.203-4.785-9.292-10.099-9.292
				c-1.639,0-3.174,0.408-4.543,1.1V41.33h16.848c0.006,0,0.012,0.001,0.018,0.001c3.227,0,5.843-2.616,5.843-5.843
				C55.782,32.261,53.166,29.645,49.939,29.645z"/>
			<g>
				<defs>
					<path id="SVGID_1_" d="M32.376,22.264c-1.459,0.886-2.68,2.125-3.537,3.605c-1.338-1.096-3.048-1.755-4.913-1.755
						c-3.682,0-6.759,2.569-7.552,6.01c-0.71-0.306-1.491-0.478-2.313-0.478c-3.227,0-5.843,2.616-5.843,5.843
						c0,3.199,2.571,5.793,5.759,5.839v0.003h0.066c0.006,0,0.012,0.001,0.018,0.001s0.012-0.001,0.018-0.001h18.296V22.264z"/>
				</defs>
				<clipPath id="SVGID_2_">
					<use xlink:href="#SVGID_1_"  overflow="visible"/>
				</clipPath>
				
					<line clip-path="url(#SVGID_2_)" fill="none" stroke="#FFFFFF" stroke-width="1.5" stroke-miterlimit="10" x1="30.739" y1="20.76" x2="30.739" y2="43.878"/>
				
					<line clip-path="url(#SVGID_2_)" fill="none" stroke="#FFFFFF" stroke-width="1.5" stroke-miterlimit="10" x1="27.624" y1="20.793" x2="27.624" y2="43.911"/>
				
					<line clip-path="url(#SVGID_2_)" fill="none" stroke="#FFFFFF" stroke-width="1.5" stroke-miterlimit="10" x1="24.51" y1="20.793" x2="24.51" y2="43.911"/>
				
					<line clip-path="url(#SVGID_2_)" fill="none" stroke="#FFFFFF" stroke-width="1.5" stroke-miterlimit="10" x1="21.396" y1="20.793" x2="21.396" y2="43.911"/>
				
					<line clip-path="url(#SVGID_2_)" fill="none" stroke="#FFFFFF" stroke-width="1.5" stroke-miterlimit="10" x1="18.281" y1="20.793" x2="18.281" y2="43.911"/>
				
					<line clip-path="url(#SVGID_2_)" fill="none" stroke="#FFFFFF" stroke-width="1.5" stroke-miterlimit="10" x1="15.167" y1="20.793" x2="15.167" y2="43.911"/>
				
					<line clip-path="url(#SVGID_2_)" fill="none" stroke="#FFFFFF" stroke-width="1.5" stroke-miterlimit="10" x1="12.053" y1="20.793" x2="12.053" y2="43.911"/>
				
					<line clip-path="url(#SVGID_2_)" fill="none" stroke="#FFFFFF" stroke-width="1.5" stroke-miterlimit="10" x1="8.939" y1="20.793" x2="8.939" y2="43.911"/>
			</g>
		</g>
	</g>
</g>
</svg>
