<?xml version="1.0" encoding="utf-8"?>
<!-- Generator: Adobe Illustrator 19.0.1, SVG Export Plug-In . SVG Version: 6.00 Build 0)  -->
<svg version="1.1" xmlns="http://www.w3.org/2000/svg" xmlns:xlink="http://www.w3.org/1999/xlink" x="0px" y="0px"
	 viewBox="0 0 32 32" enable-background="new 0 0 32 32" xml:space="preserve">
<g id="Layer_6" display="none">
</g>
<g id="Flat" display="none">
	<g display="inline">
		<path fill="#E02F2F" d="M16,0C7.163,0,0,7.163,0,16c0,8.836,7.163,16,16,16s16-7.164,16-16C32,7.163,24.837,0,16,0z"/>
		<path fill="none" stroke="#FF6666" stroke-width="0.5" stroke-miterlimit="10" d="M16,1.359C7.914,1.359,1.359,7.914,1.359,16
			c0,8.086,6.555,14.641,14.641,14.641S30.641,24.086,30.641,16C30.641,7.914,24.086,1.359,16,1.359z"/>
	</g>
	<path display="inline" fill="#FFFFFF" d="M7.659,14.357c0,0,1.521-1.199,2.028-0.6c0.507,0.6,2.442,7.836,3.088,9.171
		c0.564,1.171,2.119,2.718,3.824,1.613c1.705-1.105,7.373-5.945,8.388-11.66c1.014-5.714-6.821-4.517-7.651,0.461
		c2.075-1.245,3.182,0.506,2.12,2.489c-1.06,1.981-2.028,3.273-2.535,3.273c-0.506,0-0.895-1.326-1.475-3.643
		c-0.599-2.395-0.596-6.71-3.087-6.221c-2.35,0.461-5.438,4.149-5.438,4.149L7.659,14.357z"/>
</g>
<g id="Flat_copy">
	<g>
		<g>
			<path fill="#FFFFFF" d="M16,31.625c-8.615,0-15.625-7.01-15.625-15.625S7.385,0.375,16,0.375S31.625,7.385,31.625,16
				S24.615,31.625,16,31.625z"/>
			<path fill="#E5E5E5" d="M16,0.75c8.409,0,15.25,6.841,15.25,15.25S24.409,31.25,16,31.25S0.75,24.409,0.75,16S7.591,0.75,16,0.75
				 M16,0C7.163,0,0,7.163,0,16c0,8.836,7.163,16,16,16s16-7.164,16-16C32,7.163,24.837,0,16,0L16,0z"/>
		</g>
	</g>
	<path fill="#333333" d="M7.659,14.357c0,0,1.521-1.199,2.028-0.6c0.507,0.6,2.442,7.836,3.088,9.171
		c0.564,1.171,2.119,2.718,3.824,1.613c1.705-1.105,7.373-5.945,8.388-11.66c1.014-5.714-6.821-4.517-7.651,0.461
		c2.075-1.245,3.182,0.506,2.12,2.489c-1.06,1.981-2.028,3.273-2.535,3.273c-0.506,0-0.895-1.326-1.475-3.643
		c-0.599-2.395-0.596-6.71-3.087-6.221c-2.35,0.461-5.438,4.149-5.438,4.149L7.659,14.357z"/>
</g>
</svg>
