<?xml version="1.0" encoding="utf-8"?>
<!-- Generator: Adobe Illustrator 19.0.1, SVG Export Plug-In . SVG Version: 6.00 Build 0)  -->
<svg version="1.1" xmlns="http://www.w3.org/2000/svg" xmlns:xlink="http://www.w3.org/1999/xlink" x="0px" y="0px"
	 viewBox="0 0 32 32" enable-background="new 0 0 32 32" xml:space="preserve">
<g id="Layer_6" display="none">
</g>
<g id="Flat" display="none">
	<g display="inline">
		<path fill="#E02F2F" d="M16,0C7.163,0,0,7.163,0,16c0,8.836,7.163,16,16,16s16-7.164,16-16C32,7.163,24.837,0,16,0z"/>
		<path fill="none" stroke="#FF6666" stroke-width="0.5" stroke-miterlimit="10" d="M16,1.359C7.914,1.359,1.359,7.914,1.359,16
			c0,8.086,6.555,14.641,14.641,14.641S30.641,24.086,30.641,16C30.641,7.914,24.086,1.359,16,1.359z"/>
	</g>
	<path display="inline" fill="#FFFFFF" d="M18.76,10.36c0-1.424,2.862-2.162,2.862,0.246c-0.008,1.322-0.19,2.542-0.481,3.659h2.975
		c0.226-1.348,0.217-2.681,0.217-4.251c0-4.421-8.333-5.158-8.333,0.444c0,3.933,1.893,6.003,3.873,7.093
		C18.224,20.721,16,22.448,16,22.448c-6.224-4.963-5.622-13.365-5.622-13.365H7.667c0.051,11.351,6.176,15.33,6.929,15.921
		c0.752,0.591,0.903,0.541,1.807,0.491c0.902-0.049,2.959-2.065,5.47-5.895c0.242-0.371,0.46-0.726,0.657-1.071
		c1.051,0.23,1.802,0.235,1.802,0.235v-2.408C19.061,15.863,18.76,11.442,18.76,10.36z"/>
</g>
<g id="Flat_copy">
	<g>
		<g>
			<path fill="#FFFFFF" d="M16,31.625c-8.615,0-15.625-7.01-15.625-15.625S7.385,0.375,16,0.375S31.625,7.385,31.625,16
				S24.615,31.625,16,31.625z"/>
			<path fill="#E5E5E5" d="M16,0.75c8.409,0,15.25,6.841,15.25,15.25S24.409,31.25,16,31.25S0.75,24.409,0.75,16S7.591,0.75,16,0.75
				 M16,0C7.163,0,0,7.163,0,16c0,8.836,7.163,16,16,16s16-7.164,16-16C32,7.163,24.837,0,16,0L16,0z"/>
		</g>
	</g>
	<path fill="#333333" d="M18.76,10.36c0-1.424,2.862-2.162,2.862,0.246c-0.008,1.322-0.19,2.542-0.481,3.659h2.975
		c0.226-1.348,0.217-2.681,0.217-4.251c0-4.421-8.333-5.158-8.333,0.444c0,3.933,1.893,6.003,3.873,7.093
		C18.224,20.721,16,22.448,16,22.448c-6.224-4.963-5.622-13.365-5.622-13.365H7.667c0.051,11.351,6.176,15.33,6.929,15.921
		c0.752,0.591,0.903,0.541,1.807,0.491c0.902-0.049,2.959-2.065,5.47-5.895c0.242-0.371,0.46-0.726,0.657-1.071
		c1.051,0.23,1.802,0.235,1.802,0.235v-2.408C19.061,15.863,18.76,11.442,18.76,10.36z"/>
</g>
</svg>
