<?xml version="1.0" encoding="utf-8"?>
<!-- Generator: Adobe Illustrator 19.0.1, SVG Export Plug-In . SVG Version: 6.00 Build 0)  -->
<svg version="1.1" xmlns="http://www.w3.org/2000/svg" xmlns:xlink="http://www.w3.org/1999/xlink" x="0px" y="0px"
	 viewBox="0 0 32 32" enable-background="new 0 0 32 32" xml:space="preserve">
<g id="Layer_6" display="none">
	<rect x="-43.661" y="-157.333" display="inline" fill="#E2E2E2" width="200" height="194.734"/>
</g>
<g id="Flat" display="none">
	<g display="inline">
		<path fill="#333333" d="M16.005,0c-8.837,0-16,7.163-16,16c0,8.836,7.163,16,16,16s16-7.164,16-16C32.005,7.163,24.842,0,16.005,0
			z"/>
		<path fill="none" stroke="#FF6666" stroke-width="0.5" stroke-miterlimit="10" d="M16.005,1.359C7.919,1.359,1.364,7.914,1.364,16
			c0,8.086,6.555,14.641,14.641,14.641S30.647,24.086,30.647,16C30.647,7.914,24.091,1.359,16.005,1.359z"/>
	</g>
	<g display="inline">
		<polygon fill="#FFFFFF" points="14.474,8.903 23.417,7.588 23.417,15.479 14.474,15.479 		"/>
		<polygon fill="#FFFFFF" points="6.583,10.062 13.422,9.059 13.422,15.479 6.583,15.479 		"/>
		<polygon fill="#FFFFFF" points="14.474,23.107 23.417,24.422 23.417,16.531 14.474,16.531 		"/>
		<polygon fill="#FFFFFF" points="6.583,21.948 13.422,22.951 13.422,16.531 6.583,16.531 		"/>
	</g>
</g>
<g id="Flat_copy">
	<g>
		<path fill="#333333" d="M16.005,0c-8.837,0-16,7.163-16,16c0,8.836,7.163,16,16,16s16-7.164,16-16C32.005,7.163,24.842,0,16.005,0
			z"/>
	</g>
	<g>
		<polygon fill="#FFFFFF" points="14.474,8.903 23.417,7.588 23.417,15.479 14.474,15.479 		"/>
		<polygon fill="#FFFFFF" points="6.583,10.062 13.422,9.059 13.422,15.479 6.583,15.479 		"/>
		<polygon fill="#FFFFFF" points="14.474,23.107 23.417,24.422 23.417,16.531 14.474,16.531 		"/>
		<polygon fill="#FFFFFF" points="6.583,21.948 13.422,22.951 13.422,16.531 6.583,16.531 		"/>
	</g>
</g>
</svg>
