<?xml version="1.0" encoding="utf-8"?>
<!-- Generator: Adobe Illustrator 19.0.1, SVG Export Plug-In . SVG Version: 6.00 Build 0)  -->
<svg version="1.1" xmlns="http://www.w3.org/2000/svg" xmlns:xlink="http://www.w3.org/1999/xlink" x="0px" y="0px"
	 viewBox="0 0 32 32" enable-background="new 0 0 32 32" xml:space="preserve">
<g id="Layer_6" display="none">
</g>
<g id="Flat" display="none">
	<g display="inline">
		<path fill="#E02F2F" d="M16.005-0.005c-8.837,0-16,7.163-16,16c0,8.836,7.163,16,16,16s16-7.164,16-16
			C32.005,7.158,24.842-0.005,16.005-0.005z"/>
		<path fill="none" stroke="#FF6666" stroke-width="0.5" stroke-miterlimit="10" d="M16.005,1.353
			c-8.086,0-14.641,6.555-14.641,14.641c0,8.086,6.555,14.641,14.641,14.641s14.641-6.555,14.641-14.641
			C30.647,7.909,24.091,1.353,16.005,1.353z"/>
	</g>
	<g display="inline">
		<polygon fill="#FFFFFF" points="14.474,8.898 23.417,7.583 23.417,15.474 14.474,15.474 		"/>
		<polygon fill="#FFFFFF" points="6.583,10.057 13.422,9.054 13.422,15.474 6.583,15.474 		"/>
		<polygon fill="#FFFFFF" points="14.474,23.102 23.417,24.417 23.417,16.526 14.474,16.526 		"/>
		<polygon fill="#FFFFFF" points="6.583,21.943 13.422,22.946 13.422,16.526 6.583,16.526 		"/>
	</g>
</g>
<g id="Flat_copy">
	<g>
		<g>
			<path fill="#FFFFFF" d="M16.005,31.62C7.39,31.62,0.38,24.61,0.38,15.995S7.39,0.37,16.005,0.37S31.63,7.38,31.63,15.995
				S24.62,31.62,16.005,31.62z"/>
			<path fill="#E5E5E5" d="M16.005,0.745c8.409,0,15.25,6.841,15.25,15.25s-6.841,15.25-15.25,15.25s-15.25-6.841-15.25-15.25
				S7.596,0.745,16.005,0.745 M16.005-0.005c-8.837,0-16,7.163-16,16c0,8.836,7.163,16,16,16s16-7.164,16-16
				C32.005,7.158,24.842-0.005,16.005-0.005L16.005-0.005z"/>
		</g>
	</g>
	<g>
		<polygon fill="#333333" points="14.474,8.898 23.417,7.583 23.417,15.474 14.474,15.474 		"/>
		<polygon fill="#333333" points="6.583,10.057 13.422,9.054 13.422,15.474 6.583,15.474 		"/>
		<polygon fill="#333333" points="14.474,23.102 23.417,24.417 23.417,16.526 14.474,16.526 		"/>
		<polygon fill="#333333" points="6.583,21.943 13.422,22.946 13.422,16.526 6.583,16.526 		"/>
	</g>
</g>
</svg>
