<?xml version="1.0" encoding="utf-8"?>
<!-- Generator: Adobe Illustrator 19.2.1, SVG Export Plug-In . SVG Version: 6.00 Build 0)  -->
<svg version="1.1" xmlns="http://www.w3.org/2000/svg" xmlns:xlink="http://www.w3.org/1999/xlink" x="0px" y="0px"
	 viewBox="0 0 32 32" enable-background="new 0 0 32 32" xml:space="preserve">
<g id="Layer_6" display="none">
	<rect x="-174.198" y="-1.333" display="inline" fill="#E2E2E2" width="415.531" height="194.734"/>
</g>
<g id="Style_1" display="none">
	<g display="inline">
		<path fill="#E02F2F" d="M16,0C7.163,0,0,7.163,0,16c0,8.836,7.163,16,16,16s16-7.164,16-16C32,7.163,24.837,0,16,0z"/>
		<path fill="none" stroke="#FF6666" stroke-width="0.5" stroke-miterlimit="10" d="M16,1.359C7.914,1.359,1.359,7.914,1.359,16
			c0,8.086,6.555,14.641,14.641,14.641S30.641,24.086,30.641,16C30.641,7.914,24.086,1.359,16,1.359z"/>
	</g>
	<path display="inline" fill="#FFFFFF" d="M20.244,22.441l1.796-1.077v0.98l-6.054,3.927l-5.92-3.955v-0.923l1.771,1.049
		l0.197,0.116l0.182-0.139l3.824-2.935l3.823,2.935l0.183,0.139L20.244,22.441z M16.053,11.367l5.822,3.345L16,18.604l-5.839-3.678
		L16.053,11.367z M26.163,11.562l-5.998-3.833l-4.124,3.458l-4.031-3.458L5.837,11.75l4.25,3.233l-4.25,3.233l4.229,2.505
		l1.944,1.15l4.031-3.093l4.03,3.093l1.97-1.182l4.123-2.473l-3.936-3.375L26.163,11.562z"/>
</g>
<g id="Style_1_copy" display="none">
	<path display="inline" fill="#FFFFFF" d="M20.244,22.441l1.796-1.077v0.98l-6.054,3.927l-5.92-3.955v-0.923l1.771,1.049
		l0.197,0.116l0.182-0.139l3.824-2.935l3.823,2.935l0.183,0.139L20.244,22.441z M16.053,11.367l5.822,3.345L16,18.604l-5.839-3.678
		L16.053,11.367z M26.163,11.562l-5.998-3.833l-4.124,3.458l-4.031-3.458L5.837,11.75l4.25,3.233l-4.25,3.233l4.229,2.505
		l1.944,1.15l4.031-3.093l4.03,3.093l1.97-1.182l4.123-2.473l-3.936-3.375L26.163,11.562z"/>
</g>
<g id="Style_2" display="none">
	<g display="inline">
		<g>
			<path fill="#FFFFFF" d="M16,31.625c-8.615,0-15.625-7.01-15.625-15.625C0.375,7.384,7.385,0.375,16,0.375S31.625,7.384,31.625,16
				C31.625,24.615,24.615,31.625,16,31.625z"/>
			<path fill="#E5E5E5" d="M16,0.75c8.409,0,15.25,6.841,15.25,15.25S24.409,31.25,16,31.25S0.75,24.409,0.75,16S7.591,0.75,16,0.75
				 M16,0C7.163,0,0,7.163,0,16c0,8.836,7.163,16,16,16s16-7.164,16-16C32,7.163,24.837,0,16,0L16,0z"/>
		</g>
	</g>
	<path display="inline" fill="#333333" d="M20.244,22.441l1.796-1.077v0.98l-6.054,3.927l-5.92-3.955v-0.923l1.771,1.049
		l0.197,0.116l0.182-0.139l3.824-2.935l3.823,2.935l0.183,0.139L20.244,22.441z M16.053,11.367l5.822,3.345L16,18.604l-5.839-3.678
		L16.053,11.367z M26.163,11.562l-5.998-3.833l-4.124,3.458l-4.031-3.458L5.837,11.75l4.25,3.233l-4.25,3.233l4.229,2.505
		l1.944,1.15l4.031-3.093l4.03,3.093l1.97-1.182l4.123-2.473l-3.936-3.375L26.163,11.562z"/>
</g>
<g id="Style_2_copy_3">
	<g>
		<g>
			<g>
				<path fill="#FFFFFF" d="M16,31.625c-8.615,0-15.625-7.01-15.625-15.625C0.375,7.384,7.385,0.375,16,0.375
					S31.625,7.384,31.625,16C31.625,24.615,24.615,31.625,16,31.625z"/>
				<path fill="#E5E5E5" d="M16,0.75c8.409,0,15.25,6.841,15.25,15.25S24.409,31.25,16,31.25S0.75,24.409,0.75,16
					S7.591,0.75,16,0.75 M16,0C7.163,0,0,7.163,0,16c0,8.836,7.163,16,16,16s16-7.164,16-16C32,7.163,24.837,0,16,0L16,0z"/>
			</g>
		</g>
		<g>
			<path fill="#333333" d="M4.905,13.267l0.436,2.236c0.111,0.57,0.223,1.174,0.313,1.8h0.022c0.112-0.626,0.269-1.252,0.402-1.789
				l0.582-2.247h1.342l0.547,2.18c0.146,0.615,0.291,1.23,0.403,1.856h0.022c0.078-0.626,0.19-1.241,0.313-1.867l0.47-2.169h1.666
				l-1.678,5.467H8.147L7.632,16.81c-0.134-0.537-0.235-1.029-0.346-1.699H7.264c-0.101,0.682-0.212,1.185-0.358,1.699l-0.548,1.923
				H4.76l-1.588-5.467H4.905z"/>
			<path fill="#333333" d="M13.608,13.267l0.436,2.236c0.111,0.57,0.223,1.174,0.313,1.8h0.022c0.112-0.626,0.269-1.252,0.402-1.789
				l0.582-2.247h1.342l0.547,2.18c0.146,0.615,0.291,1.23,0.403,1.856h0.022c0.078-0.626,0.19-1.241,0.313-1.867l0.47-2.169h1.666
				l-1.678,5.467h-1.598l-0.514-1.923c-0.134-0.537-0.235-1.029-0.346-1.699h-0.023c-0.101,0.682-0.212,1.185-0.358,1.699
				l-0.548,1.923h-1.598l-1.588-5.467H13.608z"/>
			<path fill="#333333" d="M22.31,13.267l0.436,2.236c0.111,0.57,0.223,1.174,0.313,1.8h0.022c0.112-0.626,0.269-1.252,0.402-1.789
				l0.582-2.247h1.342l0.547,2.18c0.146,0.615,0.291,1.23,0.403,1.856h0.022c0.078-0.626,0.19-1.241,0.313-1.867l0.47-2.169h1.666
				l-1.678,5.467h-1.598l-0.514-1.923c-0.134-0.537-0.235-1.029-0.346-1.699h-0.023c-0.101,0.682-0.212,1.185-0.358,1.699
				l-0.548,1.923h-1.598l-1.588-5.467H22.31z"/>
		</g>
	</g>
</g>
<g id="Style_2_copy" display="none">
	<g display="inline">
		<g>
			<path fill="#FFFFFF" d="M16,31.25C7.591,31.25,0.75,24.409,0.75,16C0.75,7.591,7.591,0.75,16,0.75S31.25,7.591,31.25,16
				C31.25,24.409,24.409,31.25,16,31.25z"/>
			<path fill="#FF0000" d="M16,1.5c7.995,0,14.5,6.505,14.5,14.5S23.995,30.5,16,30.5S1.5,23.995,1.5,16S8.005,1.5,16,1.5 M16,0
				C7.163,0,0,7.163,0,16c0,8.836,7.163,16,16,16s16-7.164,16-16C32,7.163,24.837,0,16,0L16,0z"/>
		</g>
	</g>
	<path display="inline" d="M20.244,22.441l1.796-1.077v0.98l-6.054,3.927l-5.92-3.955v-0.923l1.771,1.049l0.197,0.116l0.182-0.139
		l3.824-2.935l3.823,2.935l0.183,0.139L20.244,22.441z M16.053,11.367l5.822,3.345L16,18.604l-5.839-3.678L16.053,11.367z
		 M26.163,11.562l-5.998-3.833l-4.124,3.458l-4.031-3.458L5.837,11.75l4.25,3.233l-4.25,3.233l4.229,2.505l1.944,1.15l4.031-3.093
		l4.03,3.093l1.97-1.182l4.123-2.473l-3.936-3.375L26.163,11.562z"/>
</g>
<g id="Style_2_copy_2" display="none">
	<path display="inline" fill="#FFFFFF" d="M16,31.25C7.591,31.25,0.75,24.409,0.75,16C0.75,7.591,7.591,0.75,16,0.75
		S31.25,7.591,31.25,16C31.25,24.409,24.409,31.25,16,31.25z"/>
	<path display="inline" fill="#8AD5DD" d="M16,1.5c7.995,0,14.5,6.505,14.5,14.5S23.995,30.5,16,30.5S1.5,23.995,1.5,16
		S8.005,1.5,16,1.5 M16,0C7.163,0,0,7.163,0,16c0,8.836,7.163,16,16,16s16-7.164,16-16C32,7.163,24.837,0,16,0L16,0z"/>
	<path display="inline" fill="#333333" d="M20.244,22.441l1.796-1.077v0.98l-6.054,3.927l-5.92-3.955v-0.923l1.771,1.049
		l0.197,0.116l0.182-0.139l3.824-2.935l3.823,2.935l0.183,0.139L20.244,22.441z M16.053,11.367l5.822,3.345L16,18.604l-5.839-3.678
		L16.053,11.367z M26.163,11.562l-5.998-3.833l-4.124,3.458l-4.031-3.458L5.837,11.75l4.25,3.233l-4.25,3.233l4.229,2.505
		l1.944,1.15l4.031-3.093l4.03,3.093l1.97-1.182l4.123-2.473l-3.936-3.375L26.163,11.562z"/>
</g>
<g id="Style_3" display="none">
	<g display="inline">
		<g>
			<path fill="#FFFFFF" d="M16,31.625c-8.615,0-15.625-7.01-15.625-15.625C0.375,7.384,7.385,0.375,16,0.375S31.625,7.384,31.625,16
				C31.625,24.615,24.615,31.625,16,31.625z"/>
			<path fill="#E5E5E5" d="M16,0.75c8.409,0,15.25,6.841,15.25,15.25S24.409,31.25,16,31.25S0.75,24.409,0.75,16S7.591,0.75,16,0.75
				 M16,0C7.163,0,0,7.163,0,16c0,8.836,7.163,16,16,16s16-7.164,16-16C32,7.163,24.837,0,16,0L16,0z"/>
		</g>
	</g>
	<path display="inline" fill="#FF3878" d="M20.244,22.789l1.796-1.077v0.98l-6.054,3.927l-5.92-3.955v-0.923l1.771,1.049
		l0.197,0.116l0.182-0.139l3.824-2.935l3.823,2.935l0.183,0.139L20.244,22.789z M16.053,11.367l5.822,3.345L16,18.604l-5.839-3.678
		L16.053,11.367z M26.163,11.562l-5.998-3.833l-4.124,3.458l-4.031-3.458L5.837,11.75l4.25,3.233l-4.25,3.233l4.229,2.505
		l1.944,1.15l4.031-3.093l4.03,3.093l1.97-1.182l4.123-2.473l-3.936-3.375L26.163,11.562z"/>
</g>
<g id="Style_3_copy_2" display="none">
	<path display="inline" fill="#25B6D2" d="M22.682,24.84l2.827-1.696v1.543l-9.531,6.182l-9.32-6.226V23.19l2.788,1.652l0.31,0.183
		l0.286-0.219l6.021-4.621l6.019,4.621l0.288,0.219L22.682,24.84z M16.083,6.858l9.166,5.266L16,18.252l-9.192-5.791L16.083,6.858z
		 M31.999,7.165l-9.443-6.034l-6.493,5.444L9.717,1.131L0,7.461l6.691,5.09L0,17.641l6.657,3.944l3.06,1.811l6.346-4.87l6.344,4.87
		l3.102-1.861L32,17.641l-6.197-5.313L31.999,7.165z"/>
</g>
<g id="Style_3_copy" display="none">
	<g display="inline">
		<g>
			<path fill="#FFFFFF" d="M16,31.625c-8.615,0-15.625-7.01-15.625-15.625C0.375,7.384,7.385,0.375,16,0.375S31.625,7.384,31.625,16
				C31.625,24.615,24.615,31.625,16,31.625z"/>
			<path fill="#E5E5E5" d="M16,0.75c8.409,0,15.25,6.841,15.25,15.25S24.409,31.25,16,31.25S0.75,24.409,0.75,16S7.591,0.75,16,0.75
				 M16,0C7.163,0,0,7.163,0,16c0,8.836,7.163,16,16,16s16-7.164,16-16C32,7.163,24.837,0,16,0L16,0z"/>
		</g>
	</g>
	<path display="inline" fill="#0BA4E0" d="M20.244,22.789l1.796-1.077v0.98l-6.054,3.927l-5.92-3.955v-0.923l1.771,1.049
		l0.197,0.116l0.182-0.139l3.824-2.935l3.823,2.935l0.183,0.139L20.244,22.789z M16.053,11.367l5.822,3.345L16,18.604l-5.839-3.678
		L16.053,11.367z M26.163,11.562l-5.998-3.833l-4.124,3.458l-4.031-3.458L5.837,11.75l4.25,3.233l-4.25,3.233l4.229,2.505
		l1.944,1.15l4.031-3.093l4.03,3.093l1.97-1.182l4.123-2.473l-3.936-3.375L26.163,11.562z"/>
</g>
<g id="Style_3_copy_3" display="none">
</g>
<g id="Style_3_copy_4" display="none">
</g>
</svg>
