<?xml version="1.0" encoding="utf-8"?>
<!-- Generator: Adobe Illustrator 19.2.1, SVG Export Plug-In . SVG Version: 6.00 Build 0)  -->
<svg version="1.1" xmlns="http://www.w3.org/2000/svg" xmlns:xlink="http://www.w3.org/1999/xlink" x="0px" y="0px"
	 viewBox="0 0 64 64" enable-background="new 0 0 64 64" xml:space="preserve">
<g id="Layer_4_copy_8" display="none">
	<g id="Lozenge_12_" display="inline">
		<g>
			<g>
				<path d="M49.489,24.864c0,0-0.349-2.459-1.419-3.543c-1.357-1.422-2.878-1.429-3.576-1.512
					c-4.994-0.361-12.486-0.361-12.486-0.361h-0.015c0,0-7.492,0-12.486,0.361c-0.698,0.083-2.218,0.09-3.576,1.512
					c-1.07,1.083-1.418,3.543-1.418,3.543s-0.357,2.888-0.357,5.776v2.708c0,2.888,0.357,5.776,0.357,5.776s0.348,2.459,1.418,3.543
					c1.358,1.421,3.141,1.377,3.935,1.526C22.721,44.466,32,44.551,32,44.551s7.499-0.011,12.494-0.372
					c0.698-0.083,2.219-0.09,3.576-1.512c1.07-1.083,1.419-3.543,1.419-3.543s0.356-2.888,0.356-5.776v-2.708
					C49.845,27.752,49.489,24.864,49.489,24.864z M28.315,36.629l-0.002-10.028l9.644,5.031L28.315,36.629z"/>
			</g>
		</g>
	</g>
</g>
<g id="Layer_4_copy_9" display="none">
	<g display="inline">
		<g>
			<g>
				<path fill="#333333" d="M33.912-1.544c-17.673,0-32,14.327-32,32c0,17.673,14.327,32,32,32s32-14.327,32-32
					C65.912,12.783,51.585-1.544,33.912-1.544z"/>
			</g>
		</g>
		<g>
			<line fill="none" stroke="#FFFFFF" stroke-width="6" stroke-miterlimit="10" x1="17.405" y1="30.456" x2="50.419" y2="30.456"/>
		</g>
	</g>
</g>
<g id="Layer_3">
	<g>
		<g>
			<path fill="#FFFFFF" d="M32.001,63.251c-17.23,0-31.25-14.02-31.25-31.25s14.02-31.25,31.25-31.25s31.25,14.02,31.25,31.25
				S49.231,63.251,32.001,63.251z"/>
			<path fill="#E5E5E5" d="M32,1.5c16.818,0,30.5,13.682,30.5,30.5S48.818,62.5,32,62.5S1.5,48.818,1.5,32S15.182,1.5,32,1.5 M32,0
				C14.327,0,0,14.327,0,32c0,17.673,14.327,32,32,32s32-14.327,32-32C64,14.327,49.673,0,32,0L32,0z"/>
		</g>
	</g>
	<g>
		<g id="Xing_1_">
			<path fill="#333333" d="M24.933,21.213H17.47l4.41,7.793L16,38.72h7.462l5.879-9.713L24.933,21.213z M40.084,15l-11.76,20.671
				L35.901,49h7.917L36.24,35.671L48,15H40.084L40.084,15z"/>
		</g>
	</g>
</g>
</svg>
